<?xml version="1.0" standalone="no"?>
<!DOCTYPE svg PUBLIC "-//W3C//DTD SVG 1.1//EN" "http://www.w3.org/Graphics/SVG/1.1/DTD/svg11.dtd" >
<svg xmlns="http://www.w3.org/2000/svg" xmlns:xlink="http://www.w3.org/1999/xlink" version="1.1">
<metadata>
Created by FontForge 20190801 at Tue Jun 30 08:27:48 2020
 By www-data
Copyright (c) 2018 by Nikola &#38; Zoran Kostic. All rights reserved.
</metadata>
<defs>
<font id="RocGroteskW05Wide" horiz-adv-x="800" >
  <font-face 
    font-family="RocGroteskW05Wide"
    font-weight="400"
    font-stretch="expanded"
    units-per-em="1000"
    panose-1="1 0 0 0 0 0 0 0 0 0"
    ascent="760"
    descent="-240"
    x-height="494"
    cap-height="658"
    bbox="-469 -294 1388 942"
    underline-thickness="50"
    underline-position="-125"
    unicode-range="U+000D-FB02"
  />
<missing-glyph horiz-adv-x="513" 
d="M80 0v658h353v-658h-353zM138 59h235v541h-235v-541z" />
    <glyph glyph-name="f_f" unicode="ff" horiz-adv-x="1031" 
d="M115 0v416h-105v78h105v45q0 92 65 140.5t175 48.5q80 0 136 -20v-77q-59 19 -131 19q-84 0 -120.5 -27.5t-36.5 -89.5v-39h393v45q0 92 65 140.5t175 48.5q80 0 136 -20v-77q-59 19 -131 19q-84 0 -120.5 -27.5t-36.5 -89.5v-39h298v-78h-298v-416h-88v416h-393v-416
h-88z" />
    <glyph glyph-name="fi" unicode="fi" horiz-adv-x="772" 
d="M115 0v416h-105v78h105v45q0 92 65 140.5t175 48.5q80 0 136 -20v-77q-59 19 -131 19q-84 0 -120.5 -27.5t-36.5 -89.5v-39h298v-78h-298v-416h-88zM611 571v106h100v-106h-100zM617 0v494h88v-494h-88z" />
    <glyph glyph-name="fl" unicode="fl" horiz-adv-x="764" 
d="M115 0v416h-105v78h105v45q0 92 65 140.5t175 48.5q80 0 136 -20v-77q-59 19 -131 19q-84 0 -120.5 -27.5t-36.5 -89.5v-39h298v-78h-298v-416h-88zM613 0v700h88v-700h-88z" />
    <glyph glyph-name=".notdef" horiz-adv-x="513" 
d="M80 0v658h353v-658h-353zM138 59h235v541h-235v-541z" />
    <glyph glyph-name=".null" horiz-adv-x="0" 
 />
    <glyph glyph-name="nonmarkingreturn" horiz-adv-x="333" 
 />
    <glyph glyph-name="NULL" horiz-adv-x="0" 
 />
    <glyph glyph-name="NULL" horiz-adv-x="0" 
 />
    <glyph glyph-name="CR" unicode="&#xd;" horiz-adv-x="320" 
 />
    <glyph glyph-name="space" unicode=" " horiz-adv-x="320" 
 />
    <glyph glyph-name="exclam" unicode="!" horiz-adv-x="232" 
d="M98 235l-28 345v92h92v-92l-28 -345h-36zM66 0v119h100v-119h-100z" />
    <glyph glyph-name="quotedbl" unicode="&#x22;" horiz-adv-x="396" 
d="M89 424l-29 212v22h88v-22l-29 -212h-30zM276 424l-29 212v22h89v-22l-29 -212h-31z" />
    <glyph glyph-name="numbersign" unicode="#" 
d="M770 412h-182l-41 -178h223v-82h-241l-35 -152h-68l35 152h-202l-35 -152h-68l35 152h-161v82h179l41 178h-220v82h239l37 164h68l-37 -164h202l37 164h68l-37 -164h163v-82zM479 234l41 178h-202l-41 -178h202z" />
    <glyph glyph-name="dollar" unicode="$" 
d="M741 220q0 -161 -249 -187v-106h-44v103q-16 -1 -52 -1q-30 0 -44 1v-103h-44v106q-76 8 -128 29t-75.5 51t-32 55.5t-8.5 53.5h86q2 -93 158 -111v187q-130 10 -174 31q-67 33 -67 115q0 65 59.5 115.5t181.5 64.5v107h44v-103q13 1 41 1q21 0 55 -2v104h44v-107
q65 -8 109.5 -26.5t67.5 -46t32 -56.5t9 -65h-84q-1 49 -28.5 77.5t-105.5 38.5v-182q120 -6 160 -19q89 -28 89 -125zM393 551q-28 0 -41 -1v-180l69 -3q5 0 14 -0.5t13 -0.5v184q-17 1 -55 1zM200 386q30 -11 108 -14v175q-153 -18 -153 -100q0 -46 45 -61zM396 107
q36 0 52 1v185q-12 0 -36.5 0.5t-35.5 1.5q-4 0 -12 0.5t-12 0.5v-188q14 -1 44 -1zM492 111q92 9 126.5 35.5t34.5 68.5q0 52 -58 65q-31 7 -103 11v-180z" />
    <glyph glyph-name="percent" unicode="%" 
d="M221 375q-82 0 -131 40t-49 107q0 60 49.5 103t130.5 43q80 0 130 -43t50 -103q0 -67 -49 -107t-131 -40zM42 0l643 658h73l-643 -658h-73zM221 429q55 0 86.5 24t31.5 69q0 40 -33 66t-85 26q-53 0 -85.5 -26t-32.5 -66q0 -45 31.5 -69t86.5 -24zM579 -10q-82 0 -131 40
t-49 107q0 60 49.5 103t130.5 43q80 0 130 -43t50 -103q0 -67 -49 -107t-131 -40zM579 44q55 0 86.5 24t31.5 69q0 40 -33 66t-85 26q-53 0 -85.5 -26t-32.5 -66q0 -45 31.5 -69t86.5 -24z" />
    <glyph glyph-name="ampersand" unicode="&#x26;" horiz-adv-x="950" 
d="M895 66q8 0 18 1v-77q-11 -2 -26 -2q-120 0 -253 72q-117 -72 -262 -72q-152 0 -229.5 66.5t-77.5 150.5q0 76 56.5 134.5t178.5 66.5q-25 58 -25 102q0 67 53 114.5t154 47.5q93 0 149 -44.5t56 -116.5q0 -73 -57.5 -122t-188.5 -49l-1 -1q81 -105 196 -181
q94 78 146 215h88q-48 -154 -162 -256q100 -49 187 -49zM482 592q-61 0 -90 -26.5t-29 -68.5q0 -36 30 -91q114 2 162 24.5t48 78.5q0 36 -33 59.5t-88 23.5zM153 205q0 -56 53.5 -97.5t165.5 -41.5q104 0 187 41q-139 98 -219 226h-3q-97 -3 -140.5 -39.5t-43.5 -88.5z" />
    <glyph glyph-name="quotesingle" unicode="'" horiz-adv-x="208" 
d="M89 424l-29 212v22h88v-22l-29 -212h-30z" />
    <glyph glyph-name="parenleft" unicode="(" horiz-adv-x="326" 
d="M227 -152q-87 77 -136 188.5t-49 247.5t51.5 252t137.5 194h86q-88 -77 -142.5 -194.5t-54.5 -251.5q0 -133 54 -246t143 -190h-90z" />
    <glyph glyph-name="parenright" unicode=")" horiz-adv-x="326" 
d="M8 -152q89 77 143 190t54 246q0 134 -54.5 251.5t-142.5 194.5h86q86 -78 137.5 -194.5t51.5 -251.5q0 -136 -49.5 -247t-135.5 -189h-90z" />
    <glyph glyph-name="asterisk" unicode="*" horiz-adv-x="620" 
d="M202 264l-46 34l105 143l-1 4l-173 55l18 55l173 -55l3 2v178h58v-178l3 -2l173 55l18 -55l-173 -55l-1 -4l105 -143l-47 -34l-105 143h-4z" />
    <glyph glyph-name="plus" unicode="+" 
d="M369 30v224h-276v58h276v224h62v-224h276v-58h-276v-224h-62z" />
    <glyph glyph-name="comma" unicode="," horiz-adv-x="334" 
d="M88 -139v53q75 7 75 84v2h-44v119h100v-104q0 -140 -131 -154z" />
    <glyph glyph-name="hyphen" unicode="-" horiz-adv-x="368" 
d="M46 254v58h276v-58h-276z" />
    <glyph glyph-name="period" unicode="." horiz-adv-x="334" 
d="M117 0v119h100v-119h-100z" />
    <glyph glyph-name="slash" unicode="/" horiz-adv-x="385" 
d="M-43 -200l406 940h65l-406 -940h-65z" />
    <glyph glyph-name="zero" unicode="0" 
d="M399 -10q-90 0 -159 27.5t-110 76t-61 108.5t-20 130q0 149 91.5 242.5t258.5 93.5q168 0 260 -93.5t92 -242.5q0 -70 -20.5 -130t-61.5 -108.5t-110 -76t-160 -27.5zM399 72q129 0 193.5 72.5t64.5 187.5q0 116 -67 185t-191 69q-122 0 -189 -69t-67 -185
q0 -115 64 -187.5t192 -72.5z" />
    <glyph glyph-name="one" unicode="1" 
d="M79 0v82h300v336h-194v68l130 3q38 1 53.5 12.5t22 45.5t8.5 117h74v-582h248v-82h-642z" />
    <glyph glyph-name="two" unicode="2" 
d="M69 0q0 57 7.5 88.5t38.5 61.5t82.5 51.5t149.5 52.5q114 37 171 67.5t74.5 58t17.5 71.5q0 56 -52 95.5t-157 39.5q-117 0 -176.5 -45.5t-59.5 -124.5q0 -35 8 -67h-89q-7 30 -7 75q0 105 82.5 174.5t241.5 69.5q81 0 142.5 -19.5t95 -52t49.5 -69t16 -74.5
q0 -61 -26 -103.5t-94 -82t-190 -78.5q-55 -17 -88 -28t-59.5 -21t-38.5 -16t-20.5 -13.5t-10 -13t-1.5 -15.5h547v-82h-654z" />
    <glyph glyph-name="three" unicode="3" 
d="M389 -10q-96 0 -165.5 19t-106 51.5t-52.5 68t-16 75.5q0 28 4 44h86q-2 -16 -2 -33q0 -63 59 -103t195 -40q266 0 266 141q0 90 -158 90h-161v74h129q85 0 120 24t35 70q0 55 -56.5 85t-166.5 30q-240 0 -240 -142q0 -15 2 -31h-85q-5 17 -5 43q0 40 16.5 75.5t52 67.5
t102 50.5t157.5 18.5q150 0 229.5 -51t79.5 -133q0 -105 -107 -128v-2q75 -8 112.5 -48t37.5 -98q0 -99 -88.5 -158.5t-273.5 -59.5z" />
    <glyph glyph-name="four" unicode="4" 
d="M542 0v146h-501v84l497 428h98v-430h146v-82h-146v-146h-94zM153 228h389v335h-1l-388 -334v-1z" />
    <glyph glyph-name="five" unicode="5" 
d="M418 -10q-83 0 -147 12t-101.5 30.5t-61.5 44t-32.5 50t-8.5 51.5q0 7 1 14h87v-8q0 -48 61.5 -80t201.5 -32q229 0 229 150q0 134 -230 134q-103 0 -161.5 -24.5t-80.5 -55.5l-91 10l33 372h564v-82h-487l-22 -244h2q43 98 259 98q161 0 234.5 -59t73.5 -152
q0 -97 -78 -163t-245 -66z" />
    <glyph glyph-name="six" unicode="6" 
d="M411 -10q-88 0 -154 19t-105 49t-63 75t-32 89.5t-8 99.5q0 158 92.5 252t271.5 94q157 0 233 -57t76 -144q0 -17 -2 -31h-88q2 10 2 21q0 129 -221 129q-134 0 -202 -69.5t-68 -194.5q0 -11 3 -68h1q11 71 79.5 103.5t206.5 32.5q318 0 318 -185q0 -44 -16.5 -80.5
t-53 -68t-105.5 -49t-165 -17.5zM411 72q246 0 246 133q0 25 -10 44t-35 35t-73 24t-118 8q-136 0 -197.5 -36.5t-61.5 -86.5q0 -7 3.5 -17.5t18.5 -30t39.5 -35t73.5 -27t114 -11.5z" />
    <glyph glyph-name="seven" unicode="7" 
d="M195 0q53 170 166 320.5t263 254.5v1h-575v82h698v-78q-186 -124 -287 -263.5t-155 -316.5h-110z" />
    <glyph glyph-name="eight" unicode="8" 
d="M400 -10q-180 0 -265.5 54.5t-85.5 138.5q0 138 176 158v2q-133 22 -133 142q0 72 75 127.5t233 55.5t233 -55.5t75 -127.5q0 -120 -133 -142v-1q176 -20 176 -159q0 -84 -85.5 -138.5t-265.5 -54.5zM400 373q220 0 220 106q0 46 -53.5 76.5t-166.5 30.5t-166.5 -30.5
t-53.5 -76.5q0 -106 220 -106zM400 72q257 0 257 118q0 109 -257 109t-257 -109q0 -118 257 -118z" />
    <glyph glyph-name="nine" unicode="9" 
d="M387 -10q-167 0 -241.5 54t-74.5 137q0 13 1 25h88q-1 -11 -1 -18q0 -116 228 -116q138 0 204 64.5t66 199.5q0 36 -3 65h-2q-3 -24 -11 -44t-27.5 -41t-50 -35.5t-82 -23.5t-119.5 -9q-89 0 -153 17t-97.5 46t-48 61t-14.5 69q0 43 17.5 81t55 72t106.5 54t162 20
q73 0 130.5 -13t96 -37t66 -54t42 -69t20.5 -77t6 -82q0 -346 -364 -346zM374 322q129 0 195.5 39.5t66.5 107.5q0 4 -3.5 14.5t-19 29t-40 34t-72.5 27.5t-111 12q-133 0 -190 -41t-57 -102q0 -55 49.5 -88t181.5 -33z" />
    <glyph glyph-name="colon" unicode=":" horiz-adv-x="334" 
d="M117 344v119h100v-119h-100zM117 0v119h100v-119h-100z" />
    <glyph glyph-name="semicolon" unicode=";" horiz-adv-x="334" 
d="M117 344v119h100v-119h-100zM86 -139v53q75 7 75 84v2h-44v119h100v-104q0 -140 -131 -154z" />
    <glyph glyph-name="less" unicode="&#x3c;" 
d="M661 22l-522 243v46l522 243v-70l-429 -195v-2l429 -195v-70z" />
    <glyph glyph-name="equal" unicode="=" 
d="M93 342v58h614v-58h-614zM93 156v58h614v-58h-614z" />
    <glyph glyph-name="greater" unicode="&#x3e;" 
d="M139 22v70l429 195v2l-429 195v70l522 -243v-46z" />
    <glyph glyph-name="question" unicode="?" horiz-adv-x="588" 
d="M102 180v164h69q32 -83 137 -83q71 0 116 43.5t45 124.5q0 74 -44 122.5t-124 48.5q-79 0 -117.5 -35t-38.5 -85q0 -11 1 -18h-77q-2 10 -2 25q0 76 60 130.5t174 54.5q117 0 181.5 -67.5t64.5 -173.5q0 -109 -62.5 -175.5t-158.5 -66.5q-128 0 -155 87h-1v-96h-68zM87 0
v119h101v-119h-101z" />
    <glyph glyph-name="at" unicode="@" horiz-adv-x="1073" 
d="M533 -160q-227 0 -363 102t-136 289q0 101 42.5 185.5t114.5 139.5t165.5 85.5t196.5 30.5q239 0 362.5 -98t123.5 -249q0 -141 -75 -223t-179 -82q-66 0 -98 37.5t-17 115.5h-2q-23 -73 -70 -113t-134 -40q-99 0 -156 59t-57 143q0 119 82.5 194.5t201.5 75.5
q135 0 180 -83h1l21 73h81l-57 -273q-13 -65 -13 -87q0 -24 12.5 -35t43.5 -11q68 0 123.5 68t55.5 181q0 136 -107.5 215.5t-322.5 79.5q-91 0 -173.5 -26t-147.5 -74t-103.5 -123t-38.5 -166q0 -163 118 -251t325 -88q97 0 191.5 13t151.5 33l3 -50q-137 -48 -346 -48z
M467 98q81 0 141.5 57t78.5 132l15 64q-52 63 -165 63q-86 0 -142 -51.5t-56 -140.5q0 -59 33.5 -91.5t94.5 -32.5z" />
    <glyph glyph-name="A" unicode="A" horiz-adv-x="968" 
d="M826 0l-94 156h-504l-94 -156h-103l400 658h106l400 -658h-111zM272 230h416l-207 344h-2z" />
    <glyph glyph-name="B" unicode="B" horiz-adv-x="824" 
d="M75 0v658h412q126 0 189.5 -45t63.5 -125q0 -54 -30.5 -92.5t-81.5 -50.5v-1q68 -10 107.5 -50.5t39.5 -99.5q0 -91 -61.5 -142.5t-181.5 -51.5h-457zM169 375h348q64 0 101.5 27.5t37.5 73.5q0 100 -177 100h-310v-201zM169 82h337q181 0 181 120q0 45 -44.5 72
t-118.5 27h-355v-219z" />
    <glyph glyph-name="C" unicode="C" horiz-adv-x="870" 
d="M453 -12q-107 0 -188 29.5t-126.5 79t-67.5 107.5t-22 123q0 145 105 244t291 99q98 0 173 -25t116.5 -65t61.5 -83t20 -85v-9h-88v4q0 30 -15.5 60t-46.5 58t-87.5 45.5t-129.5 17.5q-145 0 -225.5 -72t-80.5 -189q0 -108 77.5 -182.5t232.5 -74.5q134 0 207 52.5
t73 126.5v5h88v-8q0 -101 -95 -179.5t-273 -78.5z" />
    <glyph glyph-name="D" unicode="D" horiz-adv-x="838" 
d="M75 0v658h314q112 0 192.5 -27t124.5 -75t63.5 -103.5t19.5 -123.5q0 -161 -89 -245t-284 -84h-341zM169 82h245q148 0 214.5 60.5t66.5 186.5q0 247 -306 247h-220v-494z" />
    <glyph glyph-name="E" unicode="E" horiz-adv-x="731" 
d="M75 0v658h602v-82h-508v-208h408v-74h-408v-212h518v-82h-612z" />
    <glyph glyph-name="F" unicode="F" horiz-adv-x="697" 
d="M75 0v658h588v-82h-494v-230h424v-74h-424v-272h-94z" />
    <glyph glyph-name="G" unicode="G" horiz-adv-x="889" 
d="M454 -12q-103 0 -183 28t-127 76t-71 106t-24 123q0 146 106.5 247.5t298.5 101.5q95 0 167.5 -22t113.5 -58.5t61 -79t20 -89.5q0 -12 -1 -23h-88q1 10 1 20q0 71 -67 120.5t-207 49.5q-149 0 -230 -76t-81 -192q0 -108 80 -179t231 -71q74 0 130 16.5t86.5 43t45 55
t14.5 57.5v4h-307v74h401v-320h-88q5 61 8 134h-1q-23 -74 -99.5 -110t-189.5 -36z" />
    <glyph glyph-name="H" unicode="H" horiz-adv-x="928" 
d="M75 0v658h94v-277h590v277h94v-658h-94v305h-590v-305h-94z" />
    <glyph glyph-name="I" unicode="I" horiz-adv-x="250" 
d="M78 0v658h94v-658h-94z" />
    <glyph glyph-name="J" unicode="J" horiz-adv-x="776" 
d="M378 -12q-152 0 -233 70.5t-81 194.5q0 33 3 90h88q-3 -60 -3 -90q0 -88 57 -135.5t169 -47.5q108 0 171 57t63 177v354h94v-350q0 -160 -87 -240t-241 -80z" />
    <glyph glyph-name="K" unicode="K" horiz-adv-x="939" 
d="M75 0v658h94v-413h2l577 413h141l-443 -312l466 -346h-154l-386 290l-203 -142v-148h-94z" />
    <glyph glyph-name="L" unicode="L" horiz-adv-x="662" 
d="M75 0v658h94v-576h460v-82h-554z" />
    <glyph glyph-name="M" unicode="M" horiz-adv-x="1038" 
d="M75 0v658h157l288 -550h1l287 550h155v-658h-94v591h-1l-314 -591h-71l-316 591h-2v-591h-90z" />
    <glyph glyph-name="N" unicode="N" horiz-adv-x="915" 
d="M75 0v658h139l534 -532h2v532h90v-658h-93l-581 579h-1v-579h-90z" />
    <glyph glyph-name="O" unicode="O" horiz-adv-x="934" 
d="M467 -12q-203 0 -310.5 93t-107.5 251q0 148 109 243t309 95t309 -95t109 -243q0 -153 -106 -248.5t-312 -95.5zM467 70q160 0 242 72t82 190q0 113 -84.5 184.5t-239.5 71.5t-239.5 -71.5t-84.5 -184.5q0 -121 83 -191.5t241 -70.5z" />
    <glyph glyph-name="P" unicode="P" horiz-adv-x="808" 
d="M75 0v658h396q142 0 215 -57.5t73 -164.5t-71.5 -164.5t-211.5 -57.5h-307v-214h-94zM169 288h292q206 0 206 145q0 72 -49.5 107.5t-159.5 35.5h-289v-288z" />
    <glyph glyph-name="Q" unicode="Q" horiz-adv-x="934" 
d="M467 -12q-203 0 -310.5 93t-107.5 251q0 148 109 243t309 95q197 0 307.5 -93.5t110.5 -233.5q0 -112 -49.5 -183.5t-163.5 -101.5v-2q142 8 210 14v-82h-415zM467 70q160 0 242 72t82 190q0 113 -84.5 184.5t-239.5 71.5t-239.5 -71.5t-84.5 -184.5q0 -121 83 -191.5
t241 -70.5z" />
    <glyph glyph-name="R" unicode="R" horiz-adv-x="849" 
d="M75 0v658h414q145 0 217.5 -50t72.5 -140q0 -58 -33.5 -99.5t-92.5 -55.5v-2q122 -23 122 -170v-141h-94v141q0 127 -151 127h-361v-268h-94zM169 342h344q88 0 133 30.5t45 84.5q0 119 -215 119h-307v-234z" />
    <glyph glyph-name="S" unicode="S" horiz-adv-x="852" 
d="M420 -12q-362 0 -362 233h88q0 -30 10 -53.5t36.5 -47.5t84.5 -37t143 -13q87 0 145.5 10t87.5 28.5t40 39t11 48.5q0 58 -69 76q-35 10 -245 20q-196 9 -256 36q-37 17 -58.5 51t-21.5 79q0 92 92.5 152t268.5 60q106 0 178 -18t108.5 -52t50.5 -71t14 -86h-88
q0 71 -57.5 108t-205.5 37q-134 0 -200.5 -32.5t-66.5 -90.5q0 -52 57 -73q44 -16 241 -24q198 -9 256 -29q45 -16 70.5 -52.5t25.5 -84.5q0 -214 -378 -214z" />
    <glyph glyph-name="T" unicode="T" horiz-adv-x="760" 
d="M333 0v576h-305v82h704v-82h-305v-576h-94z" />
    <glyph glyph-name="U" unicode="U" horiz-adv-x="888" 
d="M445 -12q-179 0 -277 77t-98 231v362h94v-351q0 -237 281 -237q285 0 285 237v351h88v-362q0 -154 -96.5 -231t-276.5 -77z" />
    <glyph glyph-name="V" unicode="V" horiz-adv-x="953" 
d="M422 0l-396 658h110l343 -575h2l341 575h105l-396 -658h-109z" />
    <glyph glyph-name="W" unicode="W" horiz-adv-x="1353" 
d="M336 0l-310 658h104l259 -550h2l245 539h93l240 -539h2l258 550h98l-311 -658h-101l-235 525h-2l-240 -525h-102z" />
    <glyph glyph-name="X" unicode="X" horiz-adv-x="879" 
d="M26 0l347 334l-337 324h133l275 -265l270 265h129l-339 -322l349 -336h-133l-286 275l-280 -275h-128z" />
    <glyph glyph-name="Y" unicode="Y" horiz-adv-x="921" 
d="M413 0v272l-387 386h133l305 -307h2l303 307h126l-388 -386v-272h-94z" />
    <glyph glyph-name="Z" unicode="Z" horiz-adv-x="763" 
d="M48 0v65l540 510v1h-533v82h660v-70l-534 -505v-1h527v-82h-660z" />
    <glyph glyph-name="bracketleft" unicode="[" horiz-adv-x="401" 
d="M63 -190v983h321v-56h-233v-871h233v-56h-321z" />
    <glyph glyph-name="backslash" unicode="\" horiz-adv-x="394" 
d="M332 -200l-335 940h64l335 -940h-64z" />
    <glyph glyph-name="bracketright" unicode="]" horiz-adv-x="401" 
d="M18 -190v56h233v871h-233v56h321v-983h-321z" />
    <glyph glyph-name="asciicircum" unicode="^" 
d="M71 354l305 318h48l304 -318h-86l-241 254h-2l-242 -254h-86z" />
    <glyph glyph-name="underscore" unicode="_" 
d="M0 -159v54h800v-54h-800z" />
    <glyph glyph-name="a" unicode="a" horiz-adv-x="723" 
d="M308 -9q-126 0 -190 43.5t-64 110.5q0 39 17 66t48.5 40t66.5 18.5t81 5.5h314v13q0 142 -222 142q-204 0 -204 -95q0 -6 1 -13h-84q-1 9 -1 17q0 76 73.5 120.5t214.5 44.5q151 0 230.5 -60.5t79.5 -164.5v-279h-88q4 43 6 127h-1q-36 -136 -278 -136zM313 65
q132 0 200 42t68 102v2h-303q-74 0 -107 -12t-33 -52q0 -82 175 -82z" />
    <glyph glyph-name="b" unicode="b" horiz-adv-x="788" 
d="M432 -10q-245 0 -286 131h-1q1 -55 6 -121h-88v700h88v-269q0 -12 -0.5 -39.5t-0.5 -36.5h2q47 149 269 149q151 0 234.5 -70.5t83.5 -179.5q0 -116 -83.5 -190t-223.5 -74zM415 68q116 0 176 50.5t60 135.5q0 72 -58.5 122t-175.5 50q-116 0 -191 -55.5t-75 -136.5v-9
q0 -60 70.5 -108.5t193.5 -48.5z" />
    <glyph glyph-name="c" unicode="c" horiz-adv-x="716" 
d="M363 -10q-81 0 -143.5 22t-98.5 59.5t-54 82t-18 93.5q0 111 83.5 184t237.5 73q149 0 221.5 -59.5t72.5 -144.5h-84q-1 55 -52 90.5t-158 35.5q-114 0 -173.5 -50t-59.5 -129q0 -77 54.5 -128t171.5 -51q113 0 166 35.5t54 88.5h84q0 -83 -74.5 -142.5t-229.5 -59.5z
" />
    <glyph glyph-name="d" unicode="d" horiz-adv-x="788" 
d="M376 -10q-153 0 -240 70.5t-87 192.5q0 109 87 180t240 71q225 0 260 -122h1v318h88v-700h-88q3 40 5 140h-2q-19 -70 -86.5 -110t-177.5 -40zM376 68q122 0 191.5 56.5t69.5 121.5v16q0 74 -66 119t-195 45q-116 0 -177.5 -48t-61.5 -125q0 -86 63.5 -135.5t175.5 -49.5
z" />
    <glyph glyph-name="e" unicode="e" horiz-adv-x="725" 
d="M676 261v-38h-538q13 -159 239 -159q104 0 155 27.5t60 68.5h84q-7 -69 -82 -119.5t-217 -50.5q-91 0 -158 22t-102.5 60t-51.5 80.5t-16 90.5q0 119 86.5 190t236.5 71t227 -64.5t77 -178.5zM592 287v3q0 65 -55 102.5t-164 37.5q-206 0 -232 -143h451z" />
    <glyph glyph-name="f" unicode="f" horiz-adv-x="550" 
d="M115 0v416h-105v78h105v45q0 92 65 140.5t175 48.5q80 0 136 -20v-77q-59 19 -131 19q-84 0 -120.5 -27.5t-36.5 -89.5v-39h298v-78h-298v-416h-88z" />
    <glyph glyph-name="g" unicode="g" horiz-adv-x="759" 
d="M525 75q106 0 150.5 -35.5t44.5 -88.5q0 -75 -77 -122t-255 -47q-347 0 -347 154q0 44 35 71t95 25l1 1q-42 33 -42 82q0 60 34 82v1q-89 44 -89 136q0 74 69.5 122t206.5 48q112 0 183 -34l1 2q-18 16 -18 45q0 31 27.5 51.5t82.5 20.5q35 0 58 -7v-75q-27 8 -54 8
q-28 0 -42 -12.5t-14 -29.5q0 -19 11 -38q42 -42 42 -101q0 -75 -70.5 -122.5t-206.5 -47.5q-73 0 -132 14q-15 -18 -15 -44t20 -42.5t61 -16.5h240zM351 430q-95 0 -143.5 -27t-48.5 -69q0 -96 192 -96q95 0 144 26.5t49 69.5q0 45 -49.5 70.5t-143.5 25.5zM388 -144
q134 0 189 21.5t55 65.5q0 28 -29 43t-104 15h-209q-89 0 -125 -16t-36 -50q0 -79 259 -79z" />
    <glyph glyph-name="h" unicode="h" horiz-adv-x="783" 
d="M63 0v700h88v-254q0 -53 -1 -97h2q31 80 99 117.5t189 37.5q149 0 219 -62t70 -162v-280h-88v257q0 83 -50.5 126t-172.5 43q-110 0 -188.5 -54.5t-78.5 -152.5v-219h-88z" />
    <glyph glyph-name="i" unicode="i" horiz-adv-x="222" 
d="M61 571v106h100v-106h-100zM67 0v494h88v-494h-88z" />
    <glyph glyph-name="j" unicode="j" horiz-adv-x="221" 
d="M60 571v106h100v-106h-100zM-71 -208q-66 0 -107 13v76q48 -11 107 -11q137 0 137 156v468h88v-471q0 -100 -54 -165.5t-171 -65.5z" />
    <glyph glyph-name="k" unicode="k" horiz-adv-x="782" 
d="M63 0v700h88v-491h1l439 285h141l-357 -224l376 -270h-144l-300 222l-156 -97v-125h-88z" />
    <glyph glyph-name="l" unicode="l" horiz-adv-x="214" 
d="M63 0v700h88v-700h-88z" />
    <glyph glyph-name="m" unicode="m" horiz-adv-x="1139" 
d="M59 0v494h88l-1 -148h1q50 158 234 158q97 0 156.5 -42t73.5 -112h1q39 154 238 154q116 0 175.5 -57.5t59.5 -161.5v-285h-88v262q0 81 -39.5 122.5t-127.5 41.5q-38 0 -74 -11.5t-68 -34.5t-52 -64t-20 -93v-223h-88v262q0 81 -40 122.5t-128 41.5q-50 0 -97 -21.5
t-81.5 -69.5t-34.5 -112v-223h-88z" />
    <glyph glyph-name="n" unicode="n" horiz-adv-x="779" 
d="M59 0v494h88l-1 -145h2q31 80 99 117.5t189 37.5q149 0 219 -62t70 -162v-280h-88v257q0 83 -50.5 126t-172.5 43q-110 0 -188.5 -54.5t-78.5 -152.5v-219h-88z" />
    <glyph glyph-name="o" unicode="o" horiz-adv-x="764" 
d="M382 -10q-167 0 -250 74.5t-83 181.5t84 182.5t249 75.5t249 -75.5t84 -182.5t-83 -181.5t-250 -74.5zM382 68q126 0 185.5 50.5t59.5 127.5t-60 128.5t-185 51.5t-185 -51.5t-60 -128.5q0 -76 60 -127t185 -51z" />
    <glyph glyph-name="p" unicode="p" horiz-adv-x="788" 
d="M63 -198v692h88l-1 -140h1q49 150 266 150q150 0 236 -69.5t86 -182.5q0 -123 -85.5 -192.5t-229.5 -69.5q-119 0 -183 30.5t-93 93.5h-1q4 -68 4 -110v-202h-88zM415 68q114 0 175 46.5t61 137.5q0 77 -62 125.5t-176 48.5q-119 0 -189.5 -54t-72.5 -133v-15
q0 -60 70.5 -108t193.5 -48z" />
    <glyph glyph-name="q" unicode="q" horiz-adv-x="788" 
d="M637 -198v331h-2q-15 -67 -83 -105t-182 -38q-147 0 -234 69.5t-87 187.5q0 111 88 184t241 73q109 0 176 -33.5t82 -91.5h1v115h88v-692h-88zM376 68q119 0 190 59t71 122v13q0 70 -69 117t-190 47q-117 0 -179 -50.5t-62 -128.5q0 -85 63.5 -132t175.5 -47z" />
    <glyph glyph-name="r" unicode="r" horiz-adv-x="680" 
d="M59 0v494h88l-1 -157h2q56 167 250 167q233 0 233 -240q0 -50 -2 -76h-83q0 5 0.5 23.5t0.5 27.5q0 97 -37.5 142t-127.5 45q-105 0 -170 -71.5t-65 -172.5v-182h-88z" />
    <glyph glyph-name="s" unicode="s" horiz-adv-x="696" 
d="M339 -10q-290 0 -290 174h84q0 -21 7.5 -37t28 -31t63.5 -23.5t107 -8.5q123 0 171.5 22t48.5 61t-40 50q-30 9 -192 13q-165 5 -224 35q-54 28 -54 97q0 74 77.5 118t212.5 44q83 0 141 -14.5t87 -41t40.5 -55.5t11.5 -66h-84q-1 33 -14.5 54t-57.5 35t-122 14
q-204 0 -204 -85q0 -35 39 -47q27 -8 198 -16q155 -6 206 -27q67 -29 67 -106q0 -30 -14 -56t-46 -50.5t-95.5 -38.5t-152.5 -14z" />
    <glyph glyph-name="t" unicode="t" horiz-adv-x="557" 
d="M381 -4q-139 0 -202.5 53t-63.5 143v224h-105v78h83q13 0 18.5 7.5t7.5 25.5l6 79h78v-112h304v-78h-304v-217q0 -64 39.5 -94.5t141.5 -30.5q67 0 121 13v-76q-47 -15 -124 -15z" />
    <glyph glyph-name="u" unicode="u" horiz-adv-x="779" 
d="M345 -10q-144 0 -217.5 65t-73.5 164v275h88v-258q0 -81 49.5 -124.5t167.5 -43.5q116 0 194.5 60.5t78.5 163.5v202h88v-494h-88q5 100 5 162h-2q-38 -172 -290 -172z" />
    <glyph glyph-name="v" unicode="v" horiz-adv-x="787" 
d="M343 0l-317 494h105l266 -418h1l262 418h101l-317 -494h-101z" />
    <glyph glyph-name="w" unicode="w" horiz-adv-x="1042" 
d="M231 0l-205 494h97l163 -407h1l197 407h84l188 -407h1l167 407h92l-206 -494h-103l-184 394h-2l-189 -394h-101z" />
    <glyph glyph-name="x" unicode="x" horiz-adv-x="716" 
d="M26 0l267 255l-257 239h123l202 -188l199 188h120l-262 -241l272 -253h-123l-216 201l-204 -201h-121z" />
    <glyph glyph-name="y" unicode="y" horiz-adv-x="736" 
d="M185 -218q-50 0 -85 14v77q35 -13 85 -13t82.5 27t80.5 113h-17l-305 494h105l255 -419h2l226 419h96l-275 -503q-67 -122 -116.5 -165.5t-133.5 -43.5z" />
    <glyph glyph-name="z" unicode="z" horiz-adv-x="627" 
d="M47 0v53l399 361v2h-391v78h525v-53l-399 -362v-1h399v-78h-533z" />
    <glyph glyph-name="braceleft" unicode="{" horiz-adv-x="450" 
d="M432 -187q-152 0 -225 31.5t-73 113.5q0 40 37.5 110t37.5 104q0 36 -26 59.5t-69 23.5h-81v58h81q43 0 69 23.5t26 59.5q0 35 -37.5 104t-37.5 110q0 82 73 113.5t225 31.5v-56q-116 0 -167 -20t-51 -69q0 -33 36.5 -101t36.5 -107q0 -40 -27.5 -71.5t-76.5 -45.5v-3
q49 -12 76.5 -44.5t27.5 -71.5t-36.5 -106.5t-36.5 -101.5q0 -50 50.5 -69.5t167.5 -19.5v-56z" />
    <glyph glyph-name="bar" unicode="|" horiz-adv-x="270" 
d="M105 -200v940h60v-940h-60z" />
    <glyph glyph-name="braceright" unicode="}" horiz-adv-x="450" 
d="M17 -187v56q117 0 167.5 19.5t50.5 69.5q0 34 -36.5 101.5t-36.5 106.5t27.5 71.5t76.5 44.5v3q-49 14 -76.5 45.5t-27.5 71.5q0 39 36.5 107t36.5 101q0 49 -51 69t-167 20v56q152 0 225 -31.5t73 -113.5q0 -41 -37.5 -110t-37.5 -104q0 -36 26 -59.5t69 -23.5h81v-58
h-81q-43 0 -69 -23.5t-26 -59.5q0 -34 37.5 -104t37.5 -110q0 -82 -73 -113.5t-225 -31.5z" />
    <glyph glyph-name="asciitilde" unicode="~" 
d="M574 171q-79 0 -155 61l-70 56q-68 55 -122 55q-91 0 -91 -107v-56h-62v66q0 74 41.5 115.5t110.5 41.5q78 0 154 -61l71 -56q68 -55 122 -55q91 0 91 107v56h62v-66q0 -77 -42 -117t-110 -40z" />
    <glyph glyph-name="uni00A0" unicode="&#xa0;" horiz-adv-x="240" 
 />
    <glyph glyph-name="exclamdown" unicode="&#xa1;" horiz-adv-x="232" 
d="M66 345v119h100v-119h-100zM70 -208v92l28 345h36l28 -345v-92h-92z" />
    <glyph glyph-name="cent" unicode="&#xa2;" 
d="M405 150q129 0 190 35.5t62 88.5h84q0 -83 -82 -142.5t-254 -59.5q-24 0 -35 1l-32 -103h-54l33 108q-130 19 -194 90t-64 161q0 111 91.5 184t261.5 73q23 0 61 -2l32 104h54l-34 -111q108 -20 162 -73.5t54 -121.5h-84q-1 43 -39 75.5t-116 44.5l-109 -352h12zM147 329
q0 -67 46.5 -115t147.5 -60l108 353q-12 1 -37 1q-131 0 -198 -50t-67 -129z" />
    <glyph glyph-name="sterling" unicode="&#xa3;" 
d="M738 231q7 -23 7 -50q0 -71 -46 -111.5t-135 -40.5q-86 0 -224 63l-14 6q-47 -69 -147 -69q-66 0 -99.5 27t-33.5 68q0 36 30.5 61.5t90.5 25.5q48 0 112 -19q-7 41 -48 94h-165v52h121q-35 41 -48.5 67t-13.5 57q0 66 75.5 116.5t224.5 50.5q289 0 289 -181
q0 -24 -5 -46h-83q4 16 4 36q0 53 -51 83t-154 30q-111 0 -161.5 -25.5t-50.5 -63.5q0 -42 68 -123l1 -1h286v-52h-248q30 -49 30 -104q0 -11 -1 -17q50 -20 73 -28.5t63.5 -19t70.5 -10.5q105 0 105 83q0 20 -7 41h84zM173 73q69 0 95 48q-63 22 -106 22q-60 0 -60 -34
q0 -36 71 -36z" />
    <glyph glyph-name="currency" unicode="&#xa4;" 
d="M115 56l-35 41l126 105q-67 50 -67 129q0 76 63 126l-122 102l34 42l139 -116q64 32 147 32q82 0 146 -31l138 115l34 -42l-122 -101q66 -50 66 -127q0 -80 -69 -130l125 -104l-35 -41l-140 117q-59 -30 -143 -30q-82 0 -145 30zM400 211q82 0 133 33.5t51 86.5
q0 52 -51 85t-133 33t-132.5 -32.5t-50.5 -85.5t51 -86.5t132 -33.5z" />
    <glyph glyph-name="yen" unicode="&#xa5;" 
d="M750 619l-237 -263h218v-52h-265l-22 -24v-60h287v-52h-287v-129h-88v129h-287v52h287v60l-22 24h-265v52h218l-237 263h119l238 -267h2l235 267h106z" />
    <glyph glyph-name="brokenbar" unicode="&#xa6;" horiz-adv-x="270" 
d="M105 370v370h60v-370h-60zM105 -200v370h60v-370h-60z" />
    <glyph glyph-name="section" unicode="&#xa7;" 
d="M398 -126q-251 0 -251 152h84q0 -79 167 -79q95 0 139.5 22.5t44.5 55.5q0 22 -11 33.5t-35 17.5q-36 10 -159 24.5t-155 22.5q-91 23 -91 102q0 38 22.5 66t61.5 35v2q-9 2 -18 5q-66 26 -66 102q0 68 69 113.5t202 45.5q251 0 251 -152h-84q0 36 -36 57t-131 21
q-94 0 -138.5 -22t-44.5 -55q0 -22 10.5 -33.5t34.5 -18.5q34 -10 157.5 -24.5t156.5 -22.5q92 -23 92 -101q0 -37 -22.5 -63t-62.5 -33v-3q10 -2 19 -7q66 -33 66 -104q0 -68 -69.5 -113.5t-202.5 -45.5zM488 161q41 1 67.5 17.5t26.5 42.5q0 45 -68 59q-22 4 -203 27
q-41 -1 -66.5 -18t-25.5 -42q0 -45 67 -59q26 -5 202 -27z" />
    <glyph glyph-name="copyright" unicode="&#xa9;" horiz-adv-x="878" 
d="M439 -126q-165 0 -282 117t-117 282t117 282t282 117t282 -117t117 -282t-117 -282t-282 -117zM439 -74q144 0 245.5 101.5t101.5 245.5t-101.5 245.5t-245.5 101.5t-245.5 -101.5t-101.5 -245.5t101.5 -245.5t245.5 -101.5zM445 61q-102 0 -159.5 59t-57.5 158t63 157.5
t148 58.5q91 0 143 -43.5t52 -109.5h-76q-5 40 -36 62.5t-83 22.5q-64 0 -99.5 -41t-35.5 -107q0 -67 38 -108t103 -41q100 0 115 81h76q-4 -64 -55.5 -106.5t-135.5 -42.5z" />
    <glyph glyph-name="ordfeminine" unicode="&#xaa;" horiz-adv-x="508" 
d="M44 392q-1 45 37 62.5t101 17.5h194v5q0 75 -134 75q-122 0 -122 -48q0 -4 1 -8h-66q-1 6 -1 11q0 47 47.5 74t142.5 27q99 0 149.5 -36.5t50.5 -98.5v-167h-68q1 11 3 65h-1q-23 -71 -167 -71q-165 0 -167 92zM110 394q0 -38 101 -38q56 0 96 12.5t54.5 27t14.5 28.5v2
h-189q-42 0 -59.5 -6.5t-17.5 -25.5zM44 169v54h400v-54h-400z" />
    <glyph glyph-name="guillemotleft" unicode="&#xab;" 
d="M291 53l-191 227l191 227h87l-193 -227l193 -227h-87zM554 53l-191 227l191 227h86l-192 -227l192 -227h-86z" />
    <glyph glyph-name="logicalnot" unicode="&#xac;" 
d="M646 50v204h-553v58h615v-262h-62z" />
    <glyph glyph-name="registered" unicode="&#xae;" horiz-adv-x="878" 
d="M439 -126q-165 0 -282 117t-117 282t117 282t282 117t282 -117t117 -282t-117 -282t-282 -117zM439 -74q144 0 245.5 101.5t101.5 245.5t-101.5 245.5t-245.5 101.5t-245.5 -101.5t-101.5 -245.5t101.5 -245.5t245.5 -101.5zM270 71v413h183q78 0 117.5 -31t39.5 -83
q0 -68 -56 -93v-2q56 -20 56 -85v-119h-76v119q0 50 -60 50h-128v-169h-76zM346 302h107q81 0 81 58q0 56 -87 56h-101v-114z" />
    <glyph glyph-name="degree" unicode="&#xb0;" horiz-adv-x="546" 
d="M273 270q-109 0 -169 56.5t-60 144.5q0 86 60 143.5t169 57.5q106 0 167.5 -58t61.5 -143q0 -87 -61 -144t-168 -57zM273 334q74 0 116.5 38.5t42.5 98.5q0 59 -42.5 98t-116.5 39q-76 0 -117.5 -39t-41.5 -98q0 -60 41.5 -98.5t117.5 -38.5z" />
    <glyph glyph-name="plusminus" unicode="&#xb1;" 
d="M369 167v200h-276v58h276v199h62v-199h276v-58h-276v-200h-62zM93 46v58h614v-58h-614z" />
    <glyph glyph-name="uni00B5" unicode="&#xb5;" 
d="M55 -198v692h88v-257q0 -78 51.5 -123.5t149.5 -45.5q107 0 178.5 59t71.5 161v206h88v-301q0 -67 17.5 -96t56.5 -29q16 0 28 3v-75q-14 -6 -53 -6q-120 0 -133 161h-1q-40 -161 -256 -161q-154 0 -197 98h-1v-286h-88z" />
    <glyph glyph-name="paragraph" unicode="&#xb6;" 
d="M442 -96v276h-110q-128 0 -190.5 52.5t-62.5 139.5q0 98 78 153t215 55h360v-676h-78v600h-134v-600h-78zM353 256h89v248h-70q-98 0 -149.5 -34t-51.5 -95q0 -55 45.5 -87t136.5 -32z" />
    <glyph glyph-name="periodcentered" unicode="&#xb7;" horiz-adv-x="334" 
d="M117 248v118h100v-118h-100z" />
    <glyph glyph-name="ordmasculine" unicode="&#xba;" horiz-adv-x="516" 
d="M258 300q-110 0 -162.5 44t-52.5 110t53 110t162 44t162 -44t53 -110t-52.5 -110t-162.5 -44zM258 360q75 0 111 26t36 68q0 41 -36.5 67.5t-110.5 26.5q-75 0 -111 -26t-36 -68t36 -68t111 -26zM44 169v54h428v-54h-428z" />
    <glyph glyph-name="guillemotright" unicode="&#xbb;" 
d="M159 53l192 227l-192 227h87l191 -227l-191 -227h-87zM422 53l192 227l-192 227h87l191 -227l-191 -227h-87z" />
    <glyph glyph-name="onequarter" unicode="&#xbc;" horiz-adv-x="945" 
d="M201 -45l-45 26l408 721l45 -26zM145 264v233h-118v54h66q43 0 54 17.5t12 89.5h58v-394h-72zM752 0v87h-315v54l314 253h73v-245h86v-62h-86v-87h-72zM537 149h215v172h-2l-213 -171v-1z" />
    <glyph glyph-name="onehalf" unicode="&#xbd;" horiz-adv-x="962" 
d="M201 -45l-45 26l408 721l45 -26zM145 264v233h-118v54h66q43 0 54 17.5t12 89.5h58v-394h-72zM488 0q0 37 4 56.5t22 40.5t54.5 36.5t100.5 34.5q77 23 110 38t41 27t8 37q0 30 -31.5 49t-96.5 19q-142 0 -142 -91q0 -21 5 -41h-66q-5 20 -5 45q0 64 53.5 106.5
t157.5 42.5q101 0 149 -38t48 -90q0 -38 -12 -59.5t-55 -44t-131 -47.5q-60 -17 -90 -29.5t-34.5 -17.5t-4.5 -12h337v-62h-422z" />
    <glyph glyph-name="threequarters" unicode="&#xbe;" horiz-adv-x="1169" 
d="M425 -45l-45 26l408 721l45 -26zM263 258q-119 0 -169.5 38.5t-50.5 91.5q0 14 2 26h65q-1 -9 -1 -18q0 -76 154 -76q85 0 124 20t39 52q0 49 -97 49h-98v52h80q92 0 92 52q0 25 -34.5 41t-100.5 16q-145 0 -145 -74q0 -10 1 -18h-65q-2 13 -2 26q0 53 50.5 90.5
t164.5 37.5q97 0 148 -31t51 -81q0 -28 -17.5 -48t-52.5 -26v-2q47 -4 72 -28t25 -59q0 -59 -57.5 -95t-177.5 -36zM976 0v87h-315v54l314 253h73v-245h86v-62h-86v-87h-72zM761 149h215v172h-2l-213 -171v-1z" />
    <glyph glyph-name="questiondown" unicode="&#xbf;" horiz-adv-x="588" 
d="M400 345v119h101v-119h-101zM287 -208q-117 0 -181.5 67.5t-64.5 173.5q0 109 62.5 175.5t158.5 66.5q128 0 155 -87h1v96h68v-164h-69q-32 83 -137 83q-71 0 -116 -43.5t-45 -124.5q0 -74 44 -122.5t124 -48.5q79 0 117.5 35t38.5 85q0 11 -1 18h77q2 -10 2 -25
q0 -76 -60 -130.5t-174 -54.5z" />
    <glyph glyph-name="Agrave" unicode="&#xc0;" horiz-adv-x="968" 
d="M569 719h-82l-138 140h108zM826 0l-94 156h-504l-94 -156h-103l400 658h106l400 -658h-111zM272 230h416l-207 344h-2z" />
    <glyph glyph-name="Aacute" unicode="&#xc1;" horiz-adv-x="968" 
d="M645 859l-138 -140h-82l112 140h108zM826 0l-94 156h-504l-94 -156h-103l400 658h106l400 -658h-111zM272 230h416l-207 344h-2z" />
    <glyph glyph-name="Acircumflex" unicode="&#xc2;" horiz-adv-x="968" 
d="M485 793h-2l-172 -82v74l172 82h2l172 -82v-74zM826 0l-94 156h-504l-94 -156h-103l400 658h106l400 -658h-111zM272 230h416l-207 344h-2z" />
    <glyph glyph-name="Atilde" unicode="&#xc3;" horiz-adv-x="968" 
d="M404 803q-53 0 -62 -76h-62q8 72 41 106t78 34t95 -39l13 -10q36 -27 58 -27q51 0 61 76h62q-8 -71 -41.5 -105.5t-78.5 -34.5q-20 0 -38.5 6.5t-28.5 13t-27 19.5l-13 10q-37 27 -57 27zM826 0l-94 156h-504l-94 -156h-103l400 658h106l400 -658h-111zM272 230h416
l-207 344h-2z" />
    <glyph glyph-name="Adieresis" unicode="&#xc4;" horiz-adv-x="968" 
d="M424 841v-106h-90v106h90zM634 841v-106h-90v106h90zM826 0l-94 156h-504l-94 -156h-103l400 658h106l400 -658h-111zM272 230h416l-207 344h-2z" />
    <glyph glyph-name="Aring" unicode="&#xc5;" horiz-adv-x="968" 
d="M826 0l-94 156h-504l-94 -156h-103l372 612q-46 13 -70.5 41.5t-24.5 66.5q0 52 47.5 86t128.5 34q83 0 129.5 -33.5t46.5 -86.5q0 -38 -24.5 -66.5t-70.5 -41.5l372 -612h-111zM374 720q0 -28 28 -44.5t82 -16.5t82 16.5t28 44.5q0 29 -28.5 45.5t-81.5 16.5
q-52 0 -81 -16.5t-29 -45.5zM272 230h416l-207 344h-2z" />
    <glyph glyph-name="AE" unicode="&#xc6;" horiz-adv-x="1149" 
d="M31 0l440 658h624v-82h-478v-208h378v-74h-378v-212h488v-82h-582v146h-289l-96 -146h-107zM283 220h240v360h-2z" />
    <glyph glyph-name="Ccedilla" unicode="&#xc7;" horiz-adv-x="870" 
d="M733 254h88v-8q0 -45 -21 -88t-61 -80.5t-108 -62t-154 -27.5l-20 -43l1 -2q21 16 61 16q48 0 72.5 -22t24.5 -57q0 -45 -42 -71.5t-121 -26.5t-121 23t-48 62h76q9 -33 93 -33q99 0 99 40q0 35 -86 35q-51 0 -89 -6l39 86q-97 5 -170 36t-115 80t-62 104.5t-20 117.5
q0 145 105 244t291 99q98 0 173 -25t116.5 -65t61.5 -83t20 -85v-9h-88v4q0 30 -15.5 60t-46.5 58t-87.5 45.5t-129.5 17.5q-145 0 -225.5 -72t-80.5 -189q0 -108 77.5 -182.5t232.5 -74.5q134 0 207 52.5t73 126.5v5z" />
    <glyph glyph-name="Egrave" unicode="&#xc8;" horiz-adv-x="731" 
d="M386 719l-138 140h108l112 -140h-82zM75 0v658h602v-82h-508v-208h408v-74h-408v-212h518v-82h-612z" />
    <glyph glyph-name="Eacute" unicode="&#xc9;" horiz-adv-x="731" 
d="M324 719l112 140h108l-138 -140h-82zM75 0v658h602v-82h-508v-208h408v-74h-408v-212h518v-82h-612z" />
    <glyph glyph-name="Ecircumflex" unicode="&#xca;" horiz-adv-x="731" 
d="M210 711v74l172 82h2l172 -82v-74l-172 82h-2zM75 0v658h602v-82h-508v-208h408v-74h-408v-212h518v-82h-612z" />
    <glyph glyph-name="Edieresis" unicode="&#xcb;" horiz-adv-x="731" 
d="M233 735v106h90v-106h-90zM443 735v106h90v-106h-90zM75 0v658h602v-82h-508v-208h408v-74h-408v-212h518v-82h-612z" />
    <glyph glyph-name="Igrave" unicode="&#xcc;" horiz-adv-x="250" 
d="M128 719l-138 140h108l112 -140h-82zM78 0v658h94v-658h-94z" />
    <glyph glyph-name="Iacute" unicode="&#xcd;" horiz-adv-x="250" 
d="M66 719l112 140h108l-138 -140h-82zM78 0v658h94v-658h-94z" />
    <glyph glyph-name="Icircumflex" unicode="&#xce;" horiz-adv-x="250" 
d="M-48 711v74l172 82h2l172 -82v-74l-172 82h-2zM78 0v658h94v-658h-94z" />
    <glyph glyph-name="Idieresis" unicode="&#xcf;" horiz-adv-x="250" 
d="M-25 735v106h90v-106h-90zM185 735v106h90v-106h-90zM78 0v658h94v-658h-94z" />
    <glyph glyph-name="Eth" unicode="&#xd0;" horiz-adv-x="838" 
d="M389 658q112 0 192.5 -27t124.5 -75t63.5 -103.5t19.5 -123.5q0 -161 -89 -245t-284 -84h-341v304h-85v49h85v305h314zM414 82q148 0 214.5 60.5t66.5 186.5q0 247 -306 247h-220v-223h267v-49h-267v-222h245z" />
    <glyph glyph-name="Ntilde" unicode="&#xd1;" horiz-adv-x="915" 
d="M254 727q8 72 41 106t78 34t95 -39l13 -10q36 -27 58 -27q51 0 61 76h62q-8 -71 -41.5 -105.5t-78.5 -34.5q-20 0 -38.5 6.5t-28.5 13t-27 19.5l-13 10q-37 27 -57 27q-53 0 -62 -76h-62zM75 0v658h139l534 -532h2v532h90v-658h-93l-581 579h-1v-579h-90z" />
    <glyph glyph-name="Ograve" unicode="&#xd2;" horiz-adv-x="934" 
d="M470 719l-138 140h108l112 -140h-82zM467 -12q-203 0 -310.5 93t-107.5 251q0 148 109 243t309 95t309 -95t109 -243q0 -153 -106 -248.5t-312 -95.5zM467 70q160 0 242 72t82 190q0 113 -84.5 184.5t-239.5 71.5t-239.5 -71.5t-84.5 -184.5q0 -121 83 -191.5t241 -70.5z
" />
    <glyph glyph-name="Oacute" unicode="&#xd3;" horiz-adv-x="934" 
d="M408 719l112 140h108l-138 -140h-82zM467 -12q-203 0 -310.5 93t-107.5 251q0 148 109 243t309 95t309 -95t109 -243q0 -153 -106 -248.5t-312 -95.5zM467 70q160 0 242 72t82 190q0 113 -84.5 184.5t-239.5 71.5t-239.5 -71.5t-84.5 -184.5q0 -121 83 -191.5t241 -70.5z
" />
    <glyph glyph-name="Ocircumflex" unicode="&#xd4;" horiz-adv-x="934" 
d="M294 711v74l172 82h2l172 -82v-74l-172 82h-2zM467 -12q-203 0 -310.5 93t-107.5 251q0 148 109 243t309 95t309 -95t109 -243q0 -153 -106 -248.5t-312 -95.5zM467 70q160 0 242 72t82 190q0 113 -84.5 184.5t-239.5 71.5t-239.5 -71.5t-84.5 -184.5q0 -121 83 -191.5
t241 -70.5z" />
    <glyph glyph-name="Otilde" unicode="&#xd5;" horiz-adv-x="934" 
d="M263 727q8 72 41 106t78 34t95 -39l13 -10q36 -27 58 -27q51 0 61 76h62q-8 -71 -41.5 -105.5t-78.5 -34.5q-20 0 -38.5 6.5t-28.5 13t-27 19.5l-13 10q-37 27 -57 27q-53 0 -62 -76h-62zM467 -12q-203 0 -310.5 93t-107.5 251q0 148 109 243t309 95t309 -95t109 -243
q0 -153 -106 -248.5t-312 -95.5zM467 70q160 0 242 72t82 190q0 113 -84.5 184.5t-239.5 71.5t-239.5 -71.5t-84.5 -184.5q0 -121 83 -191.5t241 -70.5z" />
    <glyph glyph-name="Odieresis" unicode="&#xd6;" horiz-adv-x="934" 
d="M317 735v106h90v-106h-90zM527 735v106h90v-106h-90zM467 -12q-203 0 -310.5 93t-107.5 251q0 148 109 243t309 95t309 -95t109 -243q0 -153 -106 -248.5t-312 -95.5zM467 70q160 0 242 72t82 190q0 113 -84.5 184.5t-239.5 71.5t-239.5 -71.5t-84.5 -184.5
q0 -121 83 -191.5t241 -70.5z" />
    <glyph glyph-name="multiply" unicode="&#xd7;" 
d="M122 89l-29 50l251 144l-251 144l29 50l278 -161l278 161l29 -50l-251 -144l251 -144l-29 -50l-278 161z" />
    <glyph glyph-name="Oslash" unicode="&#xd8;" horiz-adv-x="934" 
d="M800 553q85 -88 85 -221q0 -153 -106 -248.5t-312 -95.5q-186 0 -294 80l-57 -44l-32 41l49 38q-84 89 -84 229q0 148 109 243t309 95q182 0 293 -82l58 44l32 -41zM143 332q0 -106 63 -173l481 372q-84 57 -220 57q-155 0 -239.5 -71.5t-84.5 -184.5zM467 70
q160 0 242 72t82 190q0 98 -63 165l-481 -372q83 -55 220 -55z" />
    <glyph glyph-name="Ugrave" unicode="&#xd9;" horiz-adv-x="888" 
d="M450 719l-138 140h108l112 -140h-82zM445 -12q-179 0 -277 77t-98 231v362h94v-351q0 -237 281 -237q285 0 285 237v351h88v-362q0 -154 -96.5 -231t-276.5 -77z" />
    <glyph glyph-name="Uacute" unicode="&#xda;" horiz-adv-x="888" 
d="M388 719l112 140h108l-138 -140h-82zM445 -12q-179 0 -277 77t-98 231v362h94v-351q0 -237 281 -237q285 0 285 237v351h88v-362q0 -154 -96.5 -231t-276.5 -77z" />
    <glyph glyph-name="Ucircumflex" unicode="&#xdb;" horiz-adv-x="888" 
d="M274 711v74l172 82h2l172 -82v-74l-172 82h-2zM445 -12q-179 0 -277 77t-98 231v362h94v-351q0 -237 281 -237q285 0 285 237v351h88v-362q0 -154 -96.5 -231t-276.5 -77z" />
    <glyph glyph-name="Udieresis" unicode="&#xdc;" horiz-adv-x="888" 
d="M297 735v106h90v-106h-90zM507 735v106h90v-106h-90zM445 -12q-179 0 -277 77t-98 231v362h94v-351q0 -237 281 -237q285 0 285 237v351h88v-362q0 -154 -96.5 -231t-276.5 -77z" />
    <glyph glyph-name="Yacute" unicode="&#xdd;" horiz-adv-x="921" 
d="M402 719l112 140h108l-138 -140h-82zM413 0v272l-387 386h133l305 -307h2l303 307h126l-388 -386v-272h-94z" />
    <glyph glyph-name="Thorn" unicode="&#xde;" horiz-adv-x="796" 
d="M75 0v658h94v-101h292q79 0 136 -18t89 -50t46.5 -70.5t14.5 -85.5q0 -105 -73.5 -162.5t-216.5 -57.5h-288v-113h-94zM169 187h282q208 0 208 146q0 69 -46.5 105.5t-160.5 36.5h-283v-288z" />
    <glyph glyph-name="germandbls" unicode="&#xdf;" horiz-adv-x="864" 
d="M506 -10q-86 0 -199 15v79q117 -16 199 -16q221 0 221 99q0 41 -40 54q-34 12 -176 23q-137 9 -177 32q-44 27 -44 84q0 52 36 79q24 18 127 48q60 17 78 31.5t18 46.5q0 38 -39.5 61.5t-128.5 23.5q-121 0 -175.5 -52t-54.5 -152v-446h-88v440q0 135 80 211.5t238 76.5
q133 0 192.5 -48.5t59.5 -117.5q0 -52 -26.5 -83.5t-85.5 -50.5q-23 -7 -53.5 -16t-46 -13.5t-21.5 -7.5q-22 -9 -22 -28q0 -23 24 -31q16 -5 152 -16q155 -11 201 -35q60 -32 60 -116q0 -80 -73 -127.5t-236 -47.5z" />
    <glyph glyph-name="agrave" unicode="&#xe0;" horiz-adv-x="723" 
d="M365 555l-138 140h108l112 -140h-82zM308 -9q-126 0 -190 43.5t-64 110.5q0 39 17 66t48.5 40t66.5 18.5t81 5.5h314v13q0 142 -222 142q-204 0 -204 -95q0 -6 1 -13h-84q-1 9 -1 17q0 76 73.5 120.5t214.5 44.5q151 0 230.5 -60.5t79.5 -164.5v-279h-88q4 43 6 127h-1
q-36 -136 -278 -136zM313 65q132 0 200 42t68 102v2h-303q-74 0 -107 -12t-33 -52q0 -82 175 -82z" />
    <glyph glyph-name="aacute" unicode="&#xe1;" horiz-adv-x="723" 
d="M303 555l112 140h108l-138 -140h-82zM308 -9q-126 0 -190 43.5t-64 110.5q0 39 17 66t48.5 40t66.5 18.5t81 5.5h314v13q0 142 -222 142q-204 0 -204 -95q0 -6 1 -13h-84q-1 9 -1 17q0 76 73.5 120.5t214.5 44.5q151 0 230.5 -60.5t79.5 -164.5v-279h-88q4 43 6 127h-1
q-36 -136 -278 -136zM313 65q132 0 200 42t68 102v2h-303q-74 0 -107 -12t-33 -52q0 -82 175 -82z" />
    <glyph glyph-name="acircumflex" unicode="&#xe2;" horiz-adv-x="723" 
d="M189 547v74l172 82h2l172 -82v-74l-172 82h-2zM308 -9q-126 0 -190 43.5t-64 110.5q0 39 17 66t48.5 40t66.5 18.5t81 5.5h314v13q0 142 -222 142q-204 0 -204 -95q0 -6 1 -13h-84q-1 9 -1 17q0 76 73.5 120.5t214.5 44.5q151 0 230.5 -60.5t79.5 -164.5v-279h-88
q4 43 6 127h-1q-36 -136 -278 -136zM313 65q132 0 200 42t68 102v2h-303q-74 0 -107 -12t-33 -52q0 -82 175 -82z" />
    <glyph glyph-name="atilde" unicode="&#xe3;" horiz-adv-x="723" 
d="M158 563q8 72 41 106t78 34t95 -39l13 -10q36 -27 58 -27q51 0 61 76h62q-8 -71 -41.5 -105.5t-78.5 -34.5q-20 0 -38.5 6.5t-28.5 13t-27 19.5l-13 10q-37 27 -57 27q-53 0 -62 -76h-62zM308 -9q-126 0 -190 43.5t-64 110.5q0 39 17 66t48.5 40t66.5 18.5t81 5.5h314v13
q0 142 -222 142q-204 0 -204 -95q0 -6 1 -13h-84q-1 9 -1 17q0 76 73.5 120.5t214.5 44.5q151 0 230.5 -60.5t79.5 -164.5v-279h-88q4 43 6 127h-1q-36 -136 -278 -136zM313 65q132 0 200 42t68 102v2h-303q-74 0 -107 -12t-33 -52q0 -82 175 -82z" />
    <glyph glyph-name="adieresis" unicode="&#xe4;" horiz-adv-x="723" 
d="M212 571v106h90v-106h-90zM422 571v106h90v-106h-90zM308 -9q-126 0 -190 43.5t-64 110.5q0 39 17 66t48.5 40t66.5 18.5t81 5.5h314v13q0 142 -222 142q-204 0 -204 -95q0 -6 1 -13h-84q-1 9 -1 17q0 76 73.5 120.5t214.5 44.5q151 0 230.5 -60.5t79.5 -164.5v-279h-88
q4 43 6 127h-1q-36 -136 -278 -136zM313 65q132 0 200 42t68 102v2h-303q-74 0 -107 -12t-33 -52q0 -82 175 -82z" />
    <glyph glyph-name="aring" unicode="&#xe5;" horiz-adv-x="723" 
d="M362 539q-84 0 -130 33.5t-46 85.5t47.5 86t128.5 34q83 0 129.5 -33.5t46.5 -86.5q0 -52 -46 -85.5t-130 -33.5zM362 597q54 0 82 16.5t28 44.5q0 29 -28.5 45.5t-81.5 16.5q-52 0 -81 -16.5t-29 -45.5q0 -28 28 -44.5t82 -16.5zM308 -9q-126 0 -190 43.5t-64 110.5
q0 39 17 66t48.5 40t66.5 18.5t81 5.5h314v13q0 142 -222 142q-204 0 -204 -95q0 -6 1 -13h-84q-1 9 -1 17q0 76 73.5 120.5t214.5 44.5q151 0 230.5 -60.5t79.5 -164.5v-279h-88q4 43 6 127h-1q-36 -136 -278 -136zM313 65q132 0 200 42t68 102v2h-303q-74 0 -107 -12
t-33 -52q0 -82 175 -82z" />
    <glyph glyph-name="ae" unicode="&#xe6;" horiz-adv-x="1257" 
d="M1208 261v-44h-538q19 -153 239 -153q104 0 155 27.5t60 68.5h84q-7 -69 -82 -119.5t-217 -50.5q-119 0 -191.5 36t-99.5 95h-4q-15 -53 -86.5 -91.5t-209.5 -38.5q-134 0 -199 43.5t-65 113.5q0 40 17 67.5t48.5 41t66.5 19t81 5.5h314v7q0 142 -222 142
q-204 0 -204 -95q0 -7 1 -13h-84q-1 7 -1 17q0 76 73.5 120.5t214.5 44.5q109 0 180 -31t93 -87h1q27 56 99 87t172 31q151 0 227.5 -64.5t76.5 -178.5zM1124 281v9q0 65 -54 102.5t-165 37.5q-210 0 -233 -149h452zM581 209v8h-303q-74 0 -107 -12.5t-33 -54.5
q0 -85 185 -85q127 0 192.5 43.5t65.5 100.5z" />
    <glyph glyph-name="ccedilla" unicode="&#xe7;" horiz-adv-x="716" 
d="M667 192q0 -79 -68.5 -137.5t-211.5 -64.5l-21 -45l1 -2q21 16 61 16q48 0 72.5 -22t24.5 -57q0 -45 -42 -71.5t-121 -26.5t-121 23t-48 62h76q9 -33 93 -33q99 0 99 40q0 35 -86 35q-51 0 -89 -6l41 88q-139 10 -208.5 84t-69.5 172q0 111 83.5 184t237.5 73
q149 0 221.5 -59.5t72.5 -144.5h-84q-1 55 -52 90.5t-158 35.5q-114 0 -173.5 -50t-59.5 -129q0 -77 54.5 -128t171.5 -51q113 0 166 35.5t54 88.5h84z" />
    <glyph glyph-name="egrave" unicode="&#xe8;" horiz-adv-x="725" 
d="M452 555h-82l-138 140h108zM676 261v-38h-538q13 -159 239 -159q104 0 155 27.5t60 68.5h84q-7 -69 -82 -119.5t-217 -50.5q-91 0 -158 22t-102.5 60t-51.5 80.5t-16 90.5q0 119 86.5 190t236.5 71t227 -64.5t77 -178.5zM592 287v3q0 65 -55 102.5t-164 37.5
q-206 0 -232 -143h451z" />
    <glyph glyph-name="eacute" unicode="&#xe9;" horiz-adv-x="725" 
d="M528 695l-138 -140h-82l112 140h108zM676 261v-38h-538q13 -159 239 -159q104 0 155 27.5t60 68.5h84q-7 -69 -82 -119.5t-217 -50.5q-91 0 -158 22t-102.5 60t-51.5 80.5t-16 90.5q0 119 86.5 190t236.5 71t227 -64.5t77 -178.5zM592 287v3q0 65 -55 102.5t-164 37.5
q-206 0 -232 -143h451z" />
    <glyph glyph-name="ecircumflex" unicode="&#xea;" horiz-adv-x="725" 
d="M368 629h-2l-172 -82v74l172 82h2l172 -82v-74zM676 261v-38h-538q13 -159 239 -159q104 0 155 27.5t60 68.5h84q-7 -69 -82 -119.5t-217 -50.5q-91 0 -158 22t-102.5 60t-51.5 80.5t-16 90.5q0 119 86.5 190t236.5 71t227 -64.5t77 -178.5zM592 287v3q0 65 -55 102.5
t-164 37.5q-206 0 -232 -143h451z" />
    <glyph glyph-name="edieresis" unicode="&#xeb;" horiz-adv-x="725" 
d="M307 677v-106h-90v106h90zM517 677v-106h-90v106h90zM676 261v-38h-538q13 -159 239 -159q104 0 155 27.5t60 68.5h84q-7 -69 -82 -119.5t-217 -50.5q-91 0 -158 22t-102.5 60t-51.5 80.5t-16 90.5q0 119 86.5 190t236.5 71t227 -64.5t77 -178.5zM592 287v3
q0 65 -55 102.5t-164 37.5q-206 0 -232 -143h451z" />
    <glyph glyph-name="igrave" unicode="&#xec;" horiz-adv-x="222" 
d="M114 555l-138 140h108l112 -140h-82zM67 0v494h88v-494h-88z" />
    <glyph glyph-name="iacute" unicode="&#xed;" horiz-adv-x="222" 
d="M52 555l112 140h108l-138 -140h-82zM67 0v494h88v-494h-88z" />
    <glyph glyph-name="icircumflex" unicode="&#xee;" horiz-adv-x="222" 
d="M-62 547v74l172 82h2l172 -82v-74l-172 82h-2zM67 0v494h88v-494h-88z" />
    <glyph glyph-name="idieresis" unicode="&#xef;" horiz-adv-x="222" 
d="M-39 571v106h90v-106h-90zM171 571v106h90v-106h-90zM67 0v494h88v-494h-88z" />
    <glyph glyph-name="eth" unicode="&#xf0;" horiz-adv-x="764" 
d="M499 618q108 -59 162 -146t54 -185q0 -59 -20 -111.5t-59 -94.5t-104.5 -66.5t-149.5 -24.5q-163 0 -248 75t-85 181q0 118 91 188t227 70q167 0 238 -102q-48 124 -207 187l-273 -80l-14 46l206 60q-77 22 -181 34l18 61q162 -13 279 -61l206 61l13 -47zM382 68
q120 0 182.5 58.5t62.5 145.5v11q-19 60 -86 101.5t-174 41.5q-98 0 -164 -49t-66 -131q0 -74 62.5 -126t182.5 -52z" />
    <glyph glyph-name="ntilde" unicode="&#xf1;" horiz-adv-x="779" 
d="M188 563q8 72 41 106t78 34t95 -39l13 -10q36 -27 58 -27q51 0 61 76h62q-8 -71 -41.5 -105.5t-78.5 -34.5q-20 0 -38.5 6.5t-28.5 13t-27 19.5l-13 10q-37 27 -57 27q-53 0 -62 -76h-62zM59 0v494h88l-1 -145h2q31 80 99 117.5t189 37.5q149 0 219 -62t70 -162v-280h-88
v257q0 83 -50.5 126t-172.5 43q-110 0 -188.5 -54.5t-78.5 -152.5v-219h-88z" />
    <glyph glyph-name="ograve" unicode="&#xf2;" horiz-adv-x="764" 
d="M385 555l-138 140h108l112 -140h-82zM382 -10q-167 0 -250 74.5t-83 181.5t84 182.5t249 75.5t249 -75.5t84 -182.5t-83 -181.5t-250 -74.5zM382 68q126 0 185.5 50.5t59.5 127.5t-60 128.5t-185 51.5t-185 -51.5t-60 -128.5q0 -76 60 -127t185 -51z" />
    <glyph glyph-name="oacute" unicode="&#xf3;" horiz-adv-x="764" 
d="M323 555l112 140h108l-138 -140h-82zM382 -10q-167 0 -250 74.5t-83 181.5t84 182.5t249 75.5t249 -75.5t84 -182.5t-83 -181.5t-250 -74.5zM382 68q126 0 185.5 50.5t59.5 127.5t-60 128.5t-185 51.5t-185 -51.5t-60 -128.5q0 -76 60 -127t185 -51z" />
    <glyph glyph-name="ocircumflex" unicode="&#xf4;" horiz-adv-x="764" 
d="M209 547v74l172 82h2l172 -82v-74l-172 82h-2zM382 -10q-167 0 -250 74.5t-83 181.5t84 182.5t249 75.5t249 -75.5t84 -182.5t-83 -181.5t-250 -74.5zM382 68q126 0 185.5 50.5t59.5 127.5t-60 128.5t-185 51.5t-185 -51.5t-60 -128.5q0 -76 60 -127t185 -51z" />
    <glyph glyph-name="otilde" unicode="&#xf5;" horiz-adv-x="764" 
d="M178 563q8 72 41 106t78 34t95 -39l13 -10q36 -27 58 -27q51 0 61 76h62q-8 -71 -41.5 -105.5t-78.5 -34.5q-20 0 -38.5 6.5t-28.5 13t-27 19.5l-13 10q-37 27 -57 27q-53 0 -62 -76h-62zM382 -10q-167 0 -250 74.5t-83 181.5t84 182.5t249 75.5t249 -75.5t84 -182.5
t-83 -181.5t-250 -74.5zM382 68q126 0 185.5 50.5t59.5 127.5t-60 128.5t-185 51.5t-185 -51.5t-60 -128.5q0 -76 60 -127t185 -51z" />
    <glyph glyph-name="odieresis" unicode="&#xf6;" horiz-adv-x="764" 
d="M232 571v106h90v-106h-90zM442 571v106h90v-106h-90zM382 -10q-167 0 -250 74.5t-83 181.5t84 182.5t249 75.5t249 -75.5t84 -182.5t-83 -181.5t-250 -74.5zM382 68q126 0 185.5 50.5t59.5 127.5t-60 128.5t-185 51.5t-185 -51.5t-60 -128.5q0 -76 60 -127t185 -51z" />
    <glyph glyph-name="divide" unicode="&#xf7;" 
d="M350 416v119h100v-119h-100zM93 254v58h614v-58h-614zM350 32v118h100v-118h-100z" />
    <glyph glyph-name="oslash" unicode="&#xf8;" horiz-adv-x="764" 
d="M643 418q72 -69 72 -172q0 -107 -83 -181.5t-250 -74.5q-135 0 -221 53l-51 -39l-33 40l42 32q-70 67 -70 170q0 107 84 182.5t249 75.5q132 0 218 -53l51 39l35 -39zM137 246q0 -70 49 -118l345 269q-60 29 -149 29q-125 0 -185 -51.5t-60 -128.5zM382 68
q126 0 185.5 50.5t59.5 127.5q0 73 -51 120l-345 -268q58 -30 151 -30z" />
    <glyph glyph-name="ugrave" unicode="&#xf9;" horiz-adv-x="779" 
d="M393 555l-138 140h108l112 -140h-82zM345 -10q-144 0 -217.5 65t-73.5 164v275h88v-258q0 -81 49.5 -124.5t167.5 -43.5q116 0 194.5 60.5t78.5 163.5v202h88v-494h-88q5 100 5 162h-2q-38 -172 -290 -172z" />
    <glyph glyph-name="uacute" unicode="&#xfa;" horiz-adv-x="779" 
d="M331 555l112 140h108l-138 -140h-82zM345 -10q-144 0 -217.5 65t-73.5 164v275h88v-258q0 -81 49.5 -124.5t167.5 -43.5q116 0 194.5 60.5t78.5 163.5v202h88v-494h-88q5 100 5 162h-2q-38 -172 -290 -172z" />
    <glyph glyph-name="ucircumflex" unicode="&#xfb;" horiz-adv-x="779" 
d="M217 547v74l172 82h2l172 -82v-74l-172 82h-2zM345 -10q-144 0 -217.5 65t-73.5 164v275h88v-258q0 -81 49.5 -124.5t167.5 -43.5q116 0 194.5 60.5t78.5 163.5v202h88v-494h-88q5 100 5 162h-2q-38 -172 -290 -172z" />
    <glyph glyph-name="udieresis" unicode="&#xfc;" horiz-adv-x="779" 
d="M240 571v106h90v-106h-90zM450 571v106h90v-106h-90zM345 -10q-144 0 -217.5 65t-73.5 164v275h88v-258q0 -81 49.5 -124.5t167.5 -43.5q116 0 194.5 60.5t78.5 163.5v202h88v-494h-88q5 100 5 162h-2q-38 -172 -290 -172z" />
    <glyph glyph-name="yacute" unicode="&#xfd;" horiz-adv-x="736" 
d="M309 555l112 140h108l-138 -140h-82zM185 -218q-50 0 -85 14v77q35 -13 85 -13t82.5 27t80.5 113h-17l-305 494h105l255 -419h2l226 419h96l-275 -503q-67 -122 -116.5 -165.5t-133.5 -43.5z" />
    <glyph glyph-name="thorn" unicode="&#xfe;" horiz-adv-x="788" 
d="M63 -198v898h88v-269q0 -12 -0.5 -39.5t-0.5 -36.5h2q47 149 269 149q150 0 234 -71t84 -180q0 -123 -85.5 -193t-229.5 -70q-119 0 -183 30.5t-93 93.5h-1q4 -68 4 -110v-202h-88zM415 68q114 0 175 47t61 138q0 72 -58.5 122.5t-175.5 50.5q-116 0 -191 -55.5
t-75 -136.5v-10q0 -60 70.5 -108t193.5 -48z" />
    <glyph glyph-name="ydieresis" unicode="&#xff;" horiz-adv-x="736" 
d="M218 571v106h90v-106h-90zM428 571v106h90v-106h-90zM185 -218q-50 0 -85 14v77q35 -13 85 -13t82.5 27t80.5 113h-17l-305 494h105l255 -419h2l226 419h96l-275 -503q-67 -122 -116.5 -165.5t-133.5 -43.5z" />
    <glyph glyph-name="Amacron" unicode="&#x100;" horiz-adv-x="968" 
d="M660 838v-64h-352v64h352zM826 0l-94 156h-504l-94 -156h-103l400 658h106l400 -658h-111zM272 230h416l-207 344h-2z" />
    <glyph glyph-name="amacron" unicode="&#x101;" horiz-adv-x="723" 
d="M186 610v64h352v-64h-352zM308 -9q-126 0 -190 43.5t-64 110.5q0 39 17 66t48.5 40t66.5 18.5t81 5.5h314v13q0 142 -222 142q-204 0 -204 -95q0 -6 1 -13h-84q-1 9 -1 17q0 76 73.5 120.5t214.5 44.5q151 0 230.5 -60.5t79.5 -164.5v-279h-88q4 43 6 127h-1
q-36 -136 -278 -136zM313 65q132 0 200 42t68 102v2h-303q-74 0 -107 -12t-33 -52q0 -82 175 -82z" />
    <glyph glyph-name="Abreve" unicode="&#x102;" horiz-adv-x="968" 
d="M484 718q-88 0 -130 40.5t-42 86.5v14h72v-7q0 -30 23.5 -52t76.5 -22t76.5 22t23.5 52v7h72v-14q0 -46 -42 -86.5t-130 -40.5zM826 0l-94 156h-504l-94 -156h-103l400 658h106l400 -658h-111zM272 230h416l-207 344h-2z" />
    <glyph glyph-name="abreve" unicode="&#x103;" horiz-adv-x="723" 
d="M362 554q-88 0 -130 40.5t-42 86.5v14h72v-7q0 -30 23.5 -52t76.5 -22t76.5 22t23.5 52v7h72v-14q0 -46 -42 -86.5t-130 -40.5zM308 -9q-126 0 -190 43.5t-64 110.5q0 39 17 66t48.5 40t66.5 18.5t81 5.5h314v13q0 142 -222 142q-204 0 -204 -95q0 -6 1 -13h-84
q-1 9 -1 17q0 76 73.5 120.5t214.5 44.5q151 0 230.5 -60.5t79.5 -164.5v-279h-88q4 43 6 127h-1q-36 -136 -278 -136zM313 65q132 0 200 42t68 102v2h-303q-74 0 -107 -12t-33 -52q0 -82 175 -82z" />
    <glyph glyph-name="Aogonek" unicode="&#x104;" horiz-adv-x="968" 
d="M806 -113q0 -43 61 -43q27 0 59 9v-62q-35 -11 -74 -11q-56 0 -87 27.5t-31 65.5q0 39 23.5 73t68.5 54l-94 156h-504l-94 -156h-103l400 658h106l400 -658h-23q-108 -54 -108 -113zM272 230h416l-207 344h-2z" />
    <glyph glyph-name="aogonek" unicode="&#x105;" horiz-adv-x="723" 
d="M622 -156q28 0 59 9v-62q-35 -11 -74 -11q-56 0 -87 27.5t-31 65.5q0 39 23.5 73t68.5 54q4 43 6 127h-1q-36 -136 -278 -136q-126 0 -190 43.5t-64 110.5q0 39 17 66t48.5 40t66.5 18.5t81 5.5h314v13q0 142 -222 142q-204 0 -204 -95q0 -6 1 -13h-84q-1 9 -1 17
q0 76 73.5 120.5t214.5 44.5q151 0 230.5 -60.5t79.5 -164.5v-279q-108 -54 -108 -113q0 -43 61 -43zM581 209v2h-303q-74 0 -107 -12t-33 -52q0 -82 175 -82q132 0 200 42t68 102z" />
    <glyph glyph-name="Cacute" unicode="&#x106;" horiz-adv-x="870" 
d="M388 719l112 140h108l-138 -140h-82zM453 -12q-107 0 -188 29.5t-126.5 79t-67.5 107.5t-22 123q0 145 105 244t291 99q98 0 173 -25t116.5 -65t61.5 -83t20 -85v-9h-88v4q0 30 -15.5 60t-46.5 58t-87.5 45.5t-129.5 17.5q-145 0 -225.5 -72t-80.5 -189
q0 -108 77.5 -182.5t232.5 -74.5q134 0 207 52.5t73 126.5v5h88v-8q0 -101 -95 -179.5t-273 -78.5z" />
    <glyph glyph-name="cacute" unicode="&#x107;" horiz-adv-x="716" 
d="M309 555l112 140h108l-138 -140h-82zM363 -10q-81 0 -143.5 22t-98.5 59.5t-54 82t-18 93.5q0 111 83.5 184t237.5 73q149 0 221.5 -59.5t72.5 -144.5h-84q-1 55 -52 90.5t-158 35.5q-114 0 -173.5 -50t-59.5 -129q0 -77 54.5 -128t171.5 -51q113 0 166 35.5t54 88.5h84
q0 -83 -74.5 -142.5t-229.5 -59.5z" />
    <glyph glyph-name="Ccircumflex" unicode="&#x108;" horiz-adv-x="870" 
d="M274 711v74l172 82h2l172 -82v-74l-172 82h-2zM453 -12q-107 0 -188 29.5t-126.5 79t-67.5 107.5t-22 123q0 145 105 244t291 99q98 0 173 -25t116.5 -65t61.5 -83t20 -85v-9h-88v4q0 30 -15.5 60t-46.5 58t-87.5 45.5t-129.5 17.5q-145 0 -225.5 -72t-80.5 -189
q0 -108 77.5 -182.5t232.5 -74.5q134 0 207 52.5t73 126.5v5h88v-8q0 -101 -95 -179.5t-273 -78.5z" />
    <glyph glyph-name="ccircumflex" unicode="&#x109;" horiz-adv-x="716" 
d="M195 547v74l172 82h2l172 -82v-74l-172 82h-2zM363 -10q-81 0 -143.5 22t-98.5 59.5t-54 82t-18 93.5q0 111 83.5 184t237.5 73q149 0 221.5 -59.5t72.5 -144.5h-84q-1 55 -52 90.5t-158 35.5q-114 0 -173.5 -50t-59.5 -129q0 -77 54.5 -128t171.5 -51q113 0 166 35.5
t54 88.5h84q0 -83 -74.5 -142.5t-229.5 -59.5z" />
    <glyph glyph-name="Cdotaccent" unicode="&#x10a;" horiz-adv-x="870" 
d="M402 735v106h90v-106h-90zM453 -12q-107 0 -188 29.5t-126.5 79t-67.5 107.5t-22 123q0 145 105 244t291 99q98 0 173 -25t116.5 -65t61.5 -83t20 -85v-9h-88v4q0 30 -15.5 60t-46.5 58t-87.5 45.5t-129.5 17.5q-145 0 -225.5 -72t-80.5 -189q0 -108 77.5 -182.5
t232.5 -74.5q134 0 207 52.5t73 126.5v5h88v-8q0 -101 -95 -179.5t-273 -78.5z" />
    <glyph glyph-name="cdotaccent" unicode="&#x10b;" horiz-adv-x="716" 
d="M323 571v106h90v-106h-90zM363 -10q-81 0 -143.5 22t-98.5 59.5t-54 82t-18 93.5q0 111 83.5 184t237.5 73q149 0 221.5 -59.5t72.5 -144.5h-84q-1 55 -52 90.5t-158 35.5q-114 0 -173.5 -50t-59.5 -129q0 -77 54.5 -128t171.5 -51q113 0 166 35.5t54 88.5h84
q0 -83 -74.5 -142.5t-229.5 -59.5z" />
    <glyph glyph-name="Ccaron" unicode="&#x10c;" horiz-adv-x="870" 
d="M399 719l-161 140h110l98 -94h2l98 94h110l-161 -140h-96zM453 -12q-107 0 -188 29.5t-126.5 79t-67.5 107.5t-22 123q0 145 105 244t291 99q98 0 173 -25t116.5 -65t61.5 -83t20 -85v-9h-88v4q0 30 -15.5 60t-46.5 58t-87.5 45.5t-129.5 17.5q-145 0 -225.5 -72
t-80.5 -189q0 -108 77.5 -182.5t232.5 -74.5q134 0 207 52.5t73 126.5v5h88v-8q0 -101 -95 -179.5t-273 -78.5z" />
    <glyph glyph-name="ccaron" unicode="&#x10d;" horiz-adv-x="716" 
d="M320 555l-161 140h110l98 -94h2l98 94h110l-161 -140h-96zM363 -10q-81 0 -143.5 22t-98.5 59.5t-54 82t-18 93.5q0 111 83.5 184t237.5 73q149 0 221.5 -59.5t72.5 -144.5h-84q-1 55 -52 90.5t-158 35.5q-114 0 -173.5 -50t-59.5 -129q0 -77 54.5 -128t171.5 -51
q113 0 166 35.5t54 88.5h84q0 -83 -74.5 -142.5t-229.5 -59.5z" />
    <glyph glyph-name="Dcaron" unicode="&#x10e;" horiz-adv-x="838" 
d="M340 719l-161 140h110l98 -94h2l98 94h110l-161 -140h-96zM75 0v658h314q112 0 192.5 -27t124.5 -75t63.5 -103.5t19.5 -123.5q0 -161 -89 -245t-284 -84h-341zM169 82h245q148 0 214.5 60.5t66.5 186.5q0 247 -306 247h-220v-494z" />
    <glyph glyph-name="dcaron" unicode="&#x10f;" horiz-adv-x="853" 
d="M376 -10q-153 0 -240 70.5t-87 192.5q0 109 87 180t240 71q225 0 260 -122h1v318h88v-700h-88q3 40 5 140h-2q-19 -70 -86.5 -110t-177.5 -40zM755 400v53q75 7 75 84v2h-44v119h100v-104q0 -140 -131 -154zM376 68q122 0 191.5 56.5t69.5 121.5v16q0 74 -66 119t-195 45
q-116 0 -177.5 -48t-61.5 -125q0 -86 63.5 -135.5t175.5 -49.5z" />
    <glyph glyph-name="Dmacron" unicode="&#x110;" horiz-adv-x="838" 
d="M389 658q112 0 192.5 -27t124.5 -75t63.5 -103.5t19.5 -123.5q0 -161 -89 -245t-284 -84h-341v302h-85v54h85v302h314zM414 82q148 0 214.5 60.5t66.5 186.5q0 247 -306 247h-220v-220h267v-54h-267v-220h245z" />
    <glyph glyph-name="dmacron" unicode="&#x111;" horiz-adv-x="784" 
d="M844 620v-54h-119v-566h-88q3 40 5 140h-2q-19 -70 -86.5 -110t-177.5 -40q-153 0 -240 70.5t-87 192.5q0 109 87 180t240 71q225 0 260 -122h1v184h-319v54h319v80h88v-80h119zM637 246v16q0 74 -66 119t-195 45q-116 0 -177.5 -48t-61.5 -125q0 -86 63.5 -135.5
t175.5 -49.5q122 0 191.5 56.5t69.5 121.5z" />
    <glyph glyph-name="Emacron" unicode="&#x112;" horiz-adv-x="731" 
d="M207 774v64h352v-64h-352zM75 0v658h602v-82h-508v-208h408v-74h-408v-212h518v-82h-612z" />
    <glyph glyph-name="emacron" unicode="&#x113;" horiz-adv-x="725" 
d="M543 674v-64h-352v64h352zM676 261v-38h-538q13 -159 239 -159q104 0 155 27.5t60 68.5h84q-7 -69 -82 -119.5t-217 -50.5q-91 0 -158 22t-102.5 60t-51.5 80.5t-16 90.5q0 119 86.5 190t236.5 71t227 -64.5t77 -178.5zM592 287v3q0 65 -55 102.5t-164 37.5
q-206 0 -232 -143h451z" />
    <glyph glyph-name="Ebreve" unicode="&#x114;" horiz-adv-x="731" 
d="M383 718q-88 0 -130 40.5t-42 86.5v14h72v-7q0 -30 23.5 -52t76.5 -22t76.5 22t23.5 52v7h72v-14q0 -46 -42 -86.5t-130 -40.5zM75 0v658h602v-82h-508v-208h408v-74h-408v-212h518v-82h-612z" />
    <glyph glyph-name="ebreve" unicode="&#x115;" horiz-adv-x="725" 
d="M367 554q-88 0 -130 40.5t-42 86.5v14h72v-7q0 -30 23.5 -52t76.5 -22t76.5 22t23.5 52v7h72v-14q0 -46 -42 -86.5t-130 -40.5zM676 261v-38h-538q13 -159 239 -159q104 0 155 27.5t60 68.5h84q-7 -69 -82 -119.5t-217 -50.5q-91 0 -158 22t-102.5 60t-51.5 80.5
t-16 90.5q0 119 86.5 190t236.5 71t227 -64.5t77 -178.5zM592 287v3q0 65 -55 102.5t-164 37.5q-206 0 -232 -143h451z" />
    <glyph glyph-name="Edotaccent" unicode="&#x116;" horiz-adv-x="731" 
d="M338 735v106h90v-106h-90zM75 0v658h602v-82h-508v-208h408v-74h-408v-212h518v-82h-612z" />
    <glyph glyph-name="edotaccent" unicode="&#x117;" horiz-adv-x="725" 
d="M412 677v-106h-90v106h90zM676 261v-38h-538q13 -159 239 -159q104 0 155 27.5t60 68.5h84q-7 -69 -82 -119.5t-217 -50.5q-91 0 -158 22t-102.5 60t-51.5 80.5t-16 90.5q0 119 86.5 190t236.5 71t227 -64.5t77 -178.5zM592 287v3q0 65 -55 102.5t-164 37.5
q-206 0 -232 -143h451z" />
    <glyph glyph-name="Eogonek" unicode="&#x118;" horiz-adv-x="731" 
d="M629 -156q27 0 59 9v-62q-35 -11 -74 -11q-56 0 -87 27.5t-31 65.5q0 39 23.5 73t68.5 54h-513v658h602v-82h-508v-208h408v-74h-408v-212h518v-82h-11q-108 -54 -108 -113q0 -43 61 -43z" />
    <glyph glyph-name="eogonek" unicode="&#x119;" horiz-adv-x="725" 
d="M676 261v-38h-538q13 -159 239 -159q104 0 155 27.5t60 68.5h84q-5 -45 -40 -86q-19 -22 -75 -78q-64 -64 -64 -109q0 -43 61 -43q28 0 59 9v-62q-35 -11 -74 -11q-56 0 -87 27.5t-31 65.5q0 35 19.5 69.5t50.5 57.5v2q-51 -12 -118 -12q-91 0 -158 22t-102.5 60
t-51.5 80.5t-16 90.5q0 119 86.5 190t236.5 71t227 -64.5t77 -178.5zM592 287v3q0 65 -55 102.5t-164 37.5q-206 0 -232 -143h451z" />
    <glyph glyph-name="Ecaron" unicode="&#x11a;" horiz-adv-x="731" 
d="M335 719l-161 140h110l98 -94h2l98 94h110l-161 -140h-96zM75 0v658h602v-82h-508v-208h408v-74h-408v-212h518v-82h-612z" />
    <glyph glyph-name="ecaron" unicode="&#x11b;" horiz-adv-x="725" 
d="M415 555h-96l-161 140h110l98 -94h2l98 94h110zM676 261v-38h-538q13 -159 239 -159q104 0 155 27.5t60 68.5h84q-7 -69 -82 -119.5t-217 -50.5q-91 0 -158 22t-102.5 60t-51.5 80.5t-16 90.5q0 119 86.5 190t236.5 71t227 -64.5t77 -178.5zM592 287v3q0 65 -55 102.5
t-164 37.5q-206 0 -232 -143h451z" />
    <glyph glyph-name="Gcircumflex" unicode="&#x11c;" horiz-adv-x="889" 
d="M282 711v74l172 82h2l172 -82v-74l-172 82h-2zM454 -12q-103 0 -183 28t-127 76t-71 106t-24 123q0 146 106.5 247.5t298.5 101.5q95 0 167.5 -22t113.5 -58.5t61 -79t20 -89.5q0 -12 -1 -23h-88q1 10 1 20q0 71 -67 120.5t-207 49.5q-149 0 -230 -76t-81 -192
q0 -108 80 -179t231 -71q74 0 130 16.5t86.5 43t45 55t14.5 57.5v4h-307v74h401v-320h-88q5 61 8 134h-1q-23 -74 -99.5 -110t-189.5 -36z" />
    <glyph glyph-name="gcircumflex" unicode="&#x11d;" horiz-adv-x="759" 
d="M352 629h-2l-172 -82v74l172 82h2l172 -82v-74zM525 75q106 0 150.5 -35.5t44.5 -88.5q0 -75 -77 -122t-255 -47q-347 0 -347 154q0 44 35 71t95 25l1 1q-42 33 -42 82q0 60 34 82v1q-89 44 -89 136q0 74 69.5 122t206.5 48q39 0 81 -5q106 -6 181 -6q48 0 74 2v-72
q-14 -2 -31 -2q-40 0 -64 11l-1 -2q37 -40 37 -96q0 -75 -70.5 -122.5t-206.5 -47.5q-73 0 -132 14q-15 -18 -15 -44t20 -42.5t61 -16.5h240zM351 430q-95 0 -143.5 -27t-48.5 -69q0 -96 192 -96q95 0 144 26.5t49 69.5q0 45 -49.5 70.5t-143.5 25.5zM388 -144
q134 0 189 21.5t55 65.5q0 28 -29 43t-104 15h-209q-89 0 -125 -16t-36 -50q0 -79 259 -79z" />
    <glyph glyph-name="Gbreve" unicode="&#x11e;" horiz-adv-x="889" 
d="M455 718q-88 0 -130 40.5t-42 86.5v14h72v-7q0 -30 23.5 -52t76.5 -22t76.5 22t23.5 52v7h72v-14q0 -46 -42 -86.5t-130 -40.5zM454 -12q-103 0 -183 28t-127 76t-71 106t-24 123q0 146 106.5 247.5t298.5 101.5q95 0 167.5 -22t113.5 -58.5t61 -79t20 -89.5
q0 -12 -1 -23h-88q1 10 1 20q0 71 -67 120.5t-207 49.5q-149 0 -230 -76t-81 -192q0 -108 80 -179t231 -71q74 0 130 16.5t86.5 43t45 55t14.5 57.5v4h-307v74h401v-320h-88q5 61 8 134h-1q-23 -74 -99.5 -110t-189.5 -36z" />
    <glyph glyph-name="gbreve" unicode="&#x11f;" horiz-adv-x="759" 
d="M351 554q-88 0 -130 40.5t-42 86.5v14h72v-7q0 -30 23.5 -52t76.5 -22t76.5 22t23.5 52v7h72v-14q0 -46 -42 -86.5t-130 -40.5zM525 75q106 0 150.5 -35.5t44.5 -88.5q0 -75 -77 -122t-255 -47q-347 0 -347 154q0 44 35 71t95 25l1 1q-42 33 -42 82q0 60 34 82v1
q-89 44 -89 136q0 74 69.5 122t206.5 48q39 0 81 -5q106 -6 181 -6q48 0 74 2v-72q-14 -2 -31 -2q-40 0 -64 11l-1 -2q37 -40 37 -96q0 -75 -70.5 -122.5t-206.5 -47.5q-73 0 -132 14q-15 -18 -15 -44t20 -42.5t61 -16.5h240zM351 430q-95 0 -143.5 -27t-48.5 -69
q0 -96 192 -96q95 0 144 26.5t49 69.5q0 45 -49.5 70.5t-143.5 25.5zM388 -144q134 0 189 21.5t55 65.5q0 28 -29 43t-104 15h-209q-89 0 -125 -16t-36 -50q0 -79 259 -79z" />
    <glyph glyph-name="Gdotaccent" unicode="&#x120;" horiz-adv-x="889" 
d="M410 735v106h90v-106h-90zM454 -12q-103 0 -183 28t-127 76t-71 106t-24 123q0 146 106.5 247.5t298.5 101.5q95 0 167.5 -22t113.5 -58.5t61 -79t20 -89.5q0 -12 -1 -23h-88q1 10 1 20q0 71 -67 120.5t-207 49.5q-149 0 -230 -76t-81 -192q0 -108 80 -179t231 -71
q74 0 130 16.5t86.5 43t45 55t14.5 57.5v4h-307v74h401v-320h-88q5 61 8 134h-1q-23 -74 -99.5 -110t-189.5 -36z" />
    <glyph glyph-name="gdotaccent" unicode="&#x121;" horiz-adv-x="759" 
d="M396 677v-106h-90v106h90zM525 75q106 0 150.5 -35.5t44.5 -88.5q0 -75 -77 -122t-255 -47q-347 0 -347 154q0 44 35 71t95 25l1 1q-42 33 -42 82q0 60 34 82v1q-89 44 -89 136q0 74 69.5 122t206.5 48q39 0 81 -5q106 -6 181 -6q48 0 74 2v-72q-14 -2 -31 -2
q-40 0 -64 11l-1 -2q37 -40 37 -96q0 -75 -70.5 -122.5t-206.5 -47.5q-73 0 -132 14q-15 -18 -15 -44t20 -42.5t61 -16.5h240zM351 430q-95 0 -143.5 -27t-48.5 -69q0 -96 192 -96q95 0 144 26.5t49 69.5q0 45 -49.5 70.5t-143.5 25.5zM388 -144q134 0 189 21.5t55 65.5
q0 28 -29 43t-104 15h-209q-89 0 -125 -16t-36 -50q0 -79 259 -79z" />
    <glyph glyph-name="Gcommaaccent" unicode="&#x122;" horiz-adv-x="889" 
d="M454 -12q-103 0 -183 28t-127 76t-71 106t-24 123q0 146 106.5 247.5t298.5 101.5q95 0 167.5 -22t113.5 -58.5t61 -79t20 -89.5q0 -12 -1 -23h-88q1 10 1 20q0 71 -67 120.5t-207 49.5q-149 0 -230 -76t-81 -192q0 -108 80 -179t231 -71q74 0 130 16.5t86.5 43t45 55
t14.5 57.5v4h-307v74h401v-320h-88q5 61 8 134h-1q-23 -74 -99.5 -110t-189.5 -36zM376 -294v53q75 7 75 84v2h-44v119h100v-104q0 -140 -131 -154z" />
    <glyph glyph-name="gcommaaccent" unicode="&#x123;" horiz-adv-x="759" 
d="M399 674v-119h-100v104q0 140 131 154v-53q-75 -7 -75 -84v-2h44zM525 75q106 0 150.5 -35.5t44.5 -88.5q0 -75 -77 -122t-255 -47q-347 0 -347 154q0 44 35 71t95 25l1 1q-42 33 -42 82q0 60 34 82v1q-89 44 -89 136q0 74 69.5 122t206.5 48q39 0 81 -5q106 -6 181 -6
q48 0 74 2v-72q-14 -2 -31 -2q-40 0 -64 11l-1 -2q37 -40 37 -96q0 -75 -70.5 -122.5t-206.5 -47.5q-73 0 -132 14q-15 -18 -15 -44t20 -42.5t61 -16.5h240zM351 430q-95 0 -143.5 -27t-48.5 -69q0 -96 192 -96q95 0 144 26.5t49 69.5q0 45 -49.5 70.5t-143.5 25.5z
M388 -144q134 0 189 21.5t55 65.5q0 28 -29 43t-104 15h-209q-89 0 -125 -16t-36 -50q0 -79 259 -79z" />
    <glyph glyph-name="Hcircumflex" unicode="&#x124;" horiz-adv-x="928" 
d="M291 711v74l172 82h2l172 -82v-74l-172 82h-2zM75 0v658h94v-277h590v277h94v-658h-94v305h-590v-305h-94z" />
    <glyph glyph-name="hcircumflex" unicode="&#x125;" horiz-adv-x="783" 
d="M-66 711v74l172 82h2l172 -82v-74l-172 82h-2zM63 0v700h88v-254q0 -53 -1 -97h2q31 80 99 117.5t189 37.5q149 0 219 -62t70 -162v-280h-88v257q0 83 -50.5 126t-172.5 43q-110 0 -188.5 -54.5t-78.5 -152.5v-219h-88z" />
    <glyph glyph-name="Imacron" unicode="&#x12a;" horiz-adv-x="250" 
d="M-51 774v64h352v-64h-352zM78 0v658h94v-658h-94z" />
    <glyph glyph-name="imacron" unicode="&#x12b;" horiz-adv-x="222" 
d="M-65 610v64h352v-64h-352zM67 0v494h88v-494h-88z" />
    <glyph glyph-name="Iogonek" unicode="&#x12e;" horiz-adv-x="250" 
d="M119 -156q27 0 59 9v-62q-35 -11 -74 -11q-56 0 -87 27.5t-31 65.5q0 39 23.5 73t68.5 54v658h94v-658h-6q-108 -54 -108 -113q0 -43 61 -43z" />
    <glyph glyph-name="iogonek" unicode="&#x12f;" horiz-adv-x="222" 
d="M161 677v-106h-100v106h100zM108 -156q28 0 59 9v-62q-35 -11 -74 -11q-56 0 -87 27.5t-31 65.5q0 39 23.5 73t68.5 54v494h88v-494q-108 -54 -108 -113q0 -43 61 -43z" />
    <glyph glyph-name="Idotaccent" unicode="&#x130;" horiz-adv-x="250" 
d="M80 735v106h90v-106h-90zM78 0v658h94v-658h-94z" />
    <glyph glyph-name="dotlessi" unicode="&#x131;" horiz-adv-x="222" 
d="M67 0v494h88v-494h-88z" />
    <glyph glyph-name="Jcircumflex" unicode="&#x134;" horiz-adv-x="776" 
d="M466 711v74l172 82h2l172 -82v-74l-172 82h-2zM378 -12q-152 0 -233 70.5t-81 194.5q0 33 3 90h88q-3 -60 -3 -90q0 -88 57 -135.5t169 -47.5q108 0 171 57t63 177v354h94v-350q0 -160 -87 -240t-241 -80z" />
    <glyph glyph-name="jcircumflex" unicode="&#x135;" horiz-adv-x="215" 
d="M-62 547v74l172 82h2l172 -82v-74l-172 82h-2zM-71 -208q-66 0 -107 13v76q48 -11 107 -11q137 0 137 156v468h88v-471q0 -100 -54 -165.5t-171 -65.5z" />
    <glyph glyph-name="Kcommaaccent" unicode="&#x136;" horiz-adv-x="939" 
d="M75 0v658h94v-413h2l577 413h141l-443 -312l466 -346h-154l-386 290l-203 -142v-148h-94zM385 -294v53q75 7 75 84v2h-44v119h100v-104q0 -140 -131 -154z" />
    <glyph glyph-name="kcommaaccent" unicode="&#x137;" horiz-adv-x="782" 
d="M63 0v700h88v-491h1l439 285h141l-357 -224l376 -270h-144l-300 222l-156 -97v-125h-88zM313 -294v53q75 7 75 84v2h-44v119h100v-104q0 -140 -131 -154z" />
    <glyph glyph-name="Lacute" unicode="&#x139;" horiz-adv-x="662" 
d="M63 719l112 140h108l-138 -140h-82zM75 0v658h94v-576h460v-82h-554z" />
    <glyph glyph-name="lacute" unicode="&#x13a;" horiz-adv-x="214" 
d="M48 739l112 140h108l-138 -140h-82zM63 0v700h88v-700h-88z" />
    <glyph glyph-name="Lcommaaccent" unicode="&#x13b;" horiz-adv-x="662" 
d="M75 0v658h94v-576h460v-82h-554zM275 -294v53q75 7 75 84v2h-44v119h100v-104q0 -140 -131 -154z" />
    <glyph glyph-name="lcommaaccent" unicode="&#x13c;" horiz-adv-x="214" 
d="M63 0v700h88v-700h-88zM27 -294v53q75 7 75 84v2h-44v119h100v-104q0 -140 -131 -154z" />
    <glyph glyph-name="Lcaron" unicode="&#x13d;" horiz-adv-x="662" 
d="M75 0v658h94v-576h460v-82h-554zM386 400v53q75 7 75 84v2h-44v119h100v-104q0 -140 -131 -154z" />
    <glyph glyph-name="lcaron" unicode="&#x13e;" horiz-adv-x="279" 
d="M63 0v700h88v-700h-88zM181 400v53q75 7 75 84v2h-44v119h100v-104q0 -140 -131 -154z" />
    <glyph glyph-name="Ldot" unicode="&#x13f;" horiz-adv-x="672" 
d="M75 0v658h94v-576h460v-82h-554zM422 316v119h100v-119h-100z" />
    <glyph glyph-name="ldot" unicode="&#x140;" horiz-adv-x="314" 
d="M63 0v700h88v-700h-88zM214 248v119h100v-119h-100z" />
    <glyph glyph-name="Lslash" unicode="&#x141;" horiz-adv-x="662" 
d="M169 82h460v-82h-554v269l-95 -32v56l95 32v333h94v-301l196 67v-57l-196 -66v-219z" />
    <glyph glyph-name="lslash" unicode="&#x142;" horiz-adv-x="214" 
d="M217 338v-58l-66 -28v-252h-88v215l-63 -27v58l63 27v427h88v-390z" />
    <glyph glyph-name="Nacute" unicode="&#x143;" horiz-adv-x="915" 
d="M399 719l112 140h108l-138 -140h-82zM75 0v658h139l534 -532h2v532h90v-658h-93l-581 579h-1v-579h-90z" />
    <glyph glyph-name="nacute" unicode="&#x144;" horiz-adv-x="779" 
d="M333 555l112 140h108l-138 -140h-82zM59 0v494h88l-1 -145h2q31 80 99 117.5t189 37.5q149 0 219 -62t70 -162v-280h-88v257q0 83 -50.5 126t-172.5 43q-110 0 -188.5 -54.5t-78.5 -152.5v-219h-88z" />
    <glyph glyph-name="Ncommaaccent" unicode="&#x145;" horiz-adv-x="915" 
d="M75 0v658h139l534 -532h2v532h90v-658h-93l-581 579h-1v-579h-90zM378 -294v53q75 7 75 84v2h-44v119h100v-104q0 -140 -131 -154z" />
    <glyph glyph-name="ncommaaccent" unicode="&#x146;" horiz-adv-x="779" 
d="M59 0v494h88l-1 -145h2q31 80 99 117.5t189 37.5q149 0 219 -62t70 -162v-280h-88v257q0 83 -50.5 126t-172.5 43q-110 0 -188.5 -54.5t-78.5 -152.5v-219h-88zM310 -294v53q75 7 75 84v2h-44v119h100v-104q0 -140 -131 -154z" />
    <glyph glyph-name="Ncaron" unicode="&#x147;" horiz-adv-x="915" 
d="M410 719l-161 140h110l98 -94h2l98 94h110l-161 -140h-96zM75 0v658h139l534 -532h2v532h90v-658h-93l-581 579h-1v-579h-90z" />
    <glyph glyph-name="ncaron" unicode="&#x148;" horiz-adv-x="779" 
d="M344 555l-161 140h110l98 -94h2l98 94h110l-161 -140h-96zM59 0v494h88l-1 -145h2q31 80 99 117.5t189 37.5q149 0 219 -62t70 -162v-280h-88v257q0 83 -50.5 126t-172.5 43q-110 0 -188.5 -54.5t-78.5 -152.5v-219h-88z" />
    <glyph glyph-name="Omacron" unicode="&#x14c;" horiz-adv-x="934" 
d="M291 774v64h352v-64h-352zM467 -12q-203 0 -310.5 93t-107.5 251q0 148 109 243t309 95t309 -95t109 -243q0 -153 -106 -248.5t-312 -95.5zM467 70q160 0 242 72t82 190q0 113 -84.5 184.5t-239.5 71.5t-239.5 -71.5t-84.5 -184.5q0 -121 83 -191.5t241 -70.5z" />
    <glyph glyph-name="omacron" unicode="&#x14d;" horiz-adv-x="764" 
d="M206 610v64h352v-64h-352zM382 -10q-167 0 -250 74.5t-83 181.5t84 182.5t249 75.5t249 -75.5t84 -182.5t-83 -181.5t-250 -74.5zM382 68q126 0 185.5 50.5t59.5 127.5t-60 128.5t-185 51.5t-185 -51.5t-60 -128.5q0 -76 60 -127t185 -51z" />
    <glyph glyph-name="Obreve" unicode="&#x14e;" horiz-adv-x="934" 
d="M467 718q-88 0 -130 40.5t-42 86.5v14h72v-7q0 -30 23.5 -52t76.5 -22t76.5 22t23.5 52v7h72v-14q0 -46 -42 -86.5t-130 -40.5zM467 -12q-203 0 -310.5 93t-107.5 251q0 148 109 243t309 95t309 -95t109 -243q0 -153 -106 -248.5t-312 -95.5zM467 70q160 0 242 72t82 190
q0 113 -84.5 184.5t-239.5 71.5t-239.5 -71.5t-84.5 -184.5q0 -121 83 -191.5t241 -70.5z" />
    <glyph glyph-name="obreve" unicode="&#x14f;" horiz-adv-x="764" 
d="M382 554q-88 0 -130 40.5t-42 86.5v14h72v-7q0 -30 23.5 -52t76.5 -22t76.5 22t23.5 52v7h72v-14q0 -46 -42 -86.5t-130 -40.5zM382 -10q-167 0 -250 74.5t-83 181.5t84 182.5t249 75.5t249 -75.5t84 -182.5t-83 -181.5t-250 -74.5zM382 68q126 0 185.5 50.5t59.5 127.5
t-60 128.5t-185 51.5t-185 -51.5t-60 -128.5q0 -76 60 -127t185 -51z" />
    <glyph glyph-name="Ohungarumlaut" unicode="&#x150;" horiz-adv-x="934" 
d="M380 719h-79l98 140h100zM583 719h-80l99 140h99zM467 -12q-203 0 -310.5 93t-107.5 251q0 148 109 243t309 95t309 -95t109 -243q0 -153 -106 -248.5t-312 -95.5zM467 70q160 0 242 72t82 190q0 113 -84.5 184.5t-239.5 71.5t-239.5 -71.5t-84.5 -184.5
q0 -121 83 -191.5t241 -70.5z" />
    <glyph glyph-name="ohungarumlaut" unicode="&#x151;" horiz-adv-x="764" 
d="M295 555h-79l98 140h100zM498 555h-80l99 140h99zM382 -10q-167 0 -250 74.5t-83 181.5t84 182.5t249 75.5t249 -75.5t84 -182.5t-83 -181.5t-250 -74.5zM382 68q126 0 185.5 50.5t59.5 127.5t-60 128.5t-185 51.5t-185 -51.5t-60 -128.5q0 -76 60 -127t185 -51z" />
    <glyph glyph-name="OE" unicode="&#x152;" horiz-adv-x="1206" 
d="M467 -12q-203 0 -310.5 93t-107.5 251q0 148 109 243t309 95q69 0 128 -12h557v-82h-478v-208h378v-74h-378v-212h488v-82h-566q-58 -12 -129 -12zM467 70q62 0 113 12v494q-51 12 -113 12q-155 0 -239.5 -71.5t-84.5 -184.5q0 -121 83 -191.5t241 -70.5z" />
    <glyph glyph-name="oe" unicode="&#x153;" horiz-adv-x="1303" 
d="M1254 261v-38h-538q13 -159 239 -159q104 0 155 27.5t60 68.5h84q-7 -69 -82 -119.5t-217 -50.5q-222 0 -285 134h-2q-68 -134 -286 -134q-167 0 -250 74.5t-83 181.5t84 182.5t249 75.5q219 0 288 -141h2q63 141 278 141q151 0 227.5 -64.5t76.5 -178.5zM1170 287v3
q0 65 -54 102.5t-165 37.5q-206 0 -232 -143h451zM382 68q126 0 185.5 50.5t59.5 127.5t-60 128.5t-185 51.5t-185 -51.5t-60 -128.5q0 -76 60 -127t185 -51z" />
    <glyph glyph-name="Racute" unicode="&#x154;" horiz-adv-x="849" 
d="M364 719l112 140h108l-138 -140h-82zM75 0v658h414q145 0 217.5 -50t72.5 -140q0 -58 -33.5 -99.5t-92.5 -55.5v-2q122 -23 122 -170v-141h-94v141q0 127 -151 127h-361v-268h-94zM169 342h344q88 0 133 30.5t45 84.5q0 119 -215 119h-307v-234z" />
    <glyph glyph-name="racute" unicode="&#x155;" horiz-adv-x="680" 
d="M296 555l112 140h108l-138 -140h-82zM59 0v494h88l-1 -157h2q56 167 250 167q233 0 233 -240q0 -50 -2 -76h-83q0 5 0.5 23.5t0.5 27.5q0 97 -37.5 142t-127.5 45q-105 0 -170 -71.5t-65 -172.5v-182h-88z" />
    <glyph glyph-name="Rcommaaccent" unicode="&#x156;" horiz-adv-x="849" 
d="M75 0v658h414q145 0 217.5 -50t72.5 -140q0 -58 -33.5 -99.5t-92.5 -55.5v-2q122 -23 122 -170v-141h-94v141q0 127 -151 127h-361v-268h-94zM169 342h344q88 0 133 30.5t45 84.5q0 119 -215 119h-307v-234zM348 -294v53q75 7 75 84v2h-44v119h100v-104q0 -140 -131 -154
z" />
    <glyph glyph-name="rcommaaccent" unicode="&#x157;" horiz-adv-x="680" 
d="M59 0v494h88l-1 -157h2q56 167 250 167q233 0 233 -240q0 -50 -2 -76h-83q0 5 0.5 23.5t0.5 27.5q0 97 -37.5 142t-127.5 45q-105 0 -170 -71.5t-65 -172.5v-182h-88zM27 -294v53q75 7 75 84v2h-44v119h100v-104q0 -140 -131 -154z" />
    <glyph glyph-name="Rcaron" unicode="&#x158;" horiz-adv-x="849" 
d="M375 719l-161 140h110l98 -94h2l98 94h110l-161 -140h-96zM75 0v658h414q145 0 217.5 -50t72.5 -140q0 -58 -33.5 -99.5t-92.5 -55.5v-2q122 -23 122 -170v-141h-94v141q0 127 -151 127h-361v-268h-94zM169 342h344q88 0 133 30.5t45 84.5q0 119 -215 119h-307v-234z" />
    <glyph glyph-name="rcaron" unicode="&#x159;" horiz-adv-x="680" 
d="M307 555l-161 140h110l98 -94h2l98 94h110l-161 -140h-96zM59 0v494h88l-1 -157h2q56 167 250 167q233 0 233 -240q0 -50 -2 -76h-83q0 5 0.5 23.5t0.5 27.5q0 97 -37.5 142t-127.5 45q-105 0 -170 -71.5t-65 -172.5v-182h-88z" />
    <glyph glyph-name="Sacute" unicode="&#x15a;" horiz-adv-x="852" 
d="M357 719l112 140h108l-138 -140h-82zM420 -12q-362 0 -362 233h88q0 -30 10 -53.5t36.5 -47.5t84.5 -37t143 -13q87 0 145.5 10t87.5 28.5t40 39t11 48.5q0 58 -69 76q-35 10 -245 20q-196 9 -256 36q-37 17 -58.5 51t-21.5 79q0 92 92.5 152t268.5 60q106 0 178 -18
t108.5 -52t50.5 -71t14 -86h-88q0 71 -57.5 108t-205.5 37q-134 0 -200.5 -32.5t-66.5 -90.5q0 -52 57 -73q44 -16 241 -24q198 -9 256 -29q45 -16 70.5 -52.5t25.5 -84.5q0 -214 -378 -214z" />
    <glyph glyph-name="sacute" unicode="&#x15b;" horiz-adv-x="696" 
d="M280 555l112 140h108l-138 -140h-82zM339 -10q-290 0 -290 174h84q0 -21 7.5 -37t28 -31t63.5 -23.5t107 -8.5q123 0 171.5 22t48.5 61t-40 50q-30 9 -192 13q-165 5 -224 35q-54 28 -54 97q0 74 77.5 118t212.5 44q83 0 141 -14.5t87 -41t40.5 -55.5t11.5 -66h-84
q-1 33 -14.5 54t-57.5 35t-122 14q-204 0 -204 -85q0 -35 39 -47q27 -8 198 -16q155 -6 206 -27q67 -29 67 -106q0 -30 -14 -56t-46 -50.5t-95.5 -38.5t-152.5 -14z" />
    <glyph glyph-name="Scircumflex" unicode="&#x15c;" horiz-adv-x="852" 
d="M243 711v74l172 82h2l172 -82v-74l-172 82h-2zM420 -12q-362 0 -362 233h88q0 -30 10 -53.5t36.5 -47.5t84.5 -37t143 -13q87 0 145.5 10t87.5 28.5t40 39t11 48.5q0 58 -69 76q-35 10 -245 20q-196 9 -256 36q-37 17 -58.5 51t-21.5 79q0 92 92.5 152t268.5 60
q106 0 178 -18t108.5 -52t50.5 -71t14 -86h-88q0 71 -57.5 108t-205.5 37q-134 0 -200.5 -32.5t-66.5 -90.5q0 -52 57 -73q44 -16 241 -24q198 -9 256 -29q45 -16 70.5 -52.5t25.5 -84.5q0 -214 -378 -214z" />
    <glyph glyph-name="scircumflex" unicode="&#x15d;" horiz-adv-x="696" 
d="M166 547v74l172 82h2l172 -82v-74l-172 82h-2zM339 -10q-290 0 -290 174h84q0 -21 7.5 -37t28 -31t63.5 -23.5t107 -8.5q123 0 171.5 22t48.5 61t-40 50q-30 9 -192 13q-165 5 -224 35q-54 28 -54 97q0 74 77.5 118t212.5 44q83 0 141 -14.5t87 -41t40.5 -55.5t11.5 -66
h-84q-1 33 -14.5 54t-57.5 35t-122 14q-204 0 -204 -85q0 -35 39 -47q27 -8 198 -16q155 -6 206 -27q67 -29 67 -106q0 -30 -14 -56t-46 -50.5t-95.5 -38.5t-152.5 -14z" />
    <glyph glyph-name="Scedilla" unicode="&#x15e;" horiz-adv-x="852" 
d="M798 202q0 -206 -351 -214l-20 -43l1 -2q21 16 61 16q48 0 72.5 -22t24.5 -57q0 -45 -42 -71.5t-121 -26.5t-121 23t-48 62h76q9 -33 93 -33q99 0 99 40q0 35 -86 35q-51 0 -89 -6l39 86q-328 10 -328 232h88q0 -30 10 -53.5t36.5 -47.5t84.5 -37t143 -13q87 0 145.5 10
t87.5 28.5t40 39t11 48.5q0 58 -69 76q-35 10 -245 20q-196 9 -256 36q-37 17 -58.5 51t-21.5 79q0 92 92.5 152t268.5 60q106 0 178 -18t108.5 -52t50.5 -71t14 -86h-88q0 71 -57.5 108t-205.5 37q-134 0 -200.5 -32.5t-66.5 -90.5q0 -52 57 -73q44 -16 241 -24
q198 -9 256 -29q45 -16 70.5 -52.5t25.5 -84.5z" />
    <glyph glyph-name="scedilla" unicode="&#x15f;" horiz-adv-x="696" 
d="M647 149q0 -29 -13 -54t-42 -48.5t-87 -38.5t-138 -18l-21 -45l1 -2q21 16 61 16q48 0 72.5 -22t24.5 -57q0 -45 -42 -71.5t-121 -26.5t-121 23t-48 62h76q9 -33 93 -33q99 0 99 40q0 35 -86 35q-51 0 -89 -6l40 88q-257 9 -257 173h84q0 -21 7.5 -37t28 -31t63.5 -23.5
t107 -8.5q123 0 171.5 22t48.5 61t-40 50q-30 9 -192 13q-165 5 -224 35q-54 28 -54 97q0 74 77.5 118t212.5 44q83 0 141 -14.5t87 -41t40.5 -55.5t11.5 -66h-84q-1 33 -14.5 54t-57.5 35t-122 14q-204 0 -204 -85q0 -35 39 -47q27 -8 198 -16q155 -6 206 -27
q67 -29 67 -106z" />
    <glyph glyph-name="Scaron" unicode="&#x160;" horiz-adv-x="852" 
d="M368 719l-161 140h110l98 -94h2l98 94h110l-161 -140h-96zM420 -12q-362 0 -362 233h88q0 -30 10 -53.5t36.5 -47.5t84.5 -37t143 -13q87 0 145.5 10t87.5 28.5t40 39t11 48.5q0 58 -69 76q-35 10 -245 20q-196 9 -256 36q-37 17 -58.5 51t-21.5 79q0 92 92.5 152
t268.5 60q106 0 178 -18t108.5 -52t50.5 -71t14 -86h-88q0 71 -57.5 108t-205.5 37q-134 0 -200.5 -32.5t-66.5 -90.5q0 -52 57 -73q44 -16 241 -24q198 -9 256 -29q45 -16 70.5 -52.5t25.5 -84.5q0 -214 -378 -214z" />
    <glyph glyph-name="scaron" unicode="&#x161;" horiz-adv-x="696" 
d="M291 555l-161 140h110l98 -94h2l98 94h110l-161 -140h-96zM339 -10q-290 0 -290 174h84q0 -21 7.5 -37t28 -31t63.5 -23.5t107 -8.5q123 0 171.5 22t48.5 61t-40 50q-30 9 -192 13q-165 5 -224 35q-54 28 -54 97q0 74 77.5 118t212.5 44q83 0 141 -14.5t87 -41
t40.5 -55.5t11.5 -66h-84q-1 33 -14.5 54t-57.5 35t-122 14q-204 0 -204 -85q0 -35 39 -47q27 -8 198 -16q155 -6 206 -27q67 -29 67 -106q0 -30 -14 -56t-46 -50.5t-95.5 -38.5t-152.5 -14z" />
    <glyph glyph-name="uni0162" unicode="&#x162;" horiz-adv-x="760" 
d="M333 0v576h-305v82h704v-82h-305v-576h-94zM300 -294v53q75 7 75 84v2h-44v119h100v-104q0 -140 -131 -154z" />
    <glyph glyph-name="uni0163" unicode="&#x163;" horiz-adv-x="557" 
d="M381 -4q-139 0 -202.5 53t-63.5 143v224h-105v78h83q13 0 18.5 7.5t7.5 25.5l6 79h78v-112h304v-78h-304v-217q0 -64 39.5 -94.5t141.5 -30.5q67 0 121 13v-76q-47 -15 -124 -15zM231 -294v53q75 7 75 84v2h-44v119h100v-104q0 -140 -131 -154z" />
    <glyph glyph-name="Tcaron" unicode="&#x164;" horiz-adv-x="760" 
d="M332 719l-161 140h110l98 -94h2l98 94h110l-161 -140h-96zM333 0v576h-305v82h704v-82h-305v-576h-94z" />
    <glyph glyph-name="tcaron" unicode="&#x165;" horiz-adv-x="557" 
d="M321 546v53q75 7 75 84v2h-44v119h100v-104q0 -140 -131 -154zM381 -4q-139 0 -202.5 53t-63.5 143v224h-105v78h83q13 0 18.5 7.5t7.5 25.5l6 79h78v-112h304v-78h-304v-217q0 -64 39.5 -94.5t141.5 -30.5q67 0 121 13v-76q-47 -15 -124 -15z" />
    <glyph glyph-name="Utilde" unicode="&#x168;" horiz-adv-x="888" 
d="M243 727q8 72 41 106t78 34t95 -39l13 -10q36 -27 58 -27q51 0 61 76h62q-8 -71 -41.5 -105.5t-78.5 -34.5q-20 0 -38.5 6.5t-28.5 13t-27 19.5l-13 10q-37 27 -57 27q-53 0 -62 -76h-62zM445 -12q-179 0 -277 77t-98 231v362h94v-351q0 -237 281 -237q285 0 285 237v351
h88v-362q0 -154 -96.5 -231t-276.5 -77z" />
    <glyph glyph-name="utilde" unicode="&#x169;" horiz-adv-x="779" 
d="M186 563q8 72 41 106t78 34t95 -39l13 -10q36 -27 58 -27q51 0 61 76h62q-8 -71 -41.5 -105.5t-78.5 -34.5q-20 0 -38.5 6.5t-28.5 13t-27 19.5l-13 10q-37 27 -57 27q-53 0 -62 -76h-62zM345 -10q-144 0 -217.5 65t-73.5 164v275h88v-258q0 -81 49.5 -124.5t167.5 -43.5
q116 0 194.5 60.5t78.5 163.5v202h88v-494h-88q5 100 5 162h-2q-38 -172 -290 -172z" />
    <glyph glyph-name="Umacron" unicode="&#x16a;" horiz-adv-x="888" 
d="M271 774v64h352v-64h-352zM445 -12q-179 0 -277 77t-98 231v362h94v-351q0 -237 281 -237q285 0 285 237v351h88v-362q0 -154 -96.5 -231t-276.5 -77z" />
    <glyph glyph-name="umacron" unicode="&#x16b;" horiz-adv-x="779" 
d="M214 610v64h352v-64h-352zM345 -10q-144 0 -217.5 65t-73.5 164v275h88v-258q0 -81 49.5 -124.5t167.5 -43.5q116 0 194.5 60.5t78.5 163.5v202h88v-494h-88q5 100 5 162h-2q-38 -172 -290 -172z" />
    <glyph glyph-name="Ubreve" unicode="&#x16c;" horiz-adv-x="888" 
d="M447 718q-88 0 -130 40.5t-42 86.5v14h72v-7q0 -30 23.5 -52t76.5 -22t76.5 22t23.5 52v7h72v-14q0 -46 -42 -86.5t-130 -40.5zM445 -12q-179 0 -277 77t-98 231v362h94v-351q0 -237 281 -237q285 0 285 237v351h88v-362q0 -154 -96.5 -231t-276.5 -77z" />
    <glyph glyph-name="ubreve" unicode="&#x16d;" horiz-adv-x="779" 
d="M390 554q-88 0 -130 40.5t-42 86.5v14h72v-7q0 -30 23.5 -52t76.5 -22t76.5 22t23.5 52v7h72v-14q0 -46 -42 -86.5t-130 -40.5zM345 -10q-144 0 -217.5 65t-73.5 164v275h88v-258q0 -81 49.5 -124.5t167.5 -43.5q116 0 194.5 60.5t78.5 163.5v202h88v-494h-88
q5 100 5 162h-2q-38 -172 -290 -172z" />
    <glyph glyph-name="Uring" unicode="&#x16e;" horiz-adv-x="888" 
d="M447 703q-84 0 -130 33.5t-46 85.5t47.5 86t128.5 34q83 0 129.5 -33.5t46.5 -86.5q0 -52 -46 -85.5t-130 -33.5zM447 761q54 0 82 16.5t28 44.5q0 29 -28.5 45.5t-81.5 16.5q-52 0 -81 -16.5t-29 -45.5q0 -28 28 -44.5t82 -16.5zM445 -12q-179 0 -277 77t-98 231v362h94
v-351q0 -237 281 -237q285 0 285 237v351h88v-362q0 -154 -96.5 -231t-276.5 -77z" />
    <glyph glyph-name="uring" unicode="&#x16f;" horiz-adv-x="779" 
d="M390 539q-84 0 -130 33.5t-46 85.5t47.5 86t128.5 34q83 0 129.5 -33.5t46.5 -86.5q0 -52 -46 -85.5t-130 -33.5zM390 597q54 0 82 16.5t28 44.5q0 29 -28.5 45.5t-81.5 16.5q-52 0 -81 -16.5t-29 -45.5q0 -28 28 -44.5t82 -16.5zM345 -10q-144 0 -217.5 65t-73.5 164
v275h88v-258q0 -81 49.5 -124.5t167.5 -43.5q116 0 194.5 60.5t78.5 163.5v202h88v-494h-88q5 100 5 162h-2q-38 -172 -290 -172z" />
    <glyph glyph-name="Uhungarumlaut" unicode="&#x170;" horiz-adv-x="888" 
d="M360 719h-79l98 140h100zM563 719h-80l99 140h99zM445 -12q-179 0 -277 77t-98 231v362h94v-351q0 -237 281 -237q285 0 285 237v351h88v-362q0 -154 -96.5 -231t-276.5 -77z" />
    <glyph glyph-name="uhungarumlaut" unicode="&#x171;" horiz-adv-x="779" 
d="M303 555h-79l98 140h100zM506 555h-80l99 140h99zM345 -10q-144 0 -217.5 65t-73.5 164v275h88v-258q0 -81 49.5 -124.5t167.5 -43.5q116 0 194.5 60.5t78.5 163.5v202h88v-494h-88q5 100 5 162h-2q-38 -172 -290 -172z" />
    <glyph glyph-name="Uogonek" unicode="&#x172;" horiz-adv-x="888" 
d="M70 296v362h94v-351q0 -237 281 -237q285 0 285 237v351h88v-362q0 -233 -219 -290q-32 -9 -68 -30q-27 -15 -47.5 -40t-20.5 -49q0 -43 61 -43q28 0 59 9v-62q-35 -11 -74 -11q-56 0 -87 27.5t-31 65.5q0 35 19.5 65.5t48.5 47.5v2h-14q-179 0 -277 77t-98 231z" />
    <glyph glyph-name="uogonek" unicode="&#x173;" horiz-adv-x="779" 
d="M673 -156q27 0 59 9v-62q-35 -11 -74 -11q-56 0 -87 27.5t-31 65.5q0 39 23.5 73t68.5 54q5 100 5 162h-2q-38 -172 -290 -172q-144 0 -217.5 65t-73.5 164v275h88v-258q0 -81 49.5 -124.5t167.5 -43.5q116 0 194.5 60.5t78.5 163.5v202h88v-494q-108 -54 -108 -113
q0 -43 61 -43z" />
    <glyph glyph-name="Wcircumflex" unicode="&#x174;" horiz-adv-x="1353" 
d="M503 711v74l172 82h2l172 -82v-74l-172 82h-2zM336 0l-310 658h104l259 -550h2l245 539h93l240 -539h2l258 550h98l-311 -658h-101l-235 525h-2l-240 -525h-102z" />
    <glyph glyph-name="wcircumflex" unicode="&#x175;" horiz-adv-x="1042" 
d="M348 547v74l172 82h2l172 -82v-74l-172 82h-2zM231 0l-205 494h97l163 -407h1l197 407h84l188 -407h1l167 407h92l-206 -494h-103l-184 394h-2l-189 -394h-101z" />
    <glyph glyph-name="Ycircumflex" unicode="&#x176;" horiz-adv-x="921" 
d="M288 711v74l172 82h2l172 -82v-74l-172 82h-2zM413 0v272l-387 386h133l305 -307h2l303 307h126l-388 -386v-272h-94z" />
    <glyph glyph-name="ycircumflex" unicode="&#x177;" horiz-adv-x="736" 
d="M195 547v74l172 82h2l172 -82v-74l-172 82h-2zM185 -218q-50 0 -85 14v77q35 -13 85 -13t82.5 27t80.5 113h-17l-305 494h105l255 -419h2l226 419h96l-275 -503q-67 -122 -116.5 -165.5t-133.5 -43.5z" />
    <glyph glyph-name="Ydieresis" unicode="&#x178;" horiz-adv-x="921" 
d="M311 735v106h90v-106h-90zM521 735v106h90v-106h-90zM413 0v272l-387 386h133l305 -307h2l303 307h126l-388 -386v-272h-94z" />
    <glyph glyph-name="Zacute" unicode="&#x179;" horiz-adv-x="763" 
d="M320 719l112 140h108l-138 -140h-82zM48 0v65l540 510v1h-533v82h660v-70l-534 -505v-1h527v-82h-660z" />
    <glyph glyph-name="zacute" unicode="&#x17a;" horiz-adv-x="627" 
d="M259 555l112 140h108l-138 -140h-82zM47 0v53l399 361v2h-391v78h525v-53l-399 -362v-1h399v-78h-533z" />
    <glyph glyph-name="Zdotaccent" unicode="&#x17b;" horiz-adv-x="763" 
d="M334 735v106h90v-106h-90zM48 0v65l540 510v1h-533v82h660v-70l-534 -505v-1h527v-82h-660z" />
    <glyph glyph-name="zdotaccent" unicode="&#x17c;" horiz-adv-x="627" 
d="M273 571v106h90v-106h-90zM47 0v53l399 361v2h-391v78h525v-53l-399 -362v-1h399v-78h-533z" />
    <glyph glyph-name="Zcaron" unicode="&#x17d;" horiz-adv-x="763" 
d="M331 719l-161 140h110l98 -94h2l98 94h110l-161 -140h-96zM48 0v65l540 510v1h-533v82h660v-70l-534 -505v-1h527v-82h-660z" />
    <glyph glyph-name="zcaron" unicode="&#x17e;" horiz-adv-x="627" 
d="M270 555l-161 140h110l98 -94h2l98 94h110l-161 -140h-96zM47 0v53l399 361v2h-391v78h525v-53l-399 -362v-1h399v-78h-533z" />
    <glyph glyph-name="florin" unicode="&#x192;" 
d="M728 395v-78h-276l-22 -211q-20 -201 -223 -201q-78 0 -123 18v75q52 -15 123 -15q65 0 96.5 30t38.5 101l21 203h-181v78h189l3 33q10 99 63.5 150t161.5 51q76 0 121 -18v-75q-53 15 -121 15q-67 0 -98.5 -31t-38.5 -100l-3 -25h269z" />
    <glyph glyph-name="AEacute" unicode="&#x1fc;" horiz-adv-x="1149" 
d="M723 719l112 140h108l-138 -140h-82zM31 0l440 658h624v-82h-478v-208h378v-74h-378v-212h488v-82h-582v146h-289l-96 -146h-107zM283 220h240v360h-2z" />
    <glyph glyph-name="aeacute" unicode="&#x1fd;" horiz-adv-x="1257" 
d="M790 695l-138 -140h-82l112 140h108zM1208 261v-44h-538q19 -153 239 -153q104 0 155 27.5t60 68.5h84q-7 -69 -82 -119.5t-217 -50.5q-119 0 -191.5 36t-99.5 95h-4q-15 -53 -86.5 -91.5t-209.5 -38.5q-134 0 -199 43.5t-65 113.5q0 40 17 67.5t48.5 41t66.5 19t81 5.5
h314v7q0 142 -222 142q-204 0 -204 -95q0 -7 1 -13h-84q-1 7 -1 17q0 76 73.5 120.5t214.5 44.5q109 0 180 -31t93 -87h1q27 56 99 87t172 31q151 0 227.5 -64.5t76.5 -178.5zM1124 281v9q0 65 -54 102.5t-165 37.5q-210 0 -233 -149h452zM581 209v8h-303q-74 0 -107 -12.5
t-33 -54.5q0 -85 185 -85q127 0 192.5 43.5t65.5 100.5z" />
    <glyph glyph-name="Oslashacute" unicode="&#x1fe;" horiz-adv-x="934" 
d="M628 859l-138 -140h-82l112 140h108zM800 553q85 -88 85 -221q0 -153 -106 -248.5t-312 -95.5q-186 0 -294 80l-57 -44l-32 41l49 38q-84 89 -84 229q0 148 109 243t309 95q182 0 293 -82l58 44l32 -41zM143 332q0 -106 63 -173l481 372q-84 57 -220 57
q-155 0 -239.5 -71.5t-84.5 -184.5zM467 70q160 0 242 72t82 190q0 98 -63 165l-481 -372q83 -55 220 -55z" />
    <glyph glyph-name="oslashacute" unicode="&#x1ff;" horiz-adv-x="764" 
d="M543 695l-138 -140h-82l112 140h108zM643 418q72 -69 72 -172q0 -107 -83 -181.5t-250 -74.5q-135 0 -221 53l-51 -39l-33 40l42 32q-70 67 -70 170q0 107 84 182.5t249 75.5q132 0 218 -53l51 39l35 -39zM137 246q0 -70 49 -118l345 269q-60 29 -149 29
q-125 0 -185 -51.5t-60 -128.5zM382 68q126 0 185.5 50.5t59.5 127.5q0 73 -51 120l-345 -268q58 -30 151 -30z" />
    <glyph glyph-name="uni0200" unicode="&#x200;" horiz-adv-x="968" 
d="M448 719h-80l-118 140h99zM650 719h-79l-119 140h100zM826 0l-94 156h-504l-94 -156h-103l400 658h106l400 -658h-111zM272 230h416l-207 344h-2z" />
    <glyph glyph-name="uni0201" unicode="&#x201;" horiz-adv-x="723" 
d="M246 555l-118 140h99l99 -140h-80zM449 555l-119 140h100l98 -140h-79zM308 -9q-126 0 -190 43.5t-64 110.5q0 39 17 66t48.5 40t66.5 18.5t81 5.5h314v13q0 142 -222 142q-204 0 -204 -95q0 -6 1 -13h-84q-1 9 -1 17q0 76 73.5 120.5t214.5 44.5q151 0 230.5 -60.5
t79.5 -164.5v-279h-88q4 43 6 127h-1q-36 -136 -278 -136zM313 65q132 0 200 42t68 102v2h-303q-74 0 -107 -12t-33 -52q0 -82 175 -82z" />
    <glyph glyph-name="uni0202" unicode="&#x202;" horiz-adv-x="968" 
d="M384 736v-7h-72v14q0 46 42 86.5t130 40.5t130 -40.5t42 -86.5v-14h-72v7q0 30 -23.5 52t-76.5 22t-76.5 -22t-23.5 -52zM826 0l-94 156h-504l-94 -156h-103l400 658h106l400 -658h-111zM272 230h416l-207 344h-2z" />
    <glyph glyph-name="uni0203" unicode="&#x203;" horiz-adv-x="723" 
d="M190 565v14q0 46 42 86.5t130 40.5t130 -40.5t42 -86.5v-14h-72v7q0 30 -23.5 52t-76.5 22t-76.5 -22t-23.5 -52v-7h-72zM308 -9q-126 0 -190 43.5t-64 110.5q0 39 17 66t48.5 40t66.5 18.5t81 5.5h314v13q0 142 -222 142q-204 0 -204 -95q0 -6 1 -13h-84q-1 9 -1 17
q0 76 73.5 120.5t214.5 44.5q151 0 230.5 -60.5t79.5 -164.5v-279h-88q4 43 6 127h-1q-36 -136 -278 -136zM313 65q132 0 200 42t68 102v2h-303q-74 0 -107 -12t-33 -52q0 -82 175 -82z" />
    <glyph glyph-name="uni0204" unicode="&#x204;" horiz-adv-x="731" 
d="M267 719l-118 140h99l99 -140h-80zM470 719l-119 140h100l98 -140h-79zM75 0v658h602v-82h-508v-208h408v-74h-408v-212h518v-82h-612z" />
    <glyph glyph-name="uni0205" unicode="&#x205;" horiz-adv-x="725" 
d="M331 555h-80l-118 140h99zM533 555h-79l-119 140h100zM676 261v-38h-538q13 -159 239 -159q104 0 155 27.5t60 68.5h84q-7 -69 -82 -119.5t-217 -50.5q-91 0 -158 22t-102.5 60t-51.5 80.5t-16 90.5q0 119 86.5 190t236.5 71t227 -64.5t77 -178.5zM592 287v3
q0 65 -55 102.5t-164 37.5q-206 0 -232 -143h451z" />
    <glyph glyph-name="uni0206" unicode="&#x206;" horiz-adv-x="731" 
d="M211 729v14q0 46 42 86.5t130 40.5t130 -40.5t42 -86.5v-14h-72v7q0 30 -23.5 52t-76.5 22t-76.5 -22t-23.5 -52v-7h-72zM75 0v658h602v-82h-508v-208h408v-74h-408v-212h518v-82h-612z" />
    <glyph glyph-name="uni0207" unicode="&#x207;" horiz-adv-x="725" 
d="M267 572v-7h-72v14q0 46 42 86.5t130 40.5t130 -40.5t42 -86.5v-14h-72v7q0 30 -23.5 52t-76.5 22t-76.5 -22t-23.5 -52zM676 261v-38h-538q13 -159 239 -159q104 0 155 27.5t60 68.5h84q-7 -69 -82 -119.5t-217 -50.5q-91 0 -158 22t-102.5 60t-51.5 80.5t-16 90.5
q0 119 86.5 190t236.5 71t227 -64.5t77 -178.5zM592 287v3q0 65 -55 102.5t-164 37.5q-206 0 -232 -143h451z" />
    <glyph glyph-name="uni0208" unicode="&#x208;" horiz-adv-x="250" 
d="M9 719l-118 140h99l99 -140h-80zM212 719l-119 140h100l98 -140h-79zM78 0v658h94v-658h-94z" />
    <glyph glyph-name="uni0209" unicode="&#x209;" horiz-adv-x="222" 
d="M-5 555l-118 140h99l99 -140h-80zM198 555l-119 140h100l98 -140h-79zM67 0v494h88v-494h-88z" />
    <glyph glyph-name="uni020A" unicode="&#x20a;" horiz-adv-x="250" 
d="M-47 729v14q0 46 42 86.5t130 40.5t130 -40.5t42 -86.5v-14h-72v7q0 30 -23.5 52t-76.5 22t-76.5 -22t-23.5 -52v-7h-72zM78 0v658h94v-658h-94z" />
    <glyph glyph-name="uni020B" unicode="&#x20b;" horiz-adv-x="222" 
d="M-61 565v14q0 46 42 86.5t130 40.5t130 -40.5t42 -86.5v-14h-72v7q0 30 -23.5 52t-76.5 22t-76.5 -22t-23.5 -52v-7h-72zM67 0v494h88v-494h-88z" />
    <glyph glyph-name="uni020C" unicode="&#x20c;" horiz-adv-x="934" 
d="M351 719l-118 140h99l99 -140h-80zM554 719l-119 140h100l98 -140h-79zM467 -12q-203 0 -310.5 93t-107.5 251q0 148 109 243t309 95t309 -95t109 -243q0 -153 -106 -248.5t-312 -95.5zM467 70q160 0 242 72t82 190q0 113 -84.5 184.5t-239.5 71.5t-239.5 -71.5
t-84.5 -184.5q0 -121 83 -191.5t241 -70.5z" />
    <glyph glyph-name="uni020D" unicode="&#x20d;" horiz-adv-x="764" 
d="M266 555l-118 140h99l99 -140h-80zM469 555l-119 140h100l98 -140h-79zM382 -10q-167 0 -250 74.5t-83 181.5t84 182.5t249 75.5t249 -75.5t84 -182.5t-83 -181.5t-250 -74.5zM382 68q126 0 185.5 50.5t59.5 127.5t-60 128.5t-185 51.5t-185 -51.5t-60 -128.5
q0 -76 60 -127t185 -51z" />
    <glyph glyph-name="uni020E" unicode="&#x20e;" horiz-adv-x="934" 
d="M295 729v14q0 46 42 86.5t130 40.5t130 -40.5t42 -86.5v-14h-72v7q0 30 -23.5 52t-76.5 22t-76.5 -22t-23.5 -52v-7h-72zM467 -12q-203 0 -310.5 93t-107.5 251q0 148 109 243t309 95t309 -95t109 -243q0 -153 -106 -248.5t-312 -95.5zM467 70q160 0 242 72t82 190
q0 113 -84.5 184.5t-239.5 71.5t-239.5 -71.5t-84.5 -184.5q0 -121 83 -191.5t241 -70.5z" />
    <glyph glyph-name="uni020F" unicode="&#x20f;" horiz-adv-x="764" 
d="M210 565v14q0 46 42 86.5t130 40.5t130 -40.5t42 -86.5v-14h-72v7q0 30 -23.5 52t-76.5 22t-76.5 -22t-23.5 -52v-7h-72zM382 -10q-167 0 -250 74.5t-83 181.5t84 182.5t249 75.5t249 -75.5t84 -182.5t-83 -181.5t-250 -74.5zM382 68q126 0 185.5 50.5t59.5 127.5
t-60 128.5t-185 51.5t-185 -51.5t-60 -128.5q0 -76 60 -127t185 -51z" />
    <glyph glyph-name="uni0210" unicode="&#x210;" horiz-adv-x="849" 
d="M307 719l-118 140h99l99 -140h-80zM510 719l-119 140h100l98 -140h-79zM75 0v658h414q145 0 217.5 -50t72.5 -140q0 -58 -33.5 -99.5t-92.5 -55.5v-2q122 -23 122 -170v-141h-94v141q0 127 -151 127h-361v-268h-94zM169 342h344q88 0 133 30.5t45 84.5q0 119 -215 119
h-307v-234z" />
    <glyph glyph-name="uni0211" unicode="&#x211;" horiz-adv-x="680" 
d="M239 555l-118 140h99l99 -140h-80zM442 555l-119 140h100l98 -140h-79zM59 0v494h88l-1 -157h2q56 167 250 167q233 0 233 -240q0 -50 -2 -76h-83q0 5 0.5 23.5t0.5 27.5q0 97 -37.5 142t-127.5 45q-105 0 -170 -71.5t-65 -172.5v-182h-88z" />
    <glyph glyph-name="uni0212" unicode="&#x212;" horiz-adv-x="849" 
d="M251 729v14q0 46 42 86.5t130 40.5t130 -40.5t42 -86.5v-14h-72v7q0 30 -23.5 52t-76.5 22t-76.5 -22t-23.5 -52v-7h-72zM75 0v658h414q145 0 217.5 -50t72.5 -140q0 -58 -33.5 -99.5t-92.5 -55.5v-2q122 -23 122 -170v-141h-94v141q0 127 -151 127h-361v-268h-94z
M169 342h344q88 0 133 30.5t45 84.5q0 119 -215 119h-307v-234z" />
    <glyph glyph-name="uni0213" unicode="&#x213;" horiz-adv-x="680" 
d="M183 565v14q0 46 42 86.5t130 40.5t130 -40.5t42 -86.5v-14h-72v7q0 30 -23.5 52t-76.5 22t-76.5 -22t-23.5 -52v-7h-72zM59 0v494h88l-1 -157h2q56 167 250 167q233 0 233 -240q0 -50 -2 -76h-83q0 5 0.5 23.5t0.5 27.5q0 97 -37.5 142t-127.5 45q-105 0 -170 -71.5
t-65 -172.5v-182h-88z" />
    <glyph glyph-name="uni0214" unicode="&#x214;" horiz-adv-x="888" 
d="M331 719l-118 140h99l99 -140h-80zM534 719l-119 140h100l98 -140h-79zM445 -12q-179 0 -277 77t-98 231v362h94v-351q0 -237 281 -237q285 0 285 237v351h88v-362q0 -154 -96.5 -231t-276.5 -77z" />
    <glyph glyph-name="uni0215" unicode="&#x215;" horiz-adv-x="779" 
d="M274 555l-118 140h99l99 -140h-80zM477 555l-119 140h100l98 -140h-79zM345 -10q-144 0 -217.5 65t-73.5 164v275h88v-258q0 -81 49.5 -124.5t167.5 -43.5q116 0 194.5 60.5t78.5 163.5v202h88v-494h-88q5 100 5 162h-2q-38 -172 -290 -172z" />
    <glyph glyph-name="uni0216" unicode="&#x216;" horiz-adv-x="888" 
d="M275 729v14q0 46 42 86.5t130 40.5t130 -40.5t42 -86.5v-14h-72v7q0 30 -23.5 52t-76.5 22t-76.5 -22t-23.5 -52v-7h-72zM445 -12q-179 0 -277 77t-98 231v362h94v-351q0 -237 281 -237q285 0 285 237v351h88v-362q0 -154 -96.5 -231t-276.5 -77z" />
    <glyph glyph-name="uni0217" unicode="&#x217;" horiz-adv-x="779" 
d="M218 565v14q0 46 42 86.5t130 40.5t130 -40.5t42 -86.5v-14h-72v7q0 30 -23.5 52t-76.5 22t-76.5 -22t-23.5 -52v-7h-72zM345 -10q-144 0 -217.5 65t-73.5 164v275h88v-258q0 -81 49.5 -124.5t167.5 -43.5q116 0 194.5 60.5t78.5 163.5v202h88v-494h-88q5 100 5 162h-2
q-38 -172 -290 -172z" />
    <glyph glyph-name="Scommaaccent" unicode="&#x218;" horiz-adv-x="852" 
d="M420 -12q-362 0 -362 233h88q0 -30 10 -53.5t36.5 -47.5t84.5 -37t143 -13q87 0 145.5 10t87.5 28.5t40 39t11 48.5q0 58 -69 76q-35 10 -245 20q-196 9 -256 36q-37 17 -58.5 51t-21.5 79q0 92 92.5 152t268.5 60q106 0 178 -18t108.5 -52t50.5 -71t14 -86h-88
q0 71 -57.5 108t-205.5 37q-134 0 -200.5 -32.5t-66.5 -90.5q0 -52 57 -73q44 -16 241 -24q198 -9 256 -29q45 -16 70.5 -52.5t25.5 -84.5q0 -214 -378 -214zM340 -294v53q75 7 75 84v2h-44v119h100v-104q0 -140 -131 -154z" />
    <glyph glyph-name="scommaaccent" unicode="&#x219;" horiz-adv-x="696" 
d="M339 -10q-290 0 -290 174h84q0 -21 7.5 -37t28 -31t63.5 -23.5t107 -8.5q123 0 171.5 22t48.5 61t-40 50q-30 9 -192 13q-165 5 -224 35q-54 28 -54 97q0 74 77.5 118t212.5 44q83 0 141 -14.5t87 -41t40.5 -55.5t11.5 -66h-84q-1 33 -14.5 54t-57.5 35t-122 14
q-204 0 -204 -85q0 -35 39 -47q27 -8 198 -16q155 -6 206 -27q67 -29 67 -106q0 -30 -14 -56t-46 -50.5t-95.5 -38.5t-152.5 -14zM259 -294v53q75 7 75 84v2h-44v119h100v-104q0 -140 -131 -154z" />
    <glyph glyph-name="uni0237" unicode="&#x237;" horiz-adv-x="215" 
d="M-71 -208q-66 0 -107 13v76q48 -11 107 -11q137 0 137 156v468h88v-471q0 -100 -54 -165.5t-171 -65.5z" />
    <glyph glyph-name="gravecomb" unicode="&#x300;" horiz-adv-x="0" 
d="M-216 555l-138 140h108l112 -140h-82z" />
    <glyph glyph-name="acutecomb" unicode="&#x301;" horiz-adv-x="0" 
d="M-360 555l112 140h108l-138 -140h-82z" />
    <glyph glyph-name="uni0302" unicode="&#x302;" horiz-adv-x="0" 
d="M-433 547v74l172 82h2l172 -82v-74l-172 82h-2z" />
    <glyph glyph-name="tildecomb" unicode="&#x303;" horiz-adv-x="0" 
d="M-438 563q8 72 41 106t78 34t95 -39l13 -10q36 -27 58 -27q51 0 61 76h62q-8 -71 -41.5 -105.5t-78.5 -34.5q-20 0 -38.5 6.5t-28.5 13t-27 19.5l-13 10q-37 27 -57 27q-53 0 -62 -76h-62z" />
    <glyph glyph-name="uni0304" unicode="&#x304;" horiz-adv-x="0" 
d="M-436 610v64h352v-64h-352z" />
    <glyph glyph-name="uni0306" unicode="&#x306;" horiz-adv-x="0" 
d="M-260 554q-88 0 -130 40.5t-42 86.5v14h72v-7q0 -30 23.5 -52t76.5 -22t76.5 22t23.5 52v7h72v-14q0 -46 -42 -86.5t-130 -40.5z" />
    <glyph glyph-name="uni0307" unicode="&#x307;" horiz-adv-x="0" 
d="M-305 571v106h90v-106h-90z" />
    <glyph glyph-name="uni0308" unicode="&#x308;" horiz-adv-x="0" 
d="M-410 571v106h90v-106h-90zM-200 571v106h90v-106h-90z" />
    <glyph glyph-name="uni030A" unicode="&#x30a;" horiz-adv-x="0" 
d="M-260 539q-84 0 -130 33.5t-46 85.5t47.5 86t128.5 34q83 0 129.5 -33.5t46.5 -86.5q0 -52 -46 -85.5t-130 -33.5zM-260 597q54 0 82 16.5t28 44.5q0 29 -28.5 45.5t-81.5 16.5q-52 0 -81 -16.5t-29 -45.5q0 -28 28 -44.5t82 -16.5z" />
    <glyph glyph-name="uni030B" unicode="&#x30b;" horiz-adv-x="0" 
d="M-389 555h-79l98 140h100zM-186 555h-80l99 140h99z" />
    <glyph glyph-name="uni030C" unicode="&#x30c;" horiz-adv-x="0" 
d="M-308 555l-161 140h110l98 -94h2l98 94h110l-161 -140h-96z" />
    <glyph glyph-name="uni030F" unicode="&#x30f;" horiz-adv-x="0" 
d="M-345 555l-118 140h99l99 -140h-80zM-142 555l-119 140h100l98 -140h-79z" />
    <glyph glyph-name="uni0311" unicode="&#x311;" horiz-adv-x="0" 
d="M-344 565v14q0 46 42 86.5t130 40.5t130 -40.5t42 -86.5v-14h-72v7q0 30 -23.5 52t-76.5 22t-76.5 -22t-23.5 -52v-7h-72z" />
    <glyph glyph-name="uni0312" unicode="&#x312;" horiz-adv-x="0" 
d="M-11 813v-53q-75 -7 -75 -84v-2h44v-119h-100v104q0 140 131 154z" />
    <glyph glyph-name="uni0326" unicode="&#x326;" horiz-adv-x="0" 
d="M-244 -294v53q75 7 75 84v2h-44v119h100v-104q0 -140 -131 -154z" />
    <glyph glyph-name="uni0327" unicode="&#x327;" horiz-adv-x="0" 
d="M-257 -218q-79 0 -121 23t-48 62h76q9 -33 93 -33q99 0 99 40q0 35 -86 35q-51 0 -89 -6l51 111h61l-32 -69l1 -2q21 16 61 16q48 0 72.5 -22t24.5 -57q0 -45 -42 -71.5t-121 -26.5z" />
    <glyph glyph-name="uni0328" unicode="&#x328;" horiz-adv-x="0" 
d="M-203 -220q-56 0 -87 27.5t-31 65.5q0 39 23.5 73t68.5 54h88q-108 -54 -108 -113q0 -43 61 -43q28 0 59 9v-62q-35 -11 -74 -11z" />
    <glyph glyph-name="pi" unicode="&#x3c0;" 
d="M683 -10q-93 0 -132.5 47t-39.5 138v241h-256v-416h-88v416h-144v78h754v-78h-178v-236q0 -61 23 -86.5t83 -25.5q39 0 65 11v-76q-32 -13 -87 -13z" />
    <glyph glyph-name="Wgrave" unicode="&#x1e80;" horiz-adv-x="1353" 
d="M679 719l-138 140h108l112 -140h-82zM336 0l-310 658h104l259 -550h2l245 539h93l240 -539h2l258 550h98l-311 -658h-101l-235 525h-2l-240 -525h-102z" />
    <glyph glyph-name="wgrave" unicode="&#x1e81;" horiz-adv-x="1042" 
d="M524 555l-138 140h108l112 -140h-82zM231 0l-205 494h97l163 -407h1l197 407h84l188 -407h1l167 407h92l-206 -494h-103l-184 394h-2l-189 -394h-101z" />
    <glyph glyph-name="Wacute" unicode="&#x1e82;" horiz-adv-x="1353" 
d="M617 719l112 140h108l-138 -140h-82zM336 0l-310 658h104l259 -550h2l245 539h93l240 -539h2l258 550h98l-311 -658h-101l-235 525h-2l-240 -525h-102z" />
    <glyph glyph-name="wacute" unicode="&#x1e83;" horiz-adv-x="1042" 
d="M462 555l112 140h108l-138 -140h-82zM231 0l-205 494h97l163 -407h1l197 407h84l188 -407h1l167 407h92l-206 -494h-103l-184 394h-2l-189 -394h-101z" />
    <glyph glyph-name="Wdieresis" unicode="&#x1e84;" horiz-adv-x="1353" 
d="M526 735v106h90v-106h-90zM736 735v106h90v-106h-90zM336 0l-310 658h104l259 -550h2l245 539h93l240 -539h2l258 550h98l-311 -658h-101l-235 525h-2l-240 -525h-102z" />
    <glyph glyph-name="wdieresis" unicode="&#x1e85;" horiz-adv-x="1042" 
d="M371 571v106h90v-106h-90zM581 571v106h90v-106h-90zM231 0l-205 494h97l163 -407h1l197 407h84l188 -407h1l167 407h92l-206 -494h-103l-184 394h-2l-189 -394h-101z" />
    <glyph glyph-name="uni1E9E" unicode="&#x1e9e;" horiz-adv-x="916" 
d="M561 -12q-86 0 -175 12v81q73 -11 175 -11q119 0 165.5 27.5t46.5 90.5q0 29 -12.5 49.5t-44.5 38t-96 26t-160 7.5l226 240q-103 39 -230 39q-303 0 -303 -243v-345h-94v346q0 158 101.5 241t295.5 83q211 0 375 -87l-198 -210q132 -12 183 -60.5t51 -124.5
q0 -200 -306 -200z" />
    <glyph glyph-name="Ygrave" unicode="&#x1ef2;" horiz-adv-x="921" 
d="M464 719l-138 140h108l112 -140h-82zM413 0v272l-387 386h133l305 -307h2l303 307h126l-388 -386v-272h-94z" />
    <glyph glyph-name="ygrave" unicode="&#x1ef3;" horiz-adv-x="736" 
d="M371 555l-138 140h108l112 -140h-82zM185 -218q-50 0 -85 14v77q35 -13 85 -13t82.5 27t80.5 113h-17l-305 494h105l255 -419h2l226 419h96l-275 -503q-67 -122 -116.5 -165.5t-133.5 -43.5z" />
    <glyph glyph-name="endash" unicode="&#x2013;" 
d="M50 254v58h700v-58h-700z" />
    <glyph glyph-name="emdash" unicode="&#x2014;" horiz-adv-x="1000" 
d="M50 254v58h900v-58h-900z" />
    <glyph glyph-name="quoteleft" unicode="&#x2018;" horiz-adv-x="251" 
d="M191 652v-53q-75 -7 -75 -84v-2h44v-119h-100v104q0 140 131 154z" />
    <glyph glyph-name="quoteright" unicode="&#x2019;" horiz-adv-x="251" 
d="M60 400v53q75 7 75 84v2h-44v119h100v-104q0 -140 -131 -154z" />
    <glyph glyph-name="quotesinglbase" unicode="&#x201a;" horiz-adv-x="251" 
d="M60 -139v53q75 7 75 84v2h-44v119h100v-104q0 -140 -131 -154z" />
    <glyph glyph-name="quotedblleft" unicode="&#x201c;" horiz-adv-x="450" 
d="M191 652v-53q-75 -7 -75 -84v-2h44v-119h-100v104q0 140 131 154zM390 652v-53q-75 -7 -75 -84v-2h44v-119h-100v104q0 140 131 154z" />
    <glyph glyph-name="quotedblright" unicode="&#x201d;" horiz-adv-x="450" 
d="M60 400v53q75 7 75 84v2h-44v119h100v-104q0 -140 -131 -154zM259 400v53q75 7 75 84v2h-44v119h100v-104q0 -140 -131 -154z" />
    <glyph glyph-name="quotedblbase" unicode="&#x201e;" horiz-adv-x="450" 
d="M60 -139v53q75 7 75 84v2h-44v119h100v-104q0 -140 -131 -154zM259 -139v53q75 7 75 84v2h-44v119h100v-104q0 -140 -131 -154z" />
    <glyph glyph-name="dagger" unicode="&#x2020;" 
d="M370 -40l-15 276l10 171h-2l-115 -13h-115v74h115l112 -14h5v15l-8 142v61h86v-61l-8 -142v-15h5l112 14h115v-74h-115l-115 13h-2l10 -171l-15 -276h-60z" />
    <glyph glyph-name="daggerdbl" unicode="&#x2021;" 
d="M357 -40v61l8 113v14h-5l-112 -13h-115v74h115l115 -13h2l-10 120l10 120h-2l-115 -13h-115v74h115l112 -13h5v14l-8 113v61h86v-61l-8 -113v-14h5l112 13h115v-74h-115l-115 13h-2l10 -120l-10 -120h2l115 13h115v-74h-115l-112 13h-5v-14l8 -113v-61h-86z" />
    <glyph glyph-name="bullet" unicode="&#x2022;" horiz-adv-x="444" 
d="M222 220q-32 0 -55 23.5t-23 65.5t23 65.5t55 23.5t55 -23.5t23 -65.5t-23 -65.5t-55 -23.5z" />
    <glyph glyph-name="ellipsis" unicode="&#x2026;" horiz-adv-x="1002" 
d="M117 0v119h100v-119h-100zM451 0v119h100v-119h-100zM785 0v119h100v-119h-100z" />
    <glyph glyph-name="perthousand" unicode="&#x2030;" horiz-adv-x="1242" 
d="M221 375q-82 0 -131 40t-49 107q0 60 49.5 103t130.5 43q80 0 130 -43t50 -103q0 -67 -49 -107t-131 -40zM42 0l643 658h73l-643 -658h-73zM221 429q55 0 86.5 24t31.5 69q0 40 -33 66t-85 26q-53 0 -85.5 -26t-32.5 -66q0 -45 31.5 -69t86.5 -24zM579 -10q-82 0 -131 40
t-49 107q0 60 49.5 103t130.5 43q80 0 130 -43t50 -103q0 -67 -49 -107t-131 -40zM1021 -10q-82 0 -131 40t-49 107q0 60 49.5 103t130.5 43q80 0 130 -43t50 -103q0 -67 -49 -107t-131 -40zM579 44q55 0 86.5 24t31.5 69q0 40 -33 66t-85 26q-53 0 -85.5 -26t-32.5 -66
q0 -45 31.5 -69t86.5 -24zM1021 44q55 0 86.5 24t31.5 69q0 40 -33 66t-85 26q-53 0 -85.5 -26t-32.5 -66q0 -45 31.5 -69t86.5 -24z" />
    <glyph glyph-name="guilsinglleft" unicode="&#x2039;" horiz-adv-x="480" 
d="M287 53l-191 227l191 227h87l-193 -227l193 -227h-87z" />
    <glyph glyph-name="guilsinglright" unicode="&#x203a;" horiz-adv-x="480" 
d="M106 53l192 227l-192 227h87l191 -227l-191 -227h-87z" />
    <glyph glyph-name="fraction" unicode="&#x2044;" horiz-adv-x="133" 
d="M-115 -45l-45 26l408 721l45 -26z" />
    <glyph glyph-name="franc" unicode="&#x20a3;" 
d="M671 541h-444v-161h374v-66h-374v-120h205v-52h-205v-103h-88v103h-106v52h106v425h532v-78z" />
    <glyph glyph-name="peseta" unicode="&#x20a7;" 
d="M790 393v-52h-89q-10 -97 -80 -145.5t-210 -48.5h-203v-108h-88v302h-110v52h110v226h265q89 0 153.5 -20.5t98 -55.5t48.5 -71.5t18 -78.5h87zM208 541v-148h412q-12 148 -236 148h-176zM400 213q106 0 158 30.5t61 97.5h-411v-128h192z" />
    <glyph glyph-name="uni20AA" unicode="&#x20aa;" 
d="M69 39v494h339q125 0 125 -114v-240h-66v224q0 40 -17.5 55t-65.5 15h-249v-434h-66zM267 39v354h66v-294h248q48 0 66 17t18 59v358h66v-368q0 -58 -30 -92t-94 -34h-340z" />
    <glyph glyph-name="Euro" unicode="&#x20ac;" 
d="M529 551q-112 0 -186 -35t-104 -100h417l-21 -52h-413q-3 -20 -3 -42q0 -19 1 -28h386l-21 -52h-353q50 -135 281 -135q112 0 175 29v-78q-71 -29 -190 -29q-146 0 -239 55.5t-119 157.5h-100l22 52h70q-1 8 -1 26q0 23 3 44h-96l22 52h86q34 99 134 156t252 57
q116 0 197 -33l-30 -74q-74 29 -170 29z" />
    <glyph glyph-name="lira.turk" unicode="&#x20ba;" 
d="M721 327q1 -10 1 -20q0 -268 -372 -268h-162v256l-148 -33v54l148 33v78l-148 -33v53l148 33v139h88v-119l260 58v-53l-260 -58v-78l260 58v-54l-260 -58v-198h79q153 0 218 45.5t65 146.5q0 7 -1 18h84z" />
    <glyph glyph-name="uni20BD" unicode="&#x20bd;" 
d="M458 246h-243v-62h361v-52h-361v-93h-88v93h-78v52h78v62h-78v52h78v321h282q299 0 299 -197q0 -82 -56.5 -129t-193.5 -47zM215 541v-243h230q99 0 141 30t42 87q0 58 -47.5 92t-171.5 34h-194z" />
    <glyph glyph-name="uni2113" unicode="&#x2113;" 
d="M334 152q38 -84 146 -84q64 0 119 22v-77q-41 -23 -119 -23q-174 0 -230 138q-72 -16 -160 -19v67q79 5 141 19q-8 37 -8 93v159q0 139 42.5 210t154.5 71q184 0 184 -232q0 -117 -71 -206.5t-199 -137.5zM311 288q0 -40 4 -68q102 40 156.5 110t54.5 166q0 154 -106 154
q-67 0 -88 -47.5t-21 -152.5v-162z" />
    <glyph glyph-name="uni2116" unicode="&#x2116;" horiz-adv-x="1431" 
d="M75 0v658h139l534 -532h2v532h90v-658h-93l-581 579h-1v-579h-90zM1173 300q-110 0 -162.5 44t-52.5 110t53 110t162 44t162 -44t53 -110t-52.5 -110t-162.5 -44zM1173 360q75 0 111 26t36 68q0 41 -36.5 67.5t-110.5 26.5q-75 0 -111 -26t-36 -68t36 -68t111 -26z
M959 169v54h428v-54h-428z" />
    <glyph glyph-name="trademark" unicode="&#x2122;" horiz-adv-x="940" 
d="M182 318v286h-137v54h337v-54h-138v-286h-62zM450 318v340h101l93 -191h2l93 191h101v-340h-62v277l-7 1l-116 -236h-20l-116 236l-7 -1v-277h-62z" />
    <glyph glyph-name="uni2126" unicode="&#x2126;" horiz-adv-x="914" 
d="M49 0v82h248v3q-43 5 -81 19.5t-75 43t-59 80.5t-22 122q0 56 23 110.5t69 102.5t125 77.5t180 29.5t180 -29.5t125 -77.5t69 -102.5t23 -110.5q0 -70 -22 -122t-59 -80.5t-75 -43t-81 -19.5v-3h248v-82h-331v105q36 6 72.5 22.5t72.5 44t58.5 72.5t22.5 100
q0 101 -76.5 172.5t-226.5 71.5t-226.5 -71.5t-76.5 -172.5q0 -55 23 -100t59 -72.5t72.5 -44t71.5 -22.5v-105h-331z" />
    <glyph glyph-name="estimated" unicode="&#x212e;" horiz-adv-x="855" 
d="M428 -14q-159 0 -271 100t-112 243q0 142 112.5 242.5t270.5 100.5t270 -100.5t112 -242.5v-22h-619q-5 0 -5 -4v-153q0 -12 8 -22q94 -100 235 -100q132 0 226 91h76q-52 -62 -132 -97.5t-171 -35.5zM191 349h475q5 0 5 5v157q0 13 -10 23q-96 96 -232 96
q-138 0 -234 -99q-9 -11 -9 -24v-153q0 -5 5 -5z" />
    <glyph glyph-name="uni2153" unicode="&#x2153;" horiz-adv-x="989" 
d="M201 -45l-45 26l408 721l45 -26zM145 264v233h-118v54h66q43 0 54 17.5t12 89.5h58v-394h-72zM712 -6q-119 0 -169.5 38.5t-50.5 91.5q0 14 2 26h65q-1 -9 -1 -18q0 -76 154 -76q85 0 124 20t39 52q0 49 -97 49h-98v52h80q92 0 92 52q0 25 -34.5 41t-100.5 16
q-145 0 -145 -74q0 -10 1 -18h-65q-2 13 -2 26q0 53 50.5 90.5t164.5 37.5q97 0 148 -31t51 -81q0 -28 -17.5 -48t-52.5 -26v-2q47 -4 72 -28t25 -59q0 -59 -57.5 -95t-177.5 -36z" />
    <glyph glyph-name="uni2154" unicode="&#x2154;" horiz-adv-x="1199" 
d="M411 -45l-45 26l408 721l45 -26zM39 264q0 37 4 56.5t22 40.5t54.5 36.5t100.5 34.5q77 23 110 38t41 27t8 37q0 30 -31.5 49t-96.5 19q-142 0 -142 -91q0 -21 5 -41h-66q-5 20 -5 45q0 64 53.5 106.5t157.5 42.5q101 0 149 -38t48 -90q0 -38 -12 -59.5t-55 -44
t-131 -47.5q-60 -17 -90 -29.5t-34.5 -17.5t-4.5 -12h337v-62h-422zM922 -6q-119 0 -169.5 38.5t-50.5 91.5q0 14 2 26h65q-1 -9 -1 -18q0 -76 154 -76q85 0 124 20t39 52q0 49 -97 49h-98v52h80q92 0 92 52q0 25 -34.5 41t-100.5 16q-145 0 -145 -74q0 -10 1 -18h-65
q-2 13 -2 26q0 53 50.5 90.5t164.5 37.5q97 0 148 -31t51 -81q0 -28 -17.5 -48t-52.5 -26v-2q47 -4 72 -28t25 -59q0 -59 -57.5 -95t-177.5 -36z" />
    <glyph glyph-name="oneeighth" unicode="&#x215b;" horiz-adv-x="989" 
d="M201 -45l-45 26l408 721l45 -26zM145 264v233h-118v54h66q43 0 54 17.5t12 89.5h58v-394h-72zM719 -6q-117 0 -172.5 33t-55.5 83q0 34 26.5 60.5t84.5 34.5v1q-83 17 -83 85q0 45 48 77t152 32t152 -32t48 -77q0 -68 -82 -85v-1q58 -8 84 -34.5t26 -60.5
q0 -50 -55.5 -83t-172.5 -33zM719 228q137 0 137 57q0 25 -34 41t-103 16t-102.5 -16t-33.5 -41q0 -57 136 -57zM719 52q156 0 156 63q0 61 -156 61t-156 -61q0 -63 156 -63z" />
    <glyph glyph-name="threeeighths" unicode="&#x215c;" horiz-adv-x="1213" 
d="M425 -45l-45 26l408 721l45 -26zM263 258q-119 0 -169.5 38.5t-50.5 91.5q0 14 2 26h65q-1 -9 -1 -18q0 -76 154 -76q85 0 124 20t39 52q0 49 -97 49h-98v52h80q92 0 92 52q0 25 -34.5 41t-100.5 16q-145 0 -145 -74q0 -10 1 -18h-65q-2 13 -2 26q0 53 50.5 90.5
t164.5 37.5q97 0 148 -31t51 -81q0 -28 -17.5 -48t-52.5 -26v-2q47 -4 72 -28t25 -59q0 -59 -57.5 -95t-177.5 -36zM943 -6q-117 0 -172.5 33t-55.5 83q0 34 26.5 60.5t84.5 34.5v1q-83 17 -83 85q0 45 48 77t152 32t152 -32t48 -77q0 -68 -82 -85v-1q58 -8 84 -34.5
t26 -60.5q0 -50 -55.5 -83t-172.5 -33zM943 228q137 0 137 57q0 25 -34 41t-103 16t-102.5 -16t-33.5 -41q0 -57 136 -57zM943 52q156 0 156 63q0 61 -156 61t-156 -61q0 -63 156 -63z" />
    <glyph glyph-name="fiveeighths" unicode="&#x215d;" horiz-adv-x="1197" 
d="M409 -45l-45 26l408 721l45 -26zM270 258q-126 0 -176.5 33.5t-50.5 79.5v10h70v-5q0 -56 155 -56q72 0 106 22t34 56q0 72 -136 72q-116 0 -153 -43l-65 6l21 225h362v-62h-303l-13 -126h2q23 28 59.5 41t98.5 13q101 0 150 -34.5t49 -93.5q0 -60 -50 -99t-160 -39z
M927 -6q-117 0 -172.5 33t-55.5 83q0 34 26.5 60.5t84.5 34.5v1q-83 17 -83 85q0 45 48 77t152 32t152 -32t48 -77q0 -68 -82 -85v-1q58 -8 84 -34.5t26 -60.5q0 -50 -55.5 -83t-172.5 -33zM927 228q137 0 137 57q0 25 -34 41t-103 16t-102.5 -16t-33.5 -41q0 -57 136 -57z
M927 52q156 0 156 63q0 61 -156 61t-156 -61q0 -63 156 -63z" />
    <glyph glyph-name="seveneighths" unicode="&#x215e;" horiz-adv-x="1090" 
d="M302 -45l-45 26l408 721l45 -26zM115 264q37 118 111 203t159 128v1h-356v62h448v-55q-129 -77 -185 -151.5t-91 -187.5h-86zM820 -6q-117 0 -172.5 33t-55.5 83q0 34 26.5 60.5t84.5 34.5v1q-83 17 -83 85q0 45 48 77t152 32t152 -32t48 -77q0 -68 -82 -85v-1
q58 -8 84 -34.5t26 -60.5q0 -50 -55.5 -83t-172.5 -33zM820 228q137 0 137 57q0 25 -34 41t-103 16t-102.5 -16t-33.5 -41q0 -57 136 -57zM820 52q156 0 156 63q0 61 -156 61t-156 -61q0 -63 156 -63z" />
    <glyph glyph-name="partialdiff" unicode="&#x2202;" 
d="M172 710q146 -6 257.5 -44t176 -98t96 -131t31.5 -150q0 -59 -20 -111.5t-59 -94.5t-104.5 -66.5t-149.5 -24.5q-163 0 -248 75t-85 181q0 118 91 188t227 70q167 0 238 -102q-39 103 -153.5 162t-315.5 79zM400 68q120 0 182.5 58.5t62.5 145.5v11q-19 60 -86 101.5
t-174 41.5q-98 0 -164 -49t-66 -131q0 -74 62.5 -126t182.5 -52z" />
    <glyph glyph-name="uni2206" unicode="&#x2206;" horiz-adv-x="972" 
d="M52 0l383 658h101l384 -658h-868zM202 82h561l-281 483h-2z" />
    <glyph glyph-name="product" unicode="&#x220f;" horiz-adv-x="924" 
d="M195 -112v688h-154v82h842v-82h-154v-688h-94v688h-346v-688h-94z" />
    <glyph glyph-name="summation" unicode="&#x2211;" 
d="M65 -112v70l362 318v1l-362 312v69h668v-82h-506v-2l339 -292v-1l-353 -310v-1h526v-82h-674z" />
    <glyph glyph-name="minus" unicode="&#x2212;" 
d="M93 254v58h614v-58h-614z" />
    <glyph glyph-name="radical" unicode="&#x221a;" 
d="M390 -98l-157 406h-182v58h233l147 -382h2l268 766h72l-299 -848h-84z" />
    <glyph glyph-name="infinity" unicode="&#x221e;" 
d="M208 48q-75 0 -116 61t-41 178t41 178t116 61q85 0 147 -111l43 -76h2l44 76q63 111 148 111q75 0 116 -61t41 -178t-41 -178t-116 -61q-84 0 -149 113l-43 73h-2l-43 -73q-65 -113 -147 -113zM210 110q20 0 40 15t31 30.5t27 43.5l52 88l-52 90q-15 26 -26.5 42
t-31 30.5t-40.5 14.5q-93 0 -93 -177t93 -177zM590 110q93 0 93 177t-93 177q-32 0 -54 -22.5t-46 -64.5l-52 -90l52 -88q17 -28 27.5 -43.5t31 -30.5t41.5 -15z" />
    <glyph glyph-name="integral" unicode="&#x222b;" 
d="M237 -240q-70 0 -135 15v65q64 -16 125 -16q170 0 170 130q0 57 -14 149l-42 304q-14 108 -14 159q0 95 63 144.5t173 49.5q68 0 135 -12v-63q-70 12 -126 12q-169 0 -169 -131q0 -47 13 -155l42 -303q14 -96 14 -154q0 -95 -63 -144.5t-172 -49.5z" />
    <glyph glyph-name="approxequal" unicode="&#x2248;" 
d="M549 303q-39 0 -90.5 25t-107 50t-105.5 25q-52 0 -103 -21.5t-81 -48.5v60q30 26 81 47t103 21q51 0 107 -25t107 -50t89 -25q79 0 189 69v-59q-109 -68 -189 -68zM549 117q-39 0 -90.5 25t-107 50t-105.5 25q-52 0 -103 -21.5t-81 -48.5v60q30 26 81 47t103 21
q51 0 107 -25t107 -50t89 -25q79 0 189 69v-60q-107 -67 -189 -67z" />
    <glyph glyph-name="notequal" unicode="&#x2260;" 
d="M248 20l65 136h-220v58h248l61 128h-309v58h337l67 140h49l-67 -140h228v-58h-256l-61 -128h317v-58h-345l-65 -136h-49z" />
    <glyph glyph-name="lessequal" unicode="&#x2264;" 
d="M661 164l-522 192v48l522 192v-67l-423 -148v-2l423 -148v-67zM139 46v58h522v-58h-522z" />
    <glyph glyph-name="greaterequal" unicode="&#x2265;" 
d="M139 164v67l423 148v2l-423 148v67l522 -192v-48zM139 46v58h522v-58h-522z" />
    <glyph glyph-name="lozenge" unicode="&#x25ca;" 
d="M366 -54l-298 322l298 322h67l300 -322l-300 -322h-67zM399 11h2l238 257l-238 258h-2l-238 -258z" />
    <glyph glyph-name="dollar.ss06" 
d="M741 220q0 -182 -318 -191v-102h-44v102q-80 1 -139.5 15.5t-92 34t-52.5 47t-25.5 49.5t-5.5 47h86q0 -21 7.5 -37t29 -35t70.5 -30.5t122 -12.5v188h-3q-184 6 -242 34q-67 33 -67 115q0 74 77 128t235 57v102h44v-102q69 -2 121 -14.5t83.5 -30.5t50.5 -44t25.5 -52
t6.5 -58h-84q-1 38 -14.5 61.5t-59.5 40.5t-129 19v-184q181 -7 229 -22q89 -28 89 -125zM200 386q37 -13 179 -17v182q-224 -3 -224 -104q0 -46 45 -61zM423 107q91 2 144 18t69.5 37.5t16.5 52.5q0 52 -58 65q-44 10 -172 14v-187z" />
    <glyph glyph-name="uni00A40301" horiz-adv-x="776" 
d="M580 719l112 140h108l-138 -140h-82zM378 -12q-152 0 -233 70.5t-81 194.5q0 33 3 90h88q-3 -60 -3 -90q0 -88 57 -135.5t169 -47.5q108 0 171 57t63 177v354h94v-350q0 -160 -87 -240t-241 -80z" />
    <glyph glyph-name="uni006A0301" horiz-adv-x="215" 
d="M52 555l112 140h108l-138 -140h-82zM-71 -208q-66 0 -107 13v76q48 -11 107 -11q137 0 137 156v468h88v-471q0 -100 -54 -165.5t-171 -65.5z" />
    <glyph glyph-name="germandbls.calt" horiz-adv-x="916" 
d="M561 -12q-86 0 -175 12v81q73 -11 175 -11q119 0 165.5 27.5t46.5 90.5q0 29 -12.5 49.5t-44.5 38t-96 26t-160 7.5l226 240q-103 39 -230 39q-303 0 -303 -243v-345h-94v346q0 158 101.5 241t295.5 83q211 0 375 -87l-198 -210q132 -12 183 -60.5t51 -124.5
q0 -200 -306 -200z" />
    <glyph glyph-name="r.ss01" horiz-adv-x="566" 
d="M517 406q-58 20 -121 20q-117 0 -183 -74t-66 -190v-162h-88v494h88l-1 -177h2q27 94 86 140.5t165 46.5q67 0 118 -17v-81z" />
    <glyph glyph-name="racute.ss01" horiz-adv-x="566" 
d="M231 555l112 140h108l-138 -140h-82zM517 406q-58 20 -121 20q-117 0 -183 -74t-66 -190v-162h-88v494h88l-1 -177h2q27 94 86 140.5t165 46.5q67 0 118 -17v-81z" />
    <glyph glyph-name="rcaron.ss01" horiz-adv-x="566" 
d="M242 555l-161 140h110l98 -94h2l98 94h110l-161 -140h-96zM517 406q-58 20 -121 20q-117 0 -183 -74t-66 -190v-162h-88v494h88l-1 -177h2q27 94 86 140.5t165 46.5q67 0 118 -17v-81z" />
    <glyph glyph-name="rcommaaccent.ss01" horiz-adv-x="566" 
d="M517 406q-58 20 -121 20q-117 0 -183 -74t-66 -190v-162h-88v494h88l-1 -177h2q27 94 86 140.5t165 46.5q67 0 118 -17v-81zM27 -294v53q75 7 75 84v2h-44v119h100v-104q0 -140 -131 -154z" />
    <glyph glyph-name="uni0211.ss01" horiz-adv-x="566" 
d="M174 555l-118 140h99l99 -140h-80zM377 555l-119 140h100l98 -140h-79zM517 406q-58 20 -121 20q-117 0 -183 -74t-66 -190v-162h-88v494h88l-1 -177h2q27 94 86 140.5t165 46.5q67 0 118 -17v-81z" />
    <glyph glyph-name="uni0213.ss01" horiz-adv-x="566" 
d="M118 565v14q0 46 42 86.5t130 40.5t130 -40.5t42 -86.5v-14h-72v7q0 30 -23.5 52t-76.5 22t-76.5 -22t-23.5 -52v-7h-72zM517 406q-58 20 -121 20q-117 0 -183 -74t-66 -190v-162h-88v494h88l-1 -177h2q27 94 86 140.5t165 46.5q67 0 118 -17v-81z" />
    <glyph glyph-name="g.ss02" horiz-adv-x="788" 
d="M49 247q0 111 88 184t241 73q109 0 176 -33.5t82 -91.5h1v115h88v-463q0 -85 -48 -143t-122 -82t-169 -24q-145 0 -226 42.5t-81 114.5q0 10 1 20h84q-1 -8 -1 -14q0 -41 56.5 -65t163.5 -24q121 0 187.5 39.5t66.5 135.5v102h-2q-15 -67 -83 -105t-182 -38
q-147 0 -234 69.5t-87 187.5zM137 247q0 -85 63.5 -132t175.5 -47q119 0 190 59t71 122v13q0 70 -69 117t-190 47q-117 0 -179 -50.5t-62 -128.5z" />
    <glyph glyph-name="gbreve.ss02" horiz-adv-x="788" 
d="M382 554q-88 0 -130 40.5t-42 86.5v14h72v-7q0 -30 23.5 -52t76.5 -22t76.5 22t23.5 52v7h72v-14q0 -46 -42 -86.5t-130 -40.5zM49 247q0 111 88 184t241 73q109 0 176 -33.5t82 -91.5h1v115h88v-463q0 -85 -48 -143t-122 -82t-169 -24q-145 0 -226 42.5t-81 114.5
q0 10 1 20h84q-1 -8 -1 -14q0 -41 56.5 -65t163.5 -24q121 0 187.5 39.5t66.5 135.5v102h-2q-15 -67 -83 -105t-182 -38q-147 0 -234 69.5t-87 187.5zM137 247q0 -85 63.5 -132t175.5 -47q119 0 190 59t71 122v13q0 70 -69 117t-190 47q-117 0 -179 -50.5t-62 -128.5z" />
    <glyph glyph-name="gcircumflex.ss02" horiz-adv-x="788" 
d="M209 547v74l172 82h2l172 -82v-74l-172 82h-2zM49 247q0 111 88 184t241 73q109 0 176 -33.5t82 -91.5h1v115h88v-463q0 -85 -48 -143t-122 -82t-169 -24q-145 0 -226 42.5t-81 114.5q0 10 1 20h84q-1 -8 -1 -14q0 -41 56.5 -65t163.5 -24q121 0 187.5 39.5t66.5 135.5
v102h-2q-15 -67 -83 -105t-182 -38q-147 0 -234 69.5t-87 187.5zM137 247q0 -85 63.5 -132t175.5 -47q119 0 190 59t71 122v13q0 70 -69 117t-190 47q-117 0 -179 -50.5t-62 -128.5z" />
    <glyph glyph-name="gcommaaccent.ss02" horiz-adv-x="788" 
d="M461 813v-53q-75 -7 -75 -84v-2h44v-119h-100v104q0 140 131 154zM49 247q0 111 88 184t241 73q109 0 176 -33.5t82 -91.5h1v115h88v-463q0 -85 -48 -143t-122 -82t-169 -24q-145 0 -226 42.5t-81 114.5q0 10 1 20h84q-1 -8 -1 -14q0 -41 56.5 -65t163.5 -24
q121 0 187.5 39.5t66.5 135.5v102h-2q-15 -67 -83 -105t-182 -38q-147 0 -234 69.5t-87 187.5zM137 247q0 -85 63.5 -132t175.5 -47q119 0 190 59t71 122v13q0 70 -69 117t-190 47q-117 0 -179 -50.5t-62 -128.5z" />
    <glyph glyph-name="gdotaccent.ss02" horiz-adv-x="788" 
d="M337 571v106h90v-106h-90zM49 247q0 111 88 184t241 73q109 0 176 -33.5t82 -91.5h1v115h88v-463q0 -85 -48 -143t-122 -82t-169 -24q-145 0 -226 42.5t-81 114.5q0 10 1 20h84q-1 -8 -1 -14q0 -41 56.5 -65t163.5 -24q121 0 187.5 39.5t66.5 135.5v102h-2
q-15 -67 -83 -105t-182 -38q-147 0 -234 69.5t-87 187.5zM137 247q0 -85 63.5 -132t175.5 -47q119 0 190 59t71 122v13q0 70 -69 117t-190 47q-117 0 -179 -50.5t-62 -128.5z" />
    <glyph glyph-name="g.ss03" horiz-adv-x="759" 
d="M525 75q106 0 150.5 -35.5t44.5 -88.5q0 -75 -77 -122t-255 -47q-347 0 -347 154q0 44 35 71t95 25l1 1q-42 33 -42 82q0 60 34 82v1q-89 44 -89 136q0 74 69.5 122t206.5 48q39 0 81 -5q106 -6 181 -6q48 0 74 2v-72q-14 -2 -31 -2q-40 0 -64 11l-1 -2q37 -40 37 -96
q0 -75 -70.5 -122.5t-206.5 -47.5q-73 0 -132 14q-15 -18 -15 -44t20 -42.5t61 -16.5h240zM351 430q-95 0 -143.5 -27t-48.5 -69q0 -96 192 -96q95 0 144 26.5t49 69.5q0 45 -49.5 70.5t-143.5 25.5zM388 -144q134 0 189 21.5t55 65.5q0 28 -29 43t-104 15h-209
q-89 0 -125 -16t-36 -50q0 -79 259 -79z" />
    <glyph glyph-name="g.ss04" horiz-adv-x="759" 
d="M525 75q106 0 150.5 -35.5t44.5 -88.5q0 -75 -77 -122t-255 -47q-347 0 -347 154q0 44 35 71t95 25l1 1q-42 33 -42 82q0 60 34 82v1q-89 44 -89 136q0 74 69.5 122t206.5 48q89 0 150 -21q40 -6 57 -6q77 0 77 49q0 20 -7 39h85q6 -22 6 -49q0 -44 -22.5 -68.5
t-61.5 -24.5q-26 0 -42 8l-1 -2q36 -41 36 -95q0 -75 -70.5 -122.5t-206.5 -47.5q-73 0 -132 14q-15 -18 -15 -44t20 -42.5t61 -16.5h240zM351 430q-95 0 -143.5 -27t-48.5 -69q0 -96 192 -96q95 0 144 26.5t49 69.5q0 45 -49.5 70.5t-143.5 25.5zM388 -144q134 0 189 21.5
t55 65.5q0 28 -29 43t-104 15h-209q-89 0 -125 -16t-36 -50q0 -79 259 -79z" />
    <glyph glyph-name="t_t" horiz-adv-x="1050" 
d="M1000 416h-304v-217q0 -64 39.5 -94.5t141.5 -30.5q67 0 121 13v-76q-48 -15 -124 -15q-139 0 -202.5 53t-63.5 143v224h-405v-217q0 -64 39.5 -94.5t141.5 -30.5q67 0 121 13v-76q-47 -15 -124 -15q-139 0 -202.5 53t-63.5 143v224h-105v78h83q13 0 18.5 7.5t7.5 25.5
l6 79h78v-112h383q13 0 18.5 7.5t7.5 25.5l6 79h78v-112h304v-78z" />
    <glyph glyph-name="zero.lf" 
d="M399 -10q-90 0 -159 27.5t-110 76t-61 108.5t-20 130q0 149 91.5 242.5t258.5 93.5q168 0 260 -93.5t92 -242.5q0 -70 -20.5 -130t-61.5 -108.5t-110 -76t-160 -27.5zM399 72q129 0 193.5 72.5t64.5 187.5q0 116 -67 185t-191 69q-122 0 -189 -69t-67 -185
q0 -115 64 -187.5t192 -72.5z" />
    <glyph glyph-name="one.lf" horiz-adv-x="418" 
d="M204 0v418h-194v68l130 3q38 1 53.5 12.5t22 45.5t8.5 117h74v-664h-94z" />
    <glyph glyph-name="two.lf" horiz-adv-x="784" 
d="M69 0q0 57 7.5 88.5t38.5 61.5t82.5 51.5t149.5 52.5q114 37 171 67.5t74.5 58t17.5 71.5q0 56 -52 95.5t-157 39.5q-117 0 -176.5 -45.5t-59.5 -124.5q0 -35 8 -67h-89q-7 30 -7 75q0 105 82.5 174.5t241.5 69.5q81 0 142.5 -19.5t95 -52t49.5 -69t16 -74.5
q0 -61 -26 -103.5t-94 -82t-190 -78.5q-55 -17 -88 -28t-59.5 -21t-38.5 -16t-20.5 -13.5t-10 -13t-1.5 -15.5h547v-82h-654z" />
    <glyph glyph-name="three.lf" 
d="M389 -10q-96 0 -165.5 19t-106 51.5t-52.5 68t-16 75.5q0 28 4 44h86q-2 -16 -2 -33q0 -63 59 -103t195 -40q266 0 266 141q0 90 -158 90h-161v74h129q85 0 120 24t35 70q0 55 -56.5 85t-166.5 30q-240 0 -240 -142q0 -15 2 -31h-85q-5 17 -5 43q0 40 16.5 75.5t52 67.5
t102 50.5t157.5 18.5q150 0 229.5 -51t79.5 -133q0 -105 -107 -128v-2q75 -8 112.5 -48t37.5 -98q0 -99 -88.5 -158.5t-273.5 -59.5z" />
    <glyph glyph-name="four.lf" 
d="M542 0v146h-501v84l497 428h98v-430h146v-82h-146v-146h-94zM153 228h389v335h-1l-388 -334v-1z" />
    <glyph glyph-name="five.lf" horiz-adv-x="781" 
d="M415 -10q-83 0 -147 12t-101.5 30.5t-61.5 44t-32.5 50t-8.5 51.5q0 7 1 14h87v-8q0 -48 61.5 -80t201.5 -32q229 0 229 150q0 134 -230 134q-103 0 -161.5 -24.5t-80.5 -55.5l-91 10l33 372h564v-82h-487l-22 -244h2q43 98 259 98q161 0 234.5 -59t73.5 -152
q0 -97 -78 -163t-245 -66z" />
    <glyph glyph-name="six.lf" 
d="M411 -10q-88 0 -154 19t-105 49t-63 75t-32 89.5t-8 99.5q0 158 92.5 252t271.5 94q157 0 233 -57t76 -144q0 -17 -2 -31h-88q2 10 2 21q0 129 -221 129q-134 0 -202 -69.5t-68 -194.5q0 -11 3 -68h1q11 71 79.5 103.5t206.5 32.5q318 0 318 -185q0 -44 -16.5 -80.5
t-53 -68t-105.5 -49t-165 -17.5zM411 72q246 0 246 133q0 25 -10 44t-35 35t-73 24t-118 8q-136 0 -197.5 -36.5t-61.5 -86.5q0 -7 3.5 -17.5t18.5 -30t39.5 -35t73.5 -27t114 -11.5z" />
    <glyph glyph-name="seven.lf" horiz-adv-x="693" 
d="M159 0q46 174 149 323.5t250 251.5v1h-546v82h669v-78q-93 -59 -164 -127.5t-117.5 -144.5t-76.5 -147.5t-54 -160.5h-110z" />
    <glyph glyph-name="eight.lf" 
d="M400 -10q-180 0 -265.5 54.5t-85.5 138.5q0 138 176 158v2q-133 22 -133 142q0 72 75 127.5t233 55.5t233 -55.5t75 -127.5q0 -120 -133 -142v-1q176 -20 176 -159q0 -84 -85.5 -138.5t-265.5 -54.5zM400 373q220 0 220 106q0 46 -53.5 76.5t-166.5 30.5t-166.5 -30.5
t-53.5 -76.5q0 -106 220 -106zM400 72q257 0 257 118q0 109 -257 109t-257 -109q0 -118 257 -118z" />
    <glyph glyph-name="nine.lf" 
d="M387 -10q-167 0 -241.5 54t-74.5 137q0 13 1 25h88q-1 -11 -1 -18q0 -116 228 -116q138 0 204 64.5t66 199.5q0 36 -3 65h-2q-3 -24 -11 -44t-27.5 -41t-50 -35.5t-82 -23.5t-119.5 -9q-89 0 -153 17t-97.5 46t-48 61t-14.5 69q0 43 17.5 81t55 72t106.5 54t162 20
q73 0 130.5 -13t96 -37t66 -54t42 -69t20.5 -77t6 -82q0 -346 -364 -346zM374 322q129 0 195.5 39.5t66.5 107.5q0 4 -3.5 14.5t-19 29t-40 34t-72.5 27.5t-111 12q-133 0 -190 -41t-57 -102q0 -55 49.5 -88t181.5 -33z" />
    <glyph glyph-name="one.lf.ss05" horiz-adv-x="334" 
d="M120 0v599q36 19 44 65h50v-664h-94z" />
    <glyph glyph-name="zero.subs" horiz-adv-x="560" 
d="M280 -126q-115 0 -173.5 57t-58.5 147q0 88 61.5 145t170.5 57q110 0 171.5 -57t61.5 -145q0 -90 -58.5 -147t-174.5 -57zM280 -64q80 0 120.5 39.5t40.5 102.5q0 64 -42 102t-119 38t-118.5 -38t-41.5 -102q0 -63 40.5 -102.5t119.5 -39.5z" />
    <glyph glyph-name="one.subs" horiz-adv-x="307" 
d="M145 -120v233h-118v54h66q43 0 54 17.5t12 89.5h58v-394h-72z" />
    <glyph glyph-name="two.subs" horiz-adv-x="513" 
d="M39 -120q0 37 4 56.5t22 40.5t54.5 36.5t100.5 34.5q77 23 110 38t41 27t8 37q0 30 -31.5 49t-96.5 19q-142 0 -142 -91q0 -21 5 -41h-66q-5 20 -5 45q0 64 53.5 106.5t157.5 42.5q101 0 149 -38t48 -90q0 -38 -12 -59.5t-55 -44t-131 -47.5q-60 -17 -90 -29.5
t-34.5 -17.5t-4.5 -12h337v-62h-422z" />
    <glyph glyph-name="three.subs" horiz-adv-x="540" 
d="M263 -126q-119 0 -169.5 38.5t-50.5 91.5q0 14 2 26h65q-1 -9 -1 -18q0 -76 154 -76q85 0 124 20t39 52q0 49 -97 49h-98v52h80q92 0 92 52q0 25 -34.5 41t-100.5 16q-145 0 -145 -74q0 -10 1 -18h-65q-2 13 -2 26q0 53 50.5 90.5t164.5 37.5q97 0 148 -31t51 -81
q0 -28 -17.5 -48t-52.5 -26v-2q47 -4 72 -28t25 -59q0 -59 -57.5 -95t-177.5 -36z" />
    <glyph glyph-name="four.subs" horiz-adv-x="540" 
d="M347 -120v87h-315v54l314 253h73v-245h86v-62h-86v-87h-72zM132 29h215v172h-2l-213 -171v-1z" />
    <glyph glyph-name="five.subs" horiz-adv-x="524" 
d="M270 -126q-126 0 -176.5 33.5t-50.5 79.5v10h70v-5q0 -56 155 -56q72 0 106 22t34 56q0 72 -136 72q-116 0 -153 -43l-65 6l21 225h362v-62h-303l-13 -126h2q23 28 59.5 41t98.5 13q101 0 150 -34.5t49 -93.5q0 -60 -50 -99t-160 -39z" />
    <glyph glyph-name="six.subs" horiz-adv-x="540" 
d="M279 -126q-69 0 -117 16t-72.5 45t-35 62.5t-10.5 75.5q0 96 60.5 151.5t174.5 55.5q100 0 151 -36t51 -88q0 -9 -1 -16h-68q1 7 1 13q0 28 -32 46.5t-100 18.5q-82 0 -123.5 -37.5t-41.5 -107.5q0 -13 1 -28h2q13 37 57 53t128 16q195 0 195 -112q0 -57 -52 -92.5
t-168 -35.5zM279 -64q148 0 148 66q0 58 -145 58q-59 0 -96 -12t-47.5 -24.5t-10.5 -24.5q0 -4 2.5 -10t12 -16t25 -17.5t44.5 -13.5t67 -6z" />
    <glyph glyph-name="seven.subs" horiz-adv-x="497" 
d="M115 -120q37 118 111 203t159 128v1h-356v62h448v-55q-129 -77 -185 -151.5t-91 -187.5h-86z" />
    <glyph glyph-name="eight.subs" horiz-adv-x="540" 
d="M270 -126q-117 0 -172.5 33t-55.5 83q0 34 26.5 60.5t84.5 34.5v1q-83 17 -83 85q0 45 48 77t152 32t152 -32t48 -77q0 -68 -82 -85v-1q58 -8 84 -34.5t26 -60.5q0 -50 -55.5 -83t-172.5 -33zM270 108q137 0 137 57q0 25 -34 41t-103 16t-102.5 -16t-33.5 -41
q0 -57 136 -57zM270 -68q156 0 156 63q0 61 -156 61t-156 -61q0 -63 156 -63z" />
    <glyph glyph-name="nine.subs" horiz-adv-x="540" 
d="M264 -126q-106 0 -155.5 32.5t-49.5 81.5q0 7 1 15h67v-8q0 -59 137 -59q164 0 164 144q0 19 -1 31h-1q-18 -82 -177 -82q-204 0 -204 118q0 55 54 94t168 39q233 0 233 -199q0 -100 -59 -153.5t-177 -53.5zM255 83q77 0 118.5 21t41.5 54q0 3 -2.5 8.5t-12.5 15
t-25 17.5t-43.5 13.5t-64.5 5.5q-78 0 -114 -20t-36 -50q0 -65 138 -65z" />
    <glyph glyph-name="zero.dnom" horiz-adv-x="560" 
d="M280 -6q-115 0 -173.5 57t-58.5 147q0 88 61.5 145t170.5 57q110 0 171.5 -57t61.5 -145q0 -90 -58.5 -147t-174.5 -57zM280 56q80 0 120.5 39.5t40.5 102.5q0 64 -42 102t-119 38t-118.5 -38t-41.5 -102q0 -63 40.5 -102.5t119.5 -39.5z" />
    <glyph glyph-name="one.dnom" horiz-adv-x="307" 
d="M145 0v233h-118v54h66q43 0 54 17.5t12 89.5h58v-394h-72z" />
    <glyph glyph-name="two.dnom" horiz-adv-x="513" 
d="M39 0q0 37 4 56.5t22 40.5t54.5 36.5t100.5 34.5q77 23 110 38t41 27t8 37q0 30 -31.5 49t-96.5 19q-142 0 -142 -91q0 -21 5 -41h-66q-5 20 -5 45q0 64 53.5 106.5t157.5 42.5q101 0 149 -38t48 -90q0 -38 -12 -59.5t-55 -44t-131 -47.5q-60 -17 -90 -29.5t-34.5 -17.5
t-4.5 -12h337v-62h-422z" />
    <glyph glyph-name="three.dnom" horiz-adv-x="540" 
d="M263 -6q-119 0 -169.5 38.5t-50.5 91.5q0 14 2 26h65q-1 -9 -1 -18q0 -76 154 -76q85 0 124 20t39 52q0 49 -97 49h-98v52h80q92 0 92 52q0 25 -34.5 41t-100.5 16q-145 0 -145 -74q0 -10 1 -18h-65q-2 13 -2 26q0 53 50.5 90.5t164.5 37.5q97 0 148 -31t51 -81
q0 -28 -17.5 -48t-52.5 -26v-2q47 -4 72 -28t25 -59q0 -59 -57.5 -95t-177.5 -36z" />
    <glyph glyph-name="four.dnom" horiz-adv-x="540" 
d="M347 0v87h-315v54l314 253h73v-245h86v-62h-86v-87h-72zM132 149h215v172h-2l-213 -171v-1z" />
    <glyph glyph-name="five.dnom" horiz-adv-x="524" 
d="M270 -6q-126 0 -176.5 33.5t-50.5 79.5v10h70v-5q0 -56 155 -56q72 0 106 22t34 56q0 72 -136 72q-116 0 -153 -43l-65 6l21 225h362v-62h-303l-13 -126h2q23 28 59.5 41t98.5 13q101 0 150 -34.5t49 -93.5q0 -60 -50 -99t-160 -39z" />
    <glyph glyph-name="six.dnom" horiz-adv-x="540" 
d="M279 -6q-69 0 -117 16t-72.5 45t-35 62.5t-10.5 75.5q0 96 60.5 151.5t174.5 55.5q100 0 151 -36t51 -88q0 -9 -1 -16h-68q1 7 1 13q0 28 -32 46.5t-100 18.5q-82 0 -123.5 -37.5t-41.5 -107.5q0 -13 1 -28h2q13 37 57 53t128 16q195 0 195 -112q0 -57 -52 -92.5
t-168 -35.5zM279 56q148 0 148 66q0 58 -145 58q-59 0 -96 -12t-47.5 -24.5t-10.5 -24.5q0 -4 2.5 -10t12 -16t25 -17.5t44.5 -13.5t67 -6z" />
    <glyph glyph-name="seven.dnom" horiz-adv-x="497" 
d="M115 0q37 118 111 203t159 128v1h-356v62h448v-55q-129 -77 -185 -151.5t-91 -187.5h-86z" />
    <glyph glyph-name="eight.dnom" horiz-adv-x="540" 
d="M270 -6q-117 0 -172.5 33t-55.5 83q0 34 26.5 60.5t84.5 34.5v1q-83 17 -83 85q0 45 48 77t152 32t152 -32t48 -77q0 -68 -82 -85v-1q58 -8 84 -34.5t26 -60.5q0 -50 -55.5 -83t-172.5 -33zM270 228q137 0 137 57q0 25 -34 41t-103 16t-102.5 -16t-33.5 -41
q0 -57 136 -57zM270 52q156 0 156 63q0 61 -156 61t-156 -61q0 -63 156 -63z" />
    <glyph glyph-name="nine.dnom" horiz-adv-x="540" 
d="M264 -6q-106 0 -155.5 32.5t-49.5 81.5q0 7 1 15h67v-8q0 -59 137 -59q164 0 164 144q0 19 -1 31h-1q-18 -82 -177 -82q-204 0 -204 118q0 55 54 94t168 39q233 0 233 -199q0 -100 -59 -153.5t-177 -53.5zM255 203q77 0 118.5 21t41.5 54q0 3 -2.5 8.5t-12.5 15t-25 17.5
t-43.5 13.5t-64.5 5.5q-78 0 -114 -20t-36 -50q0 -65 138 -65z" />
    <glyph glyph-name="zero.numr" horiz-adv-x="560" 
d="M280 258q-115 0 -173.5 57t-58.5 147q0 88 61.5 145t170.5 57q110 0 171.5 -57t61.5 -145q0 -90 -58.5 -147t-174.5 -57zM280 320q80 0 120.5 39.5t40.5 102.5q0 64 -42 102t-119 38t-118.5 -38t-41.5 -102q0 -63 40.5 -102.5t119.5 -39.5z" />
    <glyph glyph-name="one.numr" horiz-adv-x="307" 
d="M145 264v233h-118v54h66q43 0 54 17.5t12 89.5h58v-394h-72z" />
    <glyph glyph-name="two.numr" horiz-adv-x="513" 
d="M39 264q0 37 4 56.5t22 40.5t54.5 36.5t100.5 34.5q77 23 110 38t41 27t8 37q0 30 -31.5 49t-96.5 19q-142 0 -142 -91q0 -21 5 -41h-66q-5 20 -5 45q0 64 53.5 106.5t157.5 42.5q101 0 149 -38t48 -90q0 -38 -12 -59.5t-55 -44t-131 -47.5q-60 -17 -90 -29.5
t-34.5 -17.5t-4.5 -12h337v-62h-422z" />
    <glyph glyph-name="three.numr" horiz-adv-x="540" 
d="M263 258q-119 0 -169.5 38.5t-50.5 91.5q0 14 2 26h65q-1 -9 -1 -18q0 -76 154 -76q85 0 124 20t39 52q0 49 -97 49h-98v52h80q92 0 92 52q0 25 -34.5 41t-100.5 16q-145 0 -145 -74q0 -10 1 -18h-65q-2 13 -2 26q0 53 50.5 90.5t164.5 37.5q97 0 148 -31t51 -81
q0 -28 -17.5 -48t-52.5 -26v-2q47 -4 72 -28t25 -59q0 -59 -57.5 -95t-177.5 -36z" />
    <glyph glyph-name="four.numr" horiz-adv-x="540" 
d="M347 264v87h-315v54l314 253h73v-245h86v-62h-86v-87h-72zM132 413h215v172h-2l-213 -171v-1z" />
    <glyph glyph-name="five.numr" horiz-adv-x="524" 
d="M270 258q-126 0 -176.5 33.5t-50.5 79.5v10h70v-5q0 -56 155 -56q72 0 106 22t34 56q0 72 -136 72q-116 0 -153 -43l-65 6l21 225h362v-62h-303l-13 -126h2q23 28 59.5 41t98.5 13q101 0 150 -34.5t49 -93.5q0 -60 -50 -99t-160 -39z" />
    <glyph glyph-name="six.numr" horiz-adv-x="540" 
d="M279 258q-69 0 -117 16t-72.5 45t-35 62.5t-10.5 75.5q0 96 60.5 151.5t174.5 55.5q100 0 151 -36t51 -88q0 -9 -1 -16h-68q1 7 1 13q0 28 -32 46.5t-100 18.5q-82 0 -123.5 -37.5t-41.5 -107.5q0 -13 1 -28h2q13 37 57 53t128 16q195 0 195 -112q0 -57 -52 -92.5
t-168 -35.5zM279 320q148 0 148 66q0 58 -145 58q-59 0 -96 -12t-47.5 -24.5t-10.5 -24.5q0 -4 2.5 -10t12 -16t25 -17.5t44.5 -13.5t67 -6z" />
    <glyph glyph-name="seven.numr" horiz-adv-x="497" 
d="M115 264q37 118 111 203t159 128v1h-356v62h448v-55q-129 -77 -185 -151.5t-91 -187.5h-86z" />
    <glyph glyph-name="eight.numr" horiz-adv-x="540" 
d="M270 258q-117 0 -172.5 33t-55.5 83q0 34 26.5 60.5t84.5 34.5v1q-83 17 -83 85q0 45 48 77t152 32t152 -32t48 -77q0 -68 -82 -85v-1q58 -8 84 -34.5t26 -60.5q0 -50 -55.5 -83t-172.5 -33zM270 492q137 0 137 57q0 25 -34 41t-103 16t-102.5 -16t-33.5 -41
q0 -57 136 -57zM270 316q156 0 156 63q0 61 -156 61t-156 -61q0 -63 156 -63z" />
    <glyph glyph-name="nine.numr" horiz-adv-x="540" 
d="M264 258q-106 0 -155.5 32.5t-49.5 81.5q0 7 1 15h67v-8q0 -59 137 -59q164 0 164 144q0 19 -1 31h-1q-18 -82 -177 -82q-204 0 -204 118q0 55 54 94t168 39q233 0 233 -199q0 -100 -59 -153.5t-177 -53.5zM255 467q77 0 118.5 21t41.5 54q0 3 -2.5 8.5t-12.5 15
t-25 17.5t-43.5 13.5t-64.5 5.5q-78 0 -114 -20t-36 -50q0 -65 138 -65z" />
    <glyph glyph-name="zero.sups" horiz-adv-x="560" 
d="M280 300q-115 0 -173.5 57t-58.5 147q0 88 61.5 145t170.5 57q110 0 171.5 -57t61.5 -145q0 -90 -58.5 -147t-174.5 -57zM280 362q80 0 120.5 39.5t40.5 102.5q0 64 -42 102t-119 38t-118.5 -38t-41.5 -102q0 -63 40.5 -102.5t119.5 -39.5z" />
    <glyph glyph-name="one.sups" horiz-adv-x="307" 
d="M145 306v233h-118v54h66q43 0 54 17.5t12 89.5h58v-394h-72z" />
    <glyph glyph-name="two.sups" horiz-adv-x="513" 
d="M39 306q0 37 4 56.5t22 40.5t54.5 36.5t100.5 34.5q77 23 110 38t41 27t8 37q0 30 -31.5 49t-96.5 19q-142 0 -142 -91q0 -21 5 -41h-66q-5 20 -5 45q0 64 53.5 106.5t157.5 42.5q101 0 149 -38t48 -90q0 -38 -12 -59.5t-55 -44t-131 -47.5q-60 -17 -90 -29.5
t-34.5 -17.5t-4.5 -12h337v-62h-422z" />
    <glyph glyph-name="three.sups" horiz-adv-x="540" 
d="M263 300q-119 0 -169.5 38.5t-50.5 91.5q0 14 2 26h65q-1 -9 -1 -18q0 -76 154 -76q85 0 124 20t39 52q0 49 -97 49h-98v52h80q92 0 92 52q0 25 -34.5 41t-100.5 16q-145 0 -145 -74q0 -10 1 -18h-65q-2 13 -2 26q0 53 50.5 90.5t164.5 37.5q97 0 148 -31t51 -81
q0 -28 -17.5 -48t-52.5 -26v-2q47 -4 72 -28t25 -59q0 -59 -57.5 -95t-177.5 -36z" />
    <glyph glyph-name="four.sups" horiz-adv-x="540" 
d="M347 306v87h-315v54l314 253h73v-245h86v-62h-86v-87h-72zM132 455h215v172h-2l-213 -171v-1z" />
    <glyph glyph-name="five.sups" horiz-adv-x="524" 
d="M270 300q-126 0 -176.5 33.5t-50.5 79.5v10h70v-5q0 -56 155 -56q72 0 106 22t34 56q0 72 -136 72q-116 0 -153 -43l-65 6l21 225h362v-62h-303l-13 -126h2q23 28 59.5 41t98.5 13q101 0 150 -34.5t49 -93.5q0 -60 -50 -99t-160 -39z" />
    <glyph glyph-name="six.sups" horiz-adv-x="540" 
d="M279 300q-69 0 -117 16t-72.5 45t-35 62.5t-10.5 75.5q0 96 60.5 151.5t174.5 55.5q100 0 151 -36t51 -88q0 -9 -1 -16h-68q1 7 1 13q0 28 -32 46.5t-100 18.5q-82 0 -123.5 -37.5t-41.5 -107.5q0 -13 1 -28h2q13 37 57 53t128 16q195 0 195 -112q0 -57 -52 -92.5
t-168 -35.5zM279 362q148 0 148 66q0 58 -145 58q-59 0 -96 -12t-47.5 -24.5t-10.5 -24.5q0 -4 2.5 -10t12 -16t25 -17.5t44.5 -13.5t67 -6z" />
    <glyph glyph-name="seven.sups" horiz-adv-x="497" 
d="M115 306q37 118 111 203t159 128v1h-356v62h448v-55q-129 -77 -185 -151.5t-91 -187.5h-86z" />
    <glyph glyph-name="eight.sups" horiz-adv-x="540" 
d="M270 300q-117 0 -172.5 33t-55.5 83q0 34 26.5 60.5t84.5 34.5v1q-83 17 -83 85q0 45 48 77t152 32t152 -32t48 -77q0 -68 -82 -85v-1q58 -8 84 -34.5t26 -60.5q0 -50 -55.5 -83t-172.5 -33zM270 534q137 0 137 57q0 25 -34 41t-103 16t-102.5 -16t-33.5 -41
q0 -57 136 -57zM270 358q156 0 156 63q0 61 -156 61t-156 -61q0 -63 156 -63z" />
    <glyph glyph-name="nine.sups" horiz-adv-x="540" 
d="M264 300q-106 0 -155.5 32.5t-49.5 81.5q0 7 1 15h67v-8q0 -59 137 -59q164 0 164 144q0 19 -1 31h-1q-18 -82 -177 -82q-204 0 -204 118q0 55 54 94t168 39q233 0 233 -199q0 -100 -59 -153.5t-177 -53.5zM255 509q77 0 118.5 21t41.5 54q0 3 -2.5 8.5t-12.5 15
t-25 17.5t-43.5 13.5t-64.5 5.5q-78 0 -114 -20t-36 -50q0 -65 138 -65z" />
    <glyph glyph-name="periodcentered.loclCAT.case" horiz-adv-x="10" 
d="M-240 316v119h100v-119h-100z" />
    <glyph glyph-name="periodcentered.loclCAT" horiz-adv-x="100" 
d="M0 248v119h100v-119h-100z" />
    <glyph glyph-name="comma.dnom" horiz-adv-x="184" 
d="M41 -83v32q49 3 49 50v1h-29v71h64v-62q0 -83 -84 -92z" />
    <glyph glyph-name="period.dnom" horiz-adv-x="184" 
d="M60 0v71h64v-71h-64z" />
    <glyph glyph-name="comma.numr" horiz-adv-x="184" 
d="M41 181v32q49 3 49 50v1h-29v71h64v-62q0 -83 -84 -92z" />
    <glyph glyph-name="period.numr" horiz-adv-x="184" 
d="M60 264v71h64v-71h-64z" />
    <glyph glyph-name="comma.subs" horiz-adv-x="184" 
d="M41 -203v32q49 3 49 50v1h-29v71h64v-62q0 -83 -84 -92z" />
    <glyph glyph-name="period.subs" horiz-adv-x="184" 
d="M60 -120v71h64v-71h-64z" />
    <glyph glyph-name="comma.sups" horiz-adv-x="184" 
d="M41 223v32q49 3 49 50v1h-29v71h64v-62q0 -83 -84 -92z" />
    <glyph glyph-name="period.sups" horiz-adv-x="184" 
d="M60 306v71h64v-71h-64z" />
    </font>
</defs>
</svg>
