<svg width="616" height="288" viewBox="0 0 616 288" fill="none" xmlns="http://www.w3.org/2000/svg">
<path d="M34.81 114.8C65.32 114.8 70.36 103.73 70.36 94.3702C70.36 88.7002 67.12 84.0202 61.45 81.6802C56.41 79.6102 49.03 78.8902 40.39 78.3502C33.73 77.9002 24.82 77.5402 21.58 76.5502C19.06 75.7402 17.8 74.3902 17.8 72.1402C17.8 67.9102 22.75 65.3002 34.63 65.3002C46.87 65.3002 52.18 68.4502 52.18 73.8502H67.66C67.66 63.1402 62.8 53.4202 34.63 53.4202C11.14 53.4202 0.52002 62.4202 0.52002 73.4002C0.52002 79.1602 3.40002 83.3902 7.72002 85.6402C12.58 88.1602 21.22 89.1502 29.05 89.6002C35.62 89.9602 44.71 90.3202 48.4 91.1302C51.55 91.8502 53.08 93.2902 53.08 95.7202C53.08 99.7702 50.47 102.92 34.81 102.92C19.96 102.92 16.36 98.8702 16.36 93.8302H0.88002C0.88002 101.75 4.03002 114.8 34.81 114.8Z" fill="white"/>
<path d="M78.2301 131.54H94.2501V114.26C94.2501 111.83 93.9801 107.78 93.8001 105.35H93.8901C97.0401 111.11 103.43 114.62 114.41 114.62C131.24 114.62 141.59 106.7 141.59 90.5002C141.59 77.0902 132.77 68.3602 114.41 68.3602C103.43 68.3602 96.5001 72.1402 94.1601 78.8902H94.0701L94.2501 69.2602H78.2301V131.54ZM110.81 103.1C99.5601 103.1 94.2501 98.2402 94.2501 92.4802V92.2102C94.2501 84.9202 100.28 79.8802 110.72 79.8802C121.07 79.8802 125.66 84.2902 125.66 91.0402C125.66 99.3202 121.07 103.1 110.81 103.1Z" fill="white"/>
<path d="M179.132 114.62C201.902 114.62 210.362 103.64 210.362 91.5802C210.362 79.6102 201.722 68.3602 179.132 68.3602C156.542 68.3602 147.902 79.6102 147.902 91.5802C147.902 103.64 156.272 114.62 179.132 114.62ZM179.132 103.1C167.882 103.1 163.922 97.7002 163.922 91.5802C163.922 85.2802 167.882 79.8802 179.132 79.8802C190.292 79.8802 194.342 85.2802 194.342 91.5802C194.342 97.7902 190.292 103.1 179.132 103.1Z" fill="white"/>
<path d="M246.375 114.62C251.595 114.62 256.905 113.99 259.245 113.27V102.2C256.815 102.65 252.405 103.1 248.985 103.1C239.805 103.1 236.835 101.3 236.835 96.0802V80.7802H259.695V69.2602H236.835V59.1802H223.695L222.885 65.3902C222.525 68.0902 221.805 69.2602 219.465 69.2602H212.625V80.7802H220.815V96.4402C220.815 106.88 226.755 114.62 246.375 114.62Z" fill="white"/>
<path d="M267.371 113.72H283.391V50.7202H267.371V113.72Z" fill="white"/>
<path d="M292.162 63.5902H308.182V52.0702H292.162V63.5902ZM292.162 113.72H308.182V69.2602H292.162V113.72Z" fill="white"/>
<path d="M360.231 105.08H338.811C334.941 105.08 333.501 103.55 333.501 101.75C333.501 100.49 334.041 99.3202 334.491 98.6902C337.461 99.2302 340.971 99.5002 344.841 99.5002C363.111 99.5002 371.211 92.6602 371.211 83.9302C371.211 80.8702 370.221 78.0802 368.331 75.8302C367.971 74.8402 367.701 73.9402 367.701 73.0402C367.701 70.8802 369.141 69.3502 372.831 69.3502C373.911 69.3502 375.531 69.4402 376.701 69.6202V60.6202C375.891 60.4402 373.821 60.1702 371.301 60.1702C362.661 60.1702 359.241 63.2302 359.241 66.4702C359.241 68.3602 360.501 69.8902 361.941 70.9702L361.851 71.2402C357.621 69.3502 351.951 68.3602 344.841 68.3602C326.301 68.3602 318.471 75.5602 318.471 83.9302C318.471 89.6902 321.531 94.2802 328.101 96.8902V97.0702C323.331 97.8802 320.721 101.66 320.721 105.62C320.721 107.51 321.261 111.11 326.121 113.45V113.54C318.651 113.81 315.411 117.05 315.411 121.28C315.411 126.95 321.711 133.34 347.541 133.34C371.031 133.34 379.311 125.78 379.311 117.14C379.311 111.11 375.351 105.08 360.231 105.08ZM344.841 77.5402C352.401 77.5402 356.091 80.0602 356.091 83.9302C356.091 87.6202 352.581 90.3202 344.841 90.3202C337.191 90.3202 333.591 87.8902 333.591 83.9302C333.591 80.4202 336.921 77.5402 344.841 77.5402ZM347.541 124.52C336.381 124.52 331.431 122.45 331.431 119.48C331.431 117.86 332.421 115.7 339.261 115.7H355.011C361.671 115.7 363.291 117.14 363.291 119.3C363.291 122.36 358.251 124.52 347.541 124.52Z" fill="white"/>
<path d="M385.759 113.72H401.779V93.4702C401.779 84.5602 409.159 80.7802 418.069 80.7802C429.049 80.7802 432.199 85.3702 432.199 91.5802V113.72H448.219V87.2602C448.219 76.1902 442.279 68.3602 425.359 68.3602C411.499 68.3602 404.479 73.7602 401.689 82.3102H401.599C401.689 79.2502 401.779 74.3002 401.779 72.0502V50.7202H385.759V113.72Z" fill="white"/>
<path d="M486.492 114.62C491.712 114.62 497.022 113.99 499.362 113.27V102.2C496.932 102.65 492.522 103.1 489.102 103.1C479.922 103.1 476.952 101.3 476.952 96.0802V80.7802H499.812V69.2602H476.952V59.1802H463.812L463.002 65.3902C462.642 68.0902 461.922 69.2602 459.582 69.2602H452.742V80.7802H460.932V96.4402C460.932 106.88 466.872 114.62 486.492 114.62Z" fill="white"/>
<path d="M2.05002 213.72H58.93V200.94H19.33V188.97H49.03V178.89H19.33V167.28H58.03V154.5H2.05002V213.72Z" fill="white"/>
<path d="M63.847 213.72H83.017L94.537 199.77L106.597 213.72H127.387L105.517 190.77L126.487 169.26H108.397L97.057 182.49L85.537 169.26H64.747L85.267 190.77L63.847 213.72Z" fill="white"/>
<path d="M133.425 231.54H149.445V214.26C149.445 211.83 149.175 207.78 148.995 205.35H149.085C152.235 211.11 158.625 214.62 169.605 214.62C186.435 214.62 196.785 206.7 196.785 190.5C196.785 177.09 187.965 168.36 169.605 168.36C158.625 168.36 151.695 172.14 149.355 178.89H149.265L149.445 169.26H133.425V231.54ZM166.005 203.1C154.755 203.1 149.445 198.24 149.445 192.48V192.21C149.445 184.92 155.475 179.88 165.915 179.88C176.265 179.88 180.855 184.29 180.855 191.04C180.855 199.32 176.265 203.1 166.005 203.1Z" fill="white"/>
<path d="M262.047 191.13C262.047 176.64 253.137 168.36 233.517 168.36C214.077 168.36 203.097 177.45 203.097 191.94C203.097 203.19 210.297 214.62 234.417 214.62C254.127 214.62 261.597 207.6 262.047 199.05H247.827C247.197 202.11 244.227 204.54 234.417 204.54C223.707 204.54 220.107 200.4 219.297 194.82H262.047V191.13ZM247.827 186.54H219.657C221.007 181.32 225.057 178.44 234.417 178.44C244.767 178.44 247.827 182.13 247.827 186.18V186.54Z" fill="white"/>
<path d="M269.212 213.72H285.232V196.35C285.232 188.61 289.642 180.78 299.902 180.78C307.642 180.78 309.892 184.83 309.892 192.3C309.892 194.01 309.802 195.81 309.712 196.8H324.562C324.742 195.09 325.012 191.4 325.012 187.62C325.012 176.46 320.332 168.36 305.572 168.36C293.872 168.36 287.752 174.75 285.232 182.13H284.962L285.232 169.26H269.212V213.72Z" fill="white"/>
<path d="M333.559 163.59H349.579V152.07H333.559V163.59ZM333.559 213.72H349.579V169.26H333.559V213.72Z" fill="white"/>
<path d="M416.208 191.13C416.208 176.64 407.298 168.36 387.678 168.36C368.238 168.36 357.258 177.45 357.258 191.94C357.258 203.19 364.458 214.62 388.578 214.62C408.288 214.62 415.758 207.6 416.208 199.05H401.988C401.358 202.11 398.388 204.54 388.578 204.54C377.868 204.54 374.268 200.4 373.458 194.82H416.208V191.13ZM401.988 186.54H373.818C375.168 181.32 379.218 178.44 388.578 178.44C398.928 178.44 401.988 182.13 401.988 186.18V186.54Z" fill="white"/>
<path d="M423.372 213.72H439.392V193.47C439.392 184.56 446.952 180.78 455.682 180.78C466.482 180.78 469.812 185.55 469.812 191.58V213.72H485.832V187.26C485.832 176.46 480.162 168.36 462.972 168.36C449.022 168.36 442.182 173.76 439.392 182.22H439.212L439.392 169.26H423.372V213.72Z" fill="white"/>
<path d="M521.769 214.62C543.369 214.62 550.749 205.26 550.749 195.27H536.529C536.349 199.32 532.749 203.1 522.669 203.1C512.499 203.1 508.629 197.97 508.629 191.49C508.629 184.83 513.129 179.88 523.029 179.88C532.659 179.88 536.259 183.93 536.349 187.98H550.569C550.569 177.54 543.099 168.36 522.579 168.36C502.599 168.36 492.609 178.89 492.609 191.58C492.609 202.83 500.709 214.62 521.769 214.62Z" fill="white"/>
<path d="M615.983 191.13C615.983 176.64 607.073 168.36 587.453 168.36C568.013 168.36 557.033 177.45 557.033 191.94C557.033 203.19 564.233 214.62 588.353 214.62C608.063 214.62 615.533 207.6 615.983 199.05H601.763C601.133 202.11 598.163 204.54 588.353 204.54C577.643 204.54 574.043 200.4 573.233 194.82H615.983V191.13ZM601.763 186.54H573.593C574.943 181.32 578.993 178.44 588.353 178.44C598.703 178.44 601.763 182.13 601.763 186.18V186.54Z" fill="white"/>
<path d="M141.437 271.418C141.437 265.546 145.112 261.35 151.105 261.35C155.22 261.35 157.737 263.028 158.456 265.624H158.496V253.724H161.696V281.41H158.496C158.616 279.652 158.656 277.894 158.696 276.137H158.616C157.857 279.537 155.216 281.73 150.826 281.73C145.112 281.725 141.437 277.57 141.437 271.418ZM158.496 271.778V270.778C158.496 266.778 155.739 264.226 151.384 264.226C147.269 264.226 144.632 267.302 144.632 271.417C144.632 275.811 147.269 278.848 151.344 278.848C155.699 278.849 158.496 276.093 158.496 271.779V271.778Z" fill="white"/>
<path d="M167.808 255.118H171.244V259.154H167.808V255.118ZM167.928 261.67H171.128V281.406H167.928V261.67Z" fill="white"/>
<path d="M176.481 274.814H179.437C179.437 277.45 181.037 279.009 185.15 279.009C189.225 279.009 191.183 277.771 191.183 275.653C191.216 275.226 191.115 274.8 190.892 274.434C190.67 274.069 190.338 273.782 189.944 273.615C188.18 273.079 186.354 272.77 184.511 272.696C181.275 272.416 179.318 272.017 178.119 271.138C177.583 270.691 177.157 270.128 176.873 269.49C176.589 268.853 176.455 268.159 176.481 267.462C176.481 263.747 179.881 261.35 185.15 261.35C191.063 261.35 193.54 263.95 193.54 268.381H190.584C190.544 265.425 188.784 264.066 185.271 264.066C181.871 264.066 179.678 265.305 179.678 267.266C179.614 267.728 179.704 268.198 179.936 268.603C180.167 269.007 180.526 269.324 180.956 269.503C182.755 270.009 184.604 270.317 186.469 270.422C189.545 270.742 191.063 271.022 192.422 271.781C193.047 272.182 193.557 272.74 193.9 273.398C194.243 274.057 194.408 274.794 194.379 275.536C194.379 279.411 191.179 281.729 185.191 281.729C178.558 281.725 176.481 278.609 176.481 274.814Z" fill="white"/>
<path d="M198.143 271.419C198.143 265.186 201.898 261.232 207.811 261.232C213.084 261.232 216.48 264.432 216.48 269.462H213.524C213.484 266.186 211.287 264.108 207.851 264.108C203.896 264.108 201.339 266.944 201.339 271.419C201.339 275.894 203.816 278.73 207.651 278.73C211.251 278.73 213.564 276.692 213.604 273.456H216.56C216.56 278.41 213.044 281.606 207.571 281.606C201.819 281.607 198.143 277.652 198.143 271.419Z" fill="white"/>
<path d="M221.124 273.855V261.67H224.324V273.296C224.324 276.696 226.561 278.849 230.317 278.849C234.911 278.849 237.868 275.773 237.868 270.579V261.67H241.068V281.406H237.868C237.948 280.088 238.028 277.606 238.028 275.613H237.988C237.149 279.329 234.353 281.725 229.439 281.725C224.281 281.725 221.124 278.649 221.124 273.855Z" fill="white"/>
<path d="M245.235 274.814H248.196C248.196 277.45 249.796 279.009 253.909 279.009C257.984 279.009 259.942 277.771 259.942 275.653C259.975 275.227 259.874 274.8 259.651 274.435C259.429 274.069 259.098 273.782 258.704 273.615C256.939 273.079 255.113 272.77 253.271 272.696C250.035 272.416 248.078 272.017 246.879 271.138C246.343 270.691 245.917 270.128 245.633 269.49C245.349 268.853 245.215 268.159 245.241 267.462C245.241 263.747 248.641 261.35 253.91 261.35C259.823 261.35 262.3 263.95 262.3 268.381H259.344C259.304 265.425 257.544 264.066 254.031 264.066C250.631 264.066 248.438 265.305 248.438 267.266C248.373 267.728 248.464 268.198 248.695 268.603C248.926 269.007 249.285 269.324 249.716 269.503C251.515 270.009 253.363 270.317 255.229 270.422C258.305 270.742 259.823 271.022 261.182 271.781C261.807 272.182 262.317 272.74 262.66 273.398C263.004 274.057 263.169 274.794 263.14 275.536C263.14 279.411 259.94 281.729 253.951 281.729C247.312 281.725 245.235 278.609 245.235 274.814Z" fill="white"/>
<path d="M266.819 274.814H269.771C269.771 277.45 271.371 279.009 275.484 279.009C279.559 279.009 281.517 277.771 281.517 275.653C281.55 275.227 281.449 274.8 281.227 274.435C281.004 274.069 280.673 273.782 280.279 273.615C278.514 273.079 276.688 272.77 274.845 272.696C271.609 272.416 269.652 272.017 268.453 271.138C267.917 270.691 267.491 270.128 267.207 269.49C266.923 268.853 266.789 268.159 266.815 267.462C266.815 263.747 270.215 261.35 275.485 261.35C281.398 261.35 283.875 263.95 283.875 268.381H280.919C280.879 265.425 279.119 264.066 275.606 264.066C272.206 264.066 270.013 265.305 270.013 267.266C269.949 267.728 270.039 268.198 270.271 268.603C270.502 269.007 270.861 269.324 271.291 269.503C273.09 270.009 274.939 270.317 276.804 270.422C279.88 270.742 281.398 271.022 282.757 271.781C283.383 272.182 283.892 272.74 284.236 273.398C284.579 274.057 284.744 274.794 284.715 275.536C284.715 279.411 281.515 281.729 275.526 281.729C268.897 281.725 266.819 278.609 266.819 274.814Z" fill="white"/>
<path d="M289.983 255.118H293.419V259.154H289.983V255.118ZM290.103 261.67H293.303V281.406H290.103V261.67Z" fill="white"/>
<path d="M323.046 261.669H326.246L326.166 266.983H326.206C327.284 263.547 330.041 261.35 334.755 261.35C339.948 261.35 343.025 264.35 343.025 269.061V281.406H339.825V269.74C339.825 266.384 337.907 264.227 333.672 264.227C329.158 264.227 326.241 266.984 326.241 271.698V281.406H323.041L323.046 261.669Z" fill="white"/>
<path d="M375.991 276.851H375.951C375.951 278.409 376.031 280.367 376.111 281.406H372.911V253.72H376.111V263.188C376.111 263.988 376.071 265.588 376.031 266.544H376.072C376.95 263.388 379.827 261.351 384.062 261.351C389.735 261.351 393.211 265.186 393.211 271.179C393.211 277.611 389.655 281.726 384.142 281.726C379.667 281.725 376.83 279.808 375.991 276.851ZM390.014 271.258C390.014 266.983 387.536 264.226 383.462 264.226C378.988 264.226 376.111 267.103 376.111 271.577V272.616C376.111 276.416 378.947 278.848 383.342 278.848C387.417 278.849 390.014 275.893 390.014 271.258Z" fill="white"/>
<path d="M424.509 271.298L417.078 261.67H421.193L427.026 269.421L432.739 261.67H436.539L429.068 271.338L436.899 281.406H432.784L426.632 273.296L420.679 281.406H416.764L424.509 271.298Z" fill="white"/>
<path d="M402.571 282.929L402.815 283.017L418.815 275.527L418.904 275.283L411.413 259.283L411.169 259.194L395.169 266.684L395.081 266.928L402.571 282.929Z" fill="white"/>
<path d="M300.636 281.374L300.852 281.527L318.652 278.487L318.805 278.271L315.765 260.471L315.548 260.318L297.748 263.358L297.595 263.574L300.636 281.374Z" fill="white"/>
<path d="M103.628 280.02C108.764 280.02 112.288 276.234 112.288 270.124C112.288 264.463 108.914 260.902 103.666 260.902C99.5796 260.902 96.5806 262.926 95.7559 266.3H95.7184C95.7559 265.213 95.7934 263.713 95.7934 263.039V253.742H93.769V279.72H95.7934C95.7184 278.746 95.6809 276.834 95.6809 275.109H95.7184C96.5806 277.958 99.3921 280.02 103.628 280.02ZM103.216 278.183C98.6424 278.183 95.7934 275.259 95.7934 271.586V270.573C95.7934 265.663 98.7923 262.739 103.328 262.739C107.527 262.739 110.263 265.588 110.263 270.161C110.263 275.147 107.339 278.183 103.216 278.183Z" fill="white"/>
<path d="M118.428 287.48C121.689 287.48 123.001 285.718 125.251 279.983L132.748 261.202H130.649L124.089 277.733H124.014L116.591 261.202H114.192L122.627 279.72H123.301C121.352 284.406 120.452 285.681 118.203 285.681C117.378 285.681 116.554 285.456 116.104 285.306V287.03C116.591 287.255 117.528 287.48 118.428 287.48Z" fill="white"/>
<path d="M9.04 27.72H11.32V3.44H20.4V1.4H0V3.44H9.04V27.72Z" fill="white"/>
<path d="M24.5381 27.72H26.6981V17.84C26.6981 12.56 29.9781 9.6 34.8181 9.6C39.2981 9.6 41.6181 11.88 41.6181 15.88V27.72H43.7781V15.48C43.7781 10.52 40.6981 7.64 35.4181 7.64C30.6981 7.64 27.7381 9.88 26.6581 13.52H26.6181C26.6181 12.56 26.6981 10.32 26.6981 9.28V0H24.5381V27.72Z" fill="white"/>
<path d="M66.8609 16.88C66.8609 10.92 63.5409 7.64 58.1009 7.64C52.2609 7.64 48.5409 11.6 48.5409 18C48.5409 24.2 52.3009 28.04 58.1809 28.04C63.1809 28.04 66.6609 25.4 66.8609 21.16H64.8209C64.5409 24.24 61.9009 26.16 58.1809 26.16C53.6609 26.16 50.7409 23.12 50.7009 18.08H66.8609V16.88ZM64.8209 16.44H50.7809C51.3009 12 54.0609 9.52 58.1809 9.52C62.2609 9.52 64.8209 11.88 64.8209 16.24V16.44Z" fill="white"/>
</svg>
